<svg width="20" height="18" viewBox="0 0 20 18" fill="none" xmlns="http://www.w3.org/2000/svg">
<path d="M15.8801 3.1201L1.92009 17.0801C1.49009 17.5101 0.770088 17.4701 0.420088 16.9801C-0.0799117 16.2901 -0.179912 15.3301 0.340088 14.5001L3.10009 10.0701C3.47009 9.4801 3.47009 8.5201 3.10009 7.9301L0.340088 3.5001C-0.589912 2.0201 0.480088 0.100098 2.22009 0.100098H13.6701C14.3501 0.100098 15.1901 0.570098 15.5501 1.1401L16.0201 1.8801C16.2601 2.2801 16.2101 2.7901 15.8801 3.1201ZM19.6301 10.1101L14.4501 17.0101C14.0901 17.5001 13.2901 17.9001 12.6701 17.9001H5.51009C4.62009 17.9001 4.17009 16.8201 4.80009 16.1901L16.3201 4.6801C16.7701 4.2301 17.5401 4.3101 17.8801 4.8601L19.7301 7.8301C20.1301 8.4701 20.0901 9.5001 19.6301 10.1101Z" fill="#11233B"/>
</svg>
