<svg width="64" height="64" viewBox="0 0 64 64" fill="none" xmlns="http://www.w3.org/2000/svg">
<mask id="mask0_1191_4540" style="mask-type:luminance" maskUnits="userSpaceOnUse" x="0" y="0" width="64" height="64">
<path d="M64 0H0V64H64V0Z" fill="white"/>
</mask>
<g mask="url(#mask0_1191_4540)">
<path d="M59.8235 57.2741H4.97507C3.05379 55.8996 2.98979 52.8651 4.10966 50.7852C5.22954 48.7052 7.22237 47.2707 9.06851 45.7968C10.9147 44.3229 12.7618 42.6039 13.3682 40.3206C14.1388 37.4183 12.7084 34.4015 11.0361 31.9074C9.36381 29.4133 7.35434 26.9973 6.76323 24.0532C5.94378 19.9714 8.17827 15.7033 11.5142 13.2124C13.4416 11.7733 15.8904 10.8003 18.2453 11.2903C20.8916 11.841 22.8262 14.0622 24.4418 16.2292C26.0573 18.3962 27.6953 20.7512 30.1816 21.8114C33.2252 23.1095 36.7358 22.1272 39.7874 20.848C42.8389 19.5687 45.9175 17.969 49.2252 18.0549C52.4075 18.1376 55.496 19.9209 57.1588 22.6356C58.8215 25.3504 59.0064 28.912 57.634 31.7843C56.6255 33.895 54.8909 35.5572 53.5541 37.477C52.2174 39.3967 51.2646 41.8726 52.104 44.056C53.1483 46.7719 56.4174 47.8546 58.2548 50.1107C59.8148 52.0262 60.8078 55.0083 59.8235 57.2741Z" fill="#FBECDD"/>
<path d="M9.51501 44.9744C8.85414 44.0838 7.92627 43.2936 6.82163 43.1963C5.72902 43.1002 4.66381 43.7203 3.98477 44.5817C3.30573 45.4431 2.95744 46.5174 2.71206 47.5865C2.41433 48.8839 2.2487 50.2115 2.21875 51.5423C2.63565 49.9715 3.3719 48.548 4.33766 47.241C4.67392 46.786 5.04563 46.3478 5.50886 46.0228C5.97209 45.6979 6.53785 45.4927 7.10118 45.5455C7.97414 45.6276 8.67507 46.2937 9.20755 46.9903C10.2461 48.349 10.9332 49.9742 11.184 51.6661L11.9096 51.6332C11.4392 49.3009 10.9327 46.8849 9.51501 44.9744Z" fill="#B6E585"/>
<path d="M21.0808 43.1418C20.6057 41.9991 19.78 40.8172 18.5513 40.6691C17.8694 40.587 17.1794 40.8539 16.6347 41.2723C16.0898 41.6906 15.6716 42.2503 15.2918 42.8227C13.5602 45.4327 12.4849 48.4743 12.1914 51.5927L12.4736 52.3756C13.5316 49.6825 14.8264 47.0498 16.6653 44.816C16.9496 44.4706 17.2528 44.1299 17.6364 43.8997C18.02 43.6696 18.4998 43.5621 18.9213 43.7116C19.4694 43.9059 19.7873 44.4652 20.0428 44.9877C20.948 46.8387 21.8768 48.6502 22.4132 50.6396C22.2426 48.0948 22.0598 45.4969 21.0808 43.1418Z" fill="#B6E585"/>
<path d="M19.8201 47.4969C19.5988 46.8883 19.2573 46.2631 18.664 46.0033C18.1843 45.7931 17.6159 45.8668 17.1436 46.0935C16.6714 46.3201 16.2804 46.6848 15.9193 47.0641C14.9177 48.1168 14.0846 49.3292 13.4609 50.6416L14.1008 50.9016C14.6662 49.7603 15.4476 48.7266 16.3914 47.8713C16.9221 47.3904 17.6532 46.9423 18.3147 47.2168C18.8119 47.4232 19.0708 47.9656 19.2467 48.4744C19.682 49.7337 20.0446 50.993 19.9967 52.3244C20.4423 50.7494 20.3796 49.035 19.8201 47.4969Z" fill="#B6E585"/>
<path d="M10.8742 39.7897C10.5191 38.9781 10.0533 38.1466 9.26533 37.7417C8.46111 37.3284 7.44709 37.4595 6.6782 37.9354C5.9093 38.4113 5.36492 39.1892 5.01356 40.0223C4.6622 40.8555 4.4862 41.7502 4.3125 42.6376C4.71813 41.6717 5.32255 40.7395 6.09797 40.0349C6.8734 39.3302 8.10143 39.0078 8.98373 39.5728C9.59032 39.9613 9.90584 40.6659 10.1533 41.3422C11.3154 44.5196 11.6927 47.9346 11.7489 51.3174L12.3631 51.2832C12.713 47.3946 12.4388 43.367 10.8742 39.7897Z" fill="#B6E585"/>
<path d="M8.74232 47.6665C8.33233 47.2301 7.74558 46.882 7.15832 46.9982C6.82193 47.0648 6.52817 47.2781 6.3075 47.5405C6.08696 47.8029 5.93182 48.1135 5.78961 48.4254C5.07499 49.9937 4.63313 51.7055 4.67012 53.4285C5.16331 51.8787 5.86705 50.4029 6.63326 48.9682C6.7395 48.7692 6.85009 48.5691 7.00651 48.4066C7.16292 48.244 7.37259 48.121 7.59812 48.1146C7.97227 48.1041 8.27844 48.4036 8.49963 48.7056C8.91716 49.276 9.20913 49.9378 9.34852 50.6307L10.2219 50.9382C9.91032 49.769 9.57086 48.5483 8.74232 47.6665Z" fill="#B6E585"/>
<path d="M14.3546 57.253H10.0242L8.40234 50.2256H15.9766L14.3546 57.253Z" fill="#A9A8F0"/>
<mask id="mask1_1191_4540" style="mask-type:luminance" maskUnits="userSpaceOnUse" x="8" y="50" width="8" height="8">
<path d="M14.3546 57.253H10.0242L8.40234 50.2256H15.9766L14.3546 57.253Z" fill="white"/>
</mask>
<g mask="url(#mask1_1191_4540)">
<path d="M10.0788 53.6599C10.023 53.6599 9.96569 53.6569 9.90669 53.6509C9.02093 53.5611 8.20915 52.9431 7.88672 52.113L7.97619 52.0783C8.28582 52.8755 9.0656 53.469 9.91642 53.5554C10.0974 53.5737 10.5426 53.585 10.7658 53.2929C10.9261 53.0833 10.913 52.7954 10.8739 52.591C10.8524 52.4793 10.8202 52.367 10.7891 52.2583C10.7503 52.1226 10.7101 51.9826 10.6893 51.8392C10.5809 51.094 11.0455 50.2995 11.7701 49.991C12.4553 49.6997 13.3179 49.8463 13.9171 50.3557C14.1683 50.5695 14.3732 50.8384 14.5714 51.0984C14.8531 51.4679 15.1191 51.8168 15.5086 52.0261C16.0801 52.333 16.8352 52.2303 17.3034 51.7807L17.37 51.85C16.8723 52.3273 16.0705 52.437 15.4632 52.1106C15.0555 51.8916 14.7707 51.5178 14.4951 51.1565C14.3 50.9006 14.0983 50.636 13.8548 50.4289C13.2827 49.9421 12.46 49.802 11.8077 50.0793C11.1219 50.3712 10.682 51.1219 10.7843 51.8255C10.8042 51.9624 10.8434 52.0994 10.8814 52.2319C10.9132 52.3426 10.9458 52.4572 10.9681 52.573C11.0109 52.7968 11.0239 53.1136 10.842 53.3513C10.6894 53.551 10.4165 53.6599 10.0788 53.6599Z" fill="white"/>
<path d="M13.6729 57.6041C13.5573 57.6041 13.4418 57.5881 13.33 57.5554C12.8777 57.4231 12.5508 57.0555 12.2649 56.6781L12.1775 56.5618C11.9351 56.2381 11.6844 55.9032 11.3376 55.7042C10.8736 55.4381 10.263 55.4589 9.81821 55.756C9.37341 56.0532 9.12061 56.6094 9.18909 57.1398L9.09385 57.1521C9.02089 56.5863 9.29059 55.9931 9.76483 55.6763C10.2392 55.3592 10.8905 55.3369 11.3853 55.6208C11.7493 55.8296 12.0061 56.1726 12.2543 56.5042L12.3413 56.62C12.6173 56.9844 12.9312 57.3386 13.3569 57.4631C13.6809 57.5582 14.0408 57.5008 14.3195 57.3101C14.5981 57.1195 14.7818 56.8047 14.8107 56.4683C14.8432 56.0907 14.6872 55.7222 14.5362 55.366C14.5104 55.3053 14.485 55.2449 14.4603 55.1846C14.2246 54.6081 14.1991 54.1632 14.3824 53.8244C14.5202 53.5699 14.7842 53.3757 15.1072 53.292C15.3652 53.2253 15.6594 53.2242 16.0065 53.2893L15.9888 53.3835C15.6558 53.3214 15.3755 53.3216 15.1312 53.3851C14.834 53.4621 14.592 53.6389 14.4669 53.8702C14.2982 54.182 14.3251 54.6 14.5492 55.1484C14.5737 55.2083 14.5991 55.2683 14.6246 55.3285C14.7801 55.6956 14.9409 56.0752 14.9063 56.4766C14.8748 56.8414 14.6758 57.1827 14.3736 57.3894C14.1676 57.5303 13.9206 57.6041 13.6729 57.6041Z" fill="white"/>
<path d="M12.8493 55.6022C12.6375 55.6022 12.4449 55.5468 12.3207 55.5005C12.095 55.4163 11.8858 55.292 11.6833 55.1721C11.6084 55.1276 11.5335 55.0833 11.4577 55.0408C10.9327 54.7462 10.4354 54.5957 9.97958 54.5933C9.42278 54.5876 8.91462 54.8177 8.62342 55.2014L8.54688 55.1434C8.85433 54.7383 9.38528 54.4973 9.96896 54.4973C9.97267 54.4973 9.97638 54.4973 9.98009 54.4973C10.4589 54.5 10.9578 54.6502 11.5047 54.9571C11.5811 54.9999 11.6566 55.0449 11.7322 55.0895C11.9309 55.2076 12.1365 55.3294 12.3542 55.4107C12.5501 55.4838 12.9283 55.5817 13.2598 55.4144C13.5929 55.2467 13.7918 54.8214 13.7328 54.4033C13.6816 54.041 13.4585 53.6831 13.1047 53.3957C13.016 53.3236 12.92 53.2561 12.8271 53.1908C12.668 53.0789 12.5035 52.9632 12.3658 52.8186C12.168 52.6108 11.9823 52.2508 12.1099 51.9196C12.2509 51.5538 12.7009 51.4173 13.0526 51.4744C13.5121 51.5494 13.8708 51.8604 14.2175 52.161C14.3983 52.3178 14.585 52.4797 14.7837 52.6062C15.2269 52.8884 15.7909 53.0239 16.3718 52.9874L16.3778 53.0831C15.7768 53.1222 15.1924 52.9802 14.7321 52.6872C14.5274 52.5568 14.3379 52.3924 14.1546 52.2336C13.8023 51.9281 13.4698 51.6397 13.0371 51.5691C12.7226 51.5185 12.3222 51.6355 12.1996 51.954C12.0881 52.2435 12.2571 52.5649 12.4354 52.7523C12.5666 52.89 12.7272 53.003 12.8825 53.1123C12.9767 53.1786 13.0741 53.2471 13.1654 53.3212C13.5381 53.6239 13.7735 54.0035 13.828 54.3899C13.8927 54.8476 13.672 55.3147 13.3032 55.5003C13.1536 55.5753 12.9968 55.6022 12.8493 55.6022Z" fill="white"/>
<path d="M9.00931 51.9466C8.87517 51.9466 8.73834 51.9164 8.61264 51.8552C8.36189 51.7335 8.15862 51.4958 8.05469 51.2032L8.14518 51.1712C8.24067 51.4402 8.4264 51.6581 8.65462 51.7689C8.9032 51.8898 9.20003 51.8757 9.41046 51.7331C9.70026 51.5364 9.78179 51.1362 9.73405 50.8271C9.68029 50.4788 9.49008 50.1537 9.32227 49.8669L9.40509 49.8184C9.57725 50.1126 9.77232 50.4462 9.8289 50.8124C9.8929 51.2261 9.74979 51.6188 9.46435 51.8126C9.33341 51.9016 9.17328 51.9466 9.00931 51.9466Z" fill="white"/>
<path d="M11.3466 57.6812C11.1839 57.4652 11.0158 57.2416 10.8044 57.0689C10.5733 56.8801 10.3168 56.7803 10.0764 56.7899C9.80035 56.8 9.55241 56.9678 9.47356 57.1975L9.38281 57.1663C9.4742 56.8998 9.75798 56.7055 10.073 56.6939C10.3346 56.6852 10.616 56.791 10.8651 56.9947C11.0855 57.1746 11.2572 57.4028 11.4233 57.6235L11.3466 57.6812Z" fill="white"/>
</g>
<path d="M61.4767 44.9744C62.1375 44.0838 63.0653 43.2936 64.17 43.1963C65.2626 43.1002 66.3279 43.7203 67.0069 44.5817C67.6859 45.4431 68.0342 46.5174 68.2796 47.5865C68.5773 48.8839 68.743 50.2115 68.7729 51.5423C68.356 49.9715 67.6198 48.548 66.654 47.241C66.3177 46.786 65.946 46.3478 65.4828 46.0228C65.0196 45.6979 64.4538 45.4927 63.8905 45.5455C63.0175 45.6276 62.3166 46.2937 61.7841 46.9903C60.7454 48.349 60.0584 49.9742 59.8077 51.6661L59.082 51.6332C59.5523 49.3009 60.0589 46.8849 61.4767 44.9744Z" fill="#B6E585"/>
<path d="M49.9107 43.1418C50.3857 41.9991 51.2115 40.8172 52.4401 40.6691C53.1221 40.587 53.812 40.8539 54.3568 41.2723C54.9017 41.6906 55.3199 42.2503 55.6997 42.8227C57.4312 45.4327 58.5066 48.4743 58.8001 51.5927L58.5178 52.3756C57.4599 49.6825 56.1651 47.0498 54.3262 44.816C54.0419 44.4706 53.7386 44.1299 53.3551 43.8997C52.9715 43.6696 52.4917 43.5621 52.0701 43.7116C51.522 43.9059 51.204 44.4652 50.9486 44.9877C50.0433 46.8387 49.1146 48.6502 48.5781 50.6396C48.7489 48.0948 48.9318 45.4969 49.9107 43.1418Z" fill="#B6E585"/>
<path d="M51.1697 47.4969C51.391 46.8883 51.7326 46.2631 52.3258 46.0033C52.8056 45.7931 53.3739 45.8668 53.8462 46.0935C54.3184 46.3201 54.7094 46.6848 55.0705 47.0641C56.0721 48.1168 56.9053 49.3292 57.5289 50.6416L56.889 50.9016C56.3237 49.7603 55.5422 48.7266 54.5985 47.8713C54.0678 47.3904 53.3366 46.9423 52.6751 47.2168C52.178 47.4232 51.919 47.9656 51.7432 48.4744C51.3078 49.7337 50.9452 50.993 50.9931 52.3244C50.5475 50.7494 50.6104 49.035 51.1697 47.4969Z" fill="#B6E585"/>
<path d="M60.1201 39.7897C60.475 38.9781 60.9409 38.1466 61.7289 37.7417C62.5331 37.3284 63.5472 37.4595 64.3161 37.9354C65.0849 38.4113 65.6293 39.1892 65.9807 40.0223C66.332 40.8555 66.5081 41.7502 66.6818 42.6376C66.2761 41.6717 65.6717 40.7395 64.8963 40.0349C64.1209 39.3302 62.8928 39.0078 62.0105 39.5728C61.4039 39.9613 61.0884 40.6659 60.841 41.3422C59.6789 44.5196 59.3015 47.9346 59.2453 51.3174L58.6312 51.2832C58.2811 47.3946 58.5554 43.367 60.1201 39.7897Z" fill="#B6E585"/>
<path d="M62.2492 47.6665C62.6592 47.2301 63.2459 46.882 63.8332 46.9982C64.1696 47.0648 64.4634 47.2781 64.6839 47.5405C64.9046 47.8029 65.0596 48.1135 65.2018 48.4254C65.9164 49.9937 66.3583 51.7055 66.3213 53.4285C65.8281 51.8787 65.1243 50.4029 64.3581 48.9682C64.2519 48.7692 64.1413 48.5691 63.9849 48.4066C63.8285 48.244 63.6188 48.121 63.3933 48.1146C63.0191 48.1041 62.713 48.4036 62.4918 48.7056C62.0742 49.276 61.7824 49.9378 61.6429 50.6307L60.7695 50.9382C61.0811 49.769 61.4205 48.5483 62.2492 47.6665Z" fill="#B6E585"/>
<path d="M56.6336 57.253H60.964L62.586 50.2256H55.0117L56.6336 57.253Z" fill="#A9A8F0"/>
<mask id="mask2_1191_4540" style="mask-type:luminance" maskUnits="userSpaceOnUse" x="55" y="50" width="8" height="8">
<path d="M56.6336 57.253H60.964L62.586 50.2256H55.0117L56.6336 57.253Z" fill="white"/>
</mask>
<g mask="url(#mask2_1191_4540)">
<path d="M60.9122 53.6599C60.968 53.6599 61.0254 53.6569 61.0844 53.6509C61.9702 53.5611 62.7819 52.9431 63.1044 52.113L63.0149 52.0783C62.7053 52.8755 61.9255 53.469 61.0747 53.5554C60.8937 53.5737 60.4485 53.585 60.2253 53.2929C60.065 53.0833 60.0781 52.7954 60.1172 52.591C60.1387 52.4793 60.1709 52.367 60.202 52.2583C60.2407 52.1226 60.2809 51.9826 60.3018 51.8392C60.4102 51.094 59.9456 50.2995 59.221 49.991C58.5358 49.6997 57.6732 49.8463 57.074 50.3557C56.8228 50.5695 56.6178 50.8384 56.4197 51.0984C56.138 51.4679 55.872 51.8168 55.4825 52.0261C54.9109 52.333 54.1559 52.2303 53.6877 51.7807L53.6211 51.85C54.1188 52.3273 54.9206 52.437 55.5279 52.1106C55.9356 51.8916 56.2204 51.5178 56.496 51.1565C56.691 50.9006 56.8928 50.636 57.1362 50.4289C57.7084 49.9421 58.531 49.802 59.1833 50.0793C59.8692 50.3712 60.3091 51.1219 60.2068 51.8255C60.1869 51.9624 60.1477 52.0994 60.1097 52.2319C60.0781 52.3426 60.0453 52.4572 60.023 52.573C59.9801 52.7968 59.9672 53.1136 60.1491 53.3513C60.3017 53.551 60.5746 53.6599 60.9122 53.6599Z" fill="white"/>
<path d="M57.3179 57.6041C57.4335 57.6041 57.5491 57.5881 57.6609 57.5554C58.1132 57.4231 58.4401 57.0555 58.7259 56.6781L58.8134 56.5618C59.0558 56.2381 59.3064 55.9032 59.6533 55.7042C60.1173 55.4381 60.7279 55.4589 61.1727 55.756C61.6175 56.0532 61.8703 56.6094 61.8018 57.1398L61.897 57.1521C61.97 56.5863 61.7003 55.9931 61.226 55.6763C60.7517 55.3592 60.1005 55.3369 59.6056 55.6208C59.2415 55.8296 58.9848 56.1726 58.7366 56.5042L58.6495 56.62C58.3736 56.9844 58.0597 57.3386 57.634 57.4631C57.31 57.5582 56.9501 57.5008 56.6714 57.3101C56.3928 57.1195 56.2091 56.8047 56.1802 56.4683C56.1476 56.0907 56.3037 55.7222 56.4547 55.366C56.4804 55.3053 56.5059 55.2449 56.5306 55.1846C56.7663 54.6081 56.7917 54.1632 56.6084 53.8244C56.4707 53.5699 56.2066 53.3757 55.8837 53.292C55.6257 53.2253 55.3315 53.2242 54.9844 53.2893L55.002 53.3835C55.3351 53.3214 55.6155 53.3216 55.8596 53.3851C56.1569 53.4621 56.3989 53.6389 56.524 53.8702C56.6927 54.182 56.6658 54.6 56.4417 55.1484C56.4172 55.2083 56.3917 55.2682 56.3663 55.3285C56.2107 55.6956 56.05 56.0752 56.0845 56.4766C56.116 56.8414 56.3151 57.1827 56.6173 57.3894C56.8231 57.5303 57.0703 57.6041 57.3179 57.6041Z" fill="white"/>
<path d="M58.1416 55.6022C58.3534 55.6022 58.5461 55.5468 58.6702 55.5005C58.8959 55.4163 59.1052 55.292 59.3076 55.1721C59.3824 55.1276 59.4573 55.0833 59.5331 55.0408C60.0581 54.7462 60.5554 54.5957 61.0112 54.5933C61.568 54.5876 62.0762 54.8177 62.3674 55.2014L62.4439 55.1434C62.1365 54.7383 61.6055 54.4973 61.0219 54.4973C61.0181 54.4973 61.0144 54.4973 61.0109 54.4973C60.532 54.5 60.0332 54.6502 59.4862 54.9571C59.4098 54.9999 59.3343 55.0449 59.2588 55.0895C59.06 55.2076 58.8544 55.3294 58.6367 55.4107C58.4409 55.4838 58.0626 55.5817 57.7311 55.4144C57.398 55.2467 57.1991 54.8214 57.2581 54.4033C57.3093 54.041 57.5324 53.6831 57.8862 53.3957C57.9749 53.3236 58.0709 53.2561 58.1639 53.1908C58.323 53.0789 58.4875 52.9632 58.6252 52.8186C58.8229 52.6108 59.0087 52.2508 58.8812 51.9196C58.7401 51.5538 58.2902 51.4173 57.9385 51.4744C57.4789 51.5494 57.1203 51.8604 56.7735 52.161C56.5928 52.3178 56.4061 52.4797 56.2074 52.6062C55.7641 52.8884 55.2002 53.0239 54.6193 52.9874L54.6133 53.0831C55.2142 53.1222 55.7987 52.9802 56.259 52.6872C56.4636 52.5568 56.6532 52.3924 56.8365 52.2336C57.1886 51.9281 57.5213 51.6397 57.954 51.5691C58.2684 51.5185 58.6688 51.6355 58.7915 51.954C58.9029 52.2435 58.734 52.5649 58.5557 52.7523C58.4245 52.89 58.2638 53.003 58.1086 53.1123C58.0144 53.1786 57.917 53.2471 57.8257 53.3212C57.453 53.6239 57.2177 54.0035 57.163 54.3899C57.0984 54.8476 57.3191 55.3147 57.6878 55.5003C57.8372 55.5753 57.994 55.6022 58.1416 55.6022Z" fill="white"/>
<path d="M61.9831 51.9466C62.1172 51.9466 62.254 51.9164 62.3797 51.8552C62.6304 51.7335 62.8337 51.4958 62.9377 51.2032L62.8472 51.1712C62.7517 51.4402 62.566 51.6581 62.3377 51.7689C62.0892 51.8898 61.7923 51.8757 61.5819 51.7331C61.2921 51.5364 61.2106 51.1362 61.2583 50.8271C61.3121 50.4788 61.5023 50.1537 61.6701 49.8669L61.5873 49.8184C61.4151 50.1126 61.2201 50.4462 61.1635 50.8124C61.0996 51.2261 61.2426 51.6188 61.528 51.8126C61.659 51.9016 61.8191 51.9466 61.9831 51.9466Z" fill="white"/>
<path d="M59.6471 57.6812C59.8098 57.4652 59.9779 57.2416 60.1893 57.0689C60.4204 56.8801 60.6769 56.7803 60.9171 56.7899C61.1932 56.8 61.4412 56.9678 61.52 57.1975L61.6108 57.1663C61.5194 56.8998 61.2356 56.7055 60.9206 56.6939C60.659 56.6852 60.3776 56.791 60.1285 56.9947C59.9081 57.1746 59.7363 57.4028 59.5703 57.6235L59.6471 57.6812Z" fill="white"/>
</g>
<path d="M31.0515 19.9248C32.7304 20.8235 34.7933 20.9723 36.5839 20.324C37.4001 20.0285 38.1889 19.5453 38.6268 18.796C39.0647 18.0465 39.0571 16.9954 38.4404 16.3847C37.7423 15.6934 36.5966 15.7864 35.6537 16.0629C34.711 16.3394 33.7432 16.7552 32.7825 16.5501C32.1107 16.4066 31.5432 15.9762 30.978 15.5858C30.0008 14.9108 27.4629 14.2456 27.8922 16.2735C28.2135 17.791 29.746 19.2259 31.0515 19.9248Z" fill="#FBECDD"/>
<path d="M53.7814 42.2775C53.6507 43.2256 53.6343 44.2089 53.9239 45.1211C54.2134 46.0332 54.8431 46.8697 55.7251 47.2412C56.607 47.6127 57.7397 47.4303 58.3446 46.6888C58.9957 45.8906 58.9046 44.7239 58.6263 43.7321C58.348 42.7403 57.9132 41.7553 57.9877 40.728C58.0679 39.6226 58.7232 38.6555 59.1282 37.6238C59.439 36.8323 59.7528 35.3328 58.828 34.7998C57.8929 34.2609 57.0652 35.4473 56.5471 36.0684C55.0776 37.8299 54.095 40.0023 53.7814 42.2775Z" fill="#FBECDD"/>
<path d="M9.91673 38.2977C9.84901 39.5196 9.49561 40.8078 8.56453 41.602C7.63346 42.3961 6.01477 42.44 5.30501 41.4432C4.61509 40.4742 5.05337 39.1284 5.59647 38.0701C6.13957 37.0119 6.78892 35.8399 6.44217 34.7021C6.14405 33.724 4.45548 32.5618 4.8533 31.4493C5.15077 30.6176 6.36242 30.6652 7.00076 31.0173C9.17637 32.218 10.0413 36.0514 9.91673 38.2977Z" fill="#FBECDD"/>
<path d="M42.0195 15.3615C42.3455 15.7748 42.9168 15.9336 43.4408 15.8831C44.1811 15.8115 44.8805 15.341 45.1873 14.6636C45.4941 13.9862 45.374 13.1258 44.8627 12.5858C43.2737 10.908 40.9025 13.9451 42.0195 15.3615Z" fill="#FBECDD"/>
<path d="M5.40472 27.1111C5.2684 26.535 4.64197 26.1223 4.0588 26.2246L3.79397 26.3039C3.25087 26.5396 2.95493 27.2289 3.15807 27.7849C3.3612 28.3409 4.03192 28.6771 4.59896 28.507C5.16613 28.3368 5.54104 27.6871 5.40472 27.1111Z" fill="#FBECDD"/>
<path d="M60.0596 31.1435C60.6108 30.9397 61.2978 31.2544 61.5036 31.805C61.7095 32.3555 61.3974 33.0436 60.8477 33.2515C60.2979 33.4594 59.6086 33.15 59.3986 32.601C59.1885 32.052 59.4955 31.3616 60.0436 31.1495" fill="#FBECDD"/>
</g>
<mask id="mask3_1191_4540" style="mask-type:luminance" maskUnits="userSpaceOnUse" x="0" y="0" width="64" height="64">
<path d="M64 0H0V64H64V0Z" fill="white"/>
</mask>
<g mask="url(#mask3_1191_4540)">
<path d="M28.3887 46.9375C28.3704 46.5239 28.4754 46.0882 28.7592 45.7868C29.0566 45.4707 29.5187 45.3425 29.9505 45.3863C30.3823 45.43 30.786 45.6289 31.1374 45.8838C31.3839 46.0625 31.6298 46.2784 31.9329 46.307C32.2263 46.3346 32.5011 46.1795 32.7814 46.0883C33.3935 45.8893 34.0997 46.0081 34.613 46.3964C35.1263 46.7848 35.4324 47.4321 35.4072 48.0753L28.6664 48.1436C28.5357 47.7508 28.407 47.3511 28.3887 46.9375Z" fill="#F3B645"/>
<path d="M25.3031 48.8678C25.0493 48.6224 24.9913 48.2136 25.123 47.8861C25.2547 47.5585 25.5521 47.3142 25.8851 47.197C26.2182 47.0799 26.5835 47.0798 26.931 47.142C27.3128 47.2103 27.693 47.3524 28.0776 47.302C28.8044 47.2066 29.2907 46.47 29.9953 46.2683C30.5314 46.1148 31.1256 46.3058 31.5523 46.6647C31.979 47.0236 32.2574 47.5303 32.4505 48.0535C31.2908 48.6998 30.043 49.2969 28.722 49.4286C27.6131 49.5392 26.1041 49.6421 25.3031 48.8678Z" fill="#6885CD"/>
<path d="M30.92 49.0814C30.8792 48.6907 30.9034 48.2858 31.0538 47.923C31.204 47.5601 31.4919 47.2433 31.8636 47.116C32.2316 46.9901 32.6397 47.0584 33.0062 47.1889C33.3726 47.3193 33.7159 47.5094 34.0842 47.6348C34.4524 47.7603 34.8639 47.8172 35.2264 47.6763C35.6143 47.5255 35.8872 47.1743 36.2467 46.965C36.7664 46.6625 37.4637 46.699 37.949 47.0542C38.4342 47.4093 38.68 48.063 38.5488 48.6499C36.3125 48.7969 34.1253 49.4755 31.8842 49.5041C31.4996 49.509 31.1836 49.3617 30.92 49.0814Z" fill="#B6E585"/>
<path d="M27.858 57.2744H38.5156V48.0599H27.858V57.2744Z" fill="#AD5B37"/>
<path d="M25.0548 57.2744H32.8125V48.0599H25.0548V57.2744Z" fill="#D67145"/>
<path d="M28.5273 57.2744H29.3398V48.0599H28.5273V57.2744Z" fill="#D69376"/>
<path d="M35.5076 57.2744H36.3203V48.0599H35.5076V57.2744Z" fill="#D98764"/>
<path d="M23.7422 51.1759H31.4998L32.8119 48.0596H25.0542L23.7422 51.1759Z" fill="#AD5B37"/>
<path d="M39.8279 51.1759H34.1246L32.8125 48.0596H38.5158L39.8279 51.1759Z" fill="#D67145"/>
</g>
<mask id="mask4_1191_4540" style="mask-type:luminance" maskUnits="userSpaceOnUse" x="0" y="0" width="64" height="64">
<path d="M64 0H0V64H64V0Z" fill="white"/>
</mask>
<g mask="url(#mask4_1191_4540)">
<path d="M56.2675 51.4346H44.2773V57.2744H56.2675V51.4346Z" fill="#AD5B37"/>
<path d="M59.4229 51.4346H50.6953V57.2744H59.4229V51.4346Z" fill="#D67145"/>
<path d="M55.5157 51.4346H54.6016V57.2744H55.5157V51.4346Z" fill="#D69376"/>
<path d="M47.6603 51.4346H46.7461V57.2744H47.6603V51.4346Z" fill="#D98764"/>
</g>
<mask id="mask5_1191_4540" style="mask-type:luminance" maskUnits="userSpaceOnUse" x="0" y="0" width="64" height="64">
<path d="M64 0H0V64H64V0Z" fill="white"/>
</mask>
<g mask="url(#mask5_1191_4540)">
<path d="M47.6833 51.4346H55.8555V46.0814H47.6833V51.4346Z" fill="#AD5B37"/>
<path d="M45.5319 51.4346H51.4805V46.0814H45.5319V51.4346Z" fill="#D67145"/>
<path d="M48.1972 51.4346H48.8203V46.0814H48.1972V51.4346Z" fill="#D69376"/>
<path d="M53.5488 51.4346H54.1719V46.0814H53.5488V51.4346Z" fill="#D98764"/>
</g>
<path d="M36.429 31.0257L34.9012 32.1207L34.6211 31.8533L36.1744 30.752L36.429 31.0257Z" fill="#B54E71"/>
<path d="M38.4672 33.6602C38.4099 34.0216 38.3765 34.3868 38.3672 34.7526" stroke="#B54E71" stroke-miterlimit="10"/>
<path d="M35.9685 30.8963C35.9685 30.8963 34.9194 31.6514 34.9146 31.6436C34.9097 31.6358 34.7031 31.3048 34.7031 31.3048L35.8113 30.7207L35.9685 30.8963Z" fill="#D2675D"/>
<path d="M8.64202 53.4657L13.1708 47.0653L12.9125 47.5928C12.956 46.9287 13.052 46.2772 13.1599 45.6286C13.2711 44.9808 13.402 44.3376 13.5495 43.6985C13.6967 43.0593 13.8622 42.4244 14.0472 41.7942C14.235 41.1647 14.4359 40.5384 14.6898 39.9247C14.9897 39.1998 15.8204 38.8552 16.5452 39.1551C17.1278 39.3962 17.4642 39.982 17.4183 40.5782C17.3666 41.2404 17.2619 41.8897 17.1442 42.536C17.0235 43.1816 16.8834 43.8225 16.725 44.4591C16.567 45.0957 16.3922 45.7283 16.1979 46.3563C16.0001 46.9834 15.7906 47.6077 15.5284 48.2195L15.3674 48.5953C15.3432 48.6517 15.309 48.7037 15.2701 48.7471L10.0125 54.5636C9.68675 54.9241 9.13047 54.9521 8.77015 54.6264C8.43607 54.3243 8.38768 53.8241 8.64202 53.4657Z" fill="#C15538"/>
<path d="M12.9774 46.8945L15.2807 47.4238L15.4824 48.2366L12.9375 47.2869L12.9774 46.8945Z" fill="#A64930"/>
<path d="M17.3864 41.9268C17.3864 41.9268 16.72 45.1834 16.1148 47.4677L12.7617 46.7257L13.6139 41.508L15.7706 40.8818L17.3864 41.9268Z" fill="#495FA8"/>
<path d="M12.6344 46.3477L16.2965 47.1849L16.1868 47.625L12.5977 46.8086L12.6344 46.3477Z" fill="#3E508F"/>
<path d="M15.7417 24.104C15.9028 24.1611 16.0793 24.1919 16.2448 24.1493C16.4103 24.1067 16.5609 23.9779 16.5918 23.8098C16.6221 23.6452 16.5338 23.4711 16.4163 23.352C16.5718 23.3579 16.7487 23.3553 16.8538 23.2406C16.9503 23.1354 16.9483 22.9717 16.9073 22.8348C16.827 22.5671 16.6199 22.3458 16.3684 22.2239C16.1169 22.102 15.8381 22.0593 15.5625 22.1063C15.661 21.9867 15.7603 21.864 15.8153 21.7192C15.8705 21.5746 15.875 21.4019 15.7894 21.2729C15.7067 21.1484 15.5558 21.0857 15.4082 21.0628C15.1554 21.0235 14.8946 21.0815 14.6621 21.188C14.4294 21.2944 14.2477 21.4491 14.0469 21.6076C14.0135 21.3948 13.9645 21.1572 13.7845 21.039C13.6689 20.9632 13.518 20.9548 13.385 20.9927C13.252 21.0304 13.1345 21.11 13.0292 21.1996C12.5984 21.5665 12.3538 22.1116 12.3604 22.6774C12.2743 22.5375 12.1675 22.3835 12.0048 22.3615C11.9043 22.3479 11.802 22.3913 11.7266 22.459C11.6511 22.5268 11.599 22.6166 11.5566 22.7088C11.3311 23.1977 11.3434 23.7671 11.6098 24.2349C11.5734 24.094 11.3933 24.0235 11.2574 24.0758C11.1216 24.1282 11.0371 24.2728 11.0224 24.4176C11.0077 24.5623 11.0519 24.707 11.1107 24.8401C11.3465 25.3744 11.8384 25.7915 12.4068 25.925C12.7412 26.0035 13.0507 25.9583 13.3707 25.8336C13.6907 25.709 13.981 25.5193 14.2604 25.3197C14.7583 24.964 15.3004 24.5278 15.7417 24.104Z" fill="#1B141C"/>
<path d="M22.1149 23.0721L19.4809 17.7665C19.2999 17.4008 18.8702 17.2193 18.4756 17.3581C18.0489 17.5082 17.8246 17.9758 17.9747 18.4024L19.7749 23.5208C19.4775 23.8158 19.1861 24.116 18.8977 24.419C18.6781 24.6501 18.4601 24.8827 18.2458 25.1185C18.0291 25.3521 17.8167 25.5895 17.6053 25.8277C17.1787 26.3009 16.7667 26.7867 16.3609 27.2778C15.9603 27.7735 15.565 28.2736 15.2024 28.8019C14.8677 29.2894 14.9027 29.9608 15.323 30.411C15.8089 30.9316 16.6247 30.9598 17.1453 30.474C17.6138 30.0368 18.0494 29.5713 18.4798 29.1013C18.905 28.6268 19.324 28.1471 19.7283 27.6547C19.9324 27.4102 20.1355 27.1647 20.3343 26.9156C20.5355 26.6686 20.733 26.4183 20.9289 26.1668C21.2983 25.6913 21.6622 25.2112 22.0083 24.7158C21.7417 24.1425 21.8658 23.5769 22.1149 23.0721Z" fill="#D06C54"/>
<path d="M22.1898 24.4563C22.402 24.1478 22.4452 23.7366 22.2669 23.3774L22.1154 23.0723C21.8664 23.577 21.7422 24.1425 22.0087 24.7159C22.0292 24.6866 22.0503 24.6577 22.0708 24.6282L22.1898 24.4563Z" fill="#C15538"/>
<path d="M17.1504 11.4122C17.165 11.0827 17.0813 10.7357 16.8554 10.4956C16.6184 10.2438 16.2503 10.1416 15.9064 10.1766C15.5624 10.2114 15.2408 10.37 14.961 10.5729C14.7646 10.7152 14.5688 10.8872 14.3272 10.91C14.0935 10.932 13.8746 10.8085 13.6514 10.7358C13.1638 10.5772 12.6013 10.6718 12.1925 10.9812C11.7836 11.2906 11.5397 11.8061 11.5597 12.3185L16.9291 12.3729C17.0333 12.06 17.1358 11.7415 17.1504 11.4122Z" fill="#F06795"/>
<path d="M19.6071 12.9492C19.8094 12.7537 19.8556 12.4281 19.7506 12.1672C19.6456 11.9063 19.4088 11.7116 19.1436 11.6183C18.8784 11.525 18.5873 11.525 18.3106 11.5746C18.0064 11.629 17.7036 11.7422 17.3972 11.7019C16.8183 11.626 16.4309 11.0391 15.8696 10.8785C15.4426 10.7563 14.9693 10.9083 14.6295 11.1943C14.2896 11.4802 14.0679 11.8838 13.9141 12.3004C14.8378 12.8153 15.8318 13.2908 16.884 13.3957C17.767 13.4839 18.969 13.5659 19.6071 12.9492Z" fill="#F99746"/>
<path d="M15.1321 13.1201C15.1646 12.8089 15.1454 12.4863 15.0256 12.1973C14.9059 11.9083 14.6765 11.6559 14.3804 11.5546C14.0873 11.4543 13.7623 11.5088 13.4704 11.6126C13.1784 11.7165 12.905 11.868 12.6116 11.9678C12.3182 12.0676 11.9906 12.1131 11.7018 12.0008C11.3929 11.8808 11.1755 11.601 10.889 11.4342C10.475 11.1933 9.91952 11.2223 9.53296 11.5052C9.1464 11.7881 8.95069 12.3088 9.05527 12.7763C10.8366 12.8934 12.5788 13.4339 14.3639 13.4567C14.6705 13.4607 14.9223 13.3433 15.1321 13.1201Z" fill="#536CC0"/>
<path d="M17.5754 12.3057H9.08594V19.6456H17.5754V12.3057Z" fill="#AD5B37"/>
<path d="M19.8084 12.3057H13.6289V19.6456H19.8084V12.3057Z" fill="#D67145"/>
<path d="M17.0418 12.3057H16.3945V19.6456H17.0418V12.3057Z" fill="#D69376"/>
<path d="M11.4793 12.3057H10.832V19.6456H11.4793V12.3057Z" fill="#D98764"/>
<path d="M20.8535 14.788H14.674L13.6289 12.3057H19.8082L20.8535 14.788Z" fill="#AD5B37"/>
<path d="M8.03906 14.788H12.5819L13.6272 12.3057H9.08418L8.03906 14.788Z" fill="#D67145"/>
<path d="M18.9993 15.9759L14.4453 16.5459L14.5681 17.5268L19.1221 16.9568L18.9993 15.9759Z" fill="#F2F2F2"/>
<path d="M15.8593 21.4497L15.414 17.8916L17.0303 17.6893C17.4166 17.641 17.7665 17.6729 18.08 17.7851C18.393 17.8939 18.6491 18.0701 18.8483 18.3136C19.0474 18.5571 19.1696 18.8602 19.215 19.2228C19.26 19.582 19.2162 19.9058 19.0837 20.1943C18.9507 20.4794 18.7461 20.715 18.47 20.901C18.1934 21.0836 17.862 21.199 17.4757 21.2474L15.8593 21.4497ZM16.5981 20.6706L17.3504 20.5765C17.5876 20.5468 17.7871 20.4771 17.9489 20.3673C18.1136 20.2538 18.2331 20.108 18.3072 19.9301C18.3847 19.7518 18.4094 19.5508 18.3814 19.3271C18.353 19.1001 18.2795 18.9114 18.1608 18.761C18.0452 18.6069 17.8937 18.4968 17.7065 18.4307C17.5222 18.3608 17.3115 18.3408 17.0743 18.3705L16.322 18.4646L16.5981 20.6706ZM18.3403 27.2482C18.0591 27.2834 17.7924 27.2703 17.5404 27.2089C17.2917 27.1471 17.0689 27.0442 16.8719 26.9002C16.6783 26.7558 16.5184 26.578 16.3921 26.3666C16.2692 26.1548 16.1913 25.9168 16.1582 25.6525C16.1251 25.3882 16.142 25.1382 16.2089 24.9027C16.2792 24.6668 16.392 24.4547 16.5474 24.2666C16.7029 24.0785 16.8935 23.9239 17.1192 23.8027C17.345 23.6815 17.5968 23.6036 17.8746 23.5688C18.1559 23.5336 18.4192 23.5471 18.6644 23.6093C18.9131 23.6711 19.1342 23.7742 19.3278 23.9186C19.5248 24.0626 19.6864 24.2403 19.8127 24.4516C19.9385 24.6596 20.0182 24.8974 20.0517 25.1651C20.0848 25.4295 20.0664 25.6813 19.9966 25.9206C19.9263 26.1566 19.8134 26.3686 19.658 26.5567C19.5055 26.741 19.3164 26.8937 19.0907 27.0149C18.8683 27.1356 18.6182 27.2134 18.3403 27.2482ZM18.2475 26.5474C18.4067 26.5275 18.549 26.4821 18.6744 26.4113C18.8032 26.3402 18.912 26.2474 19.0009 26.133C19.0899 26.0186 19.1528 25.8886 19.1896 25.7428C19.2298 25.5967 19.2393 25.4389 19.2181 25.2695C19.1969 25.1 19.1488 24.9495 19.0738 24.8177C19.0022 24.6856 18.9092 24.5751 18.7948 24.4861C18.6838 24.3968 18.5572 24.3335 18.4148 24.2962C18.2725 24.2589 18.1217 24.2503 17.9624 24.2702C17.8032 24.2902 17.6592 24.3357 17.5304 24.4069C17.405 24.4777 17.2979 24.5702 17.2089 24.6846C17.12 24.799 17.0554 24.9293 17.0152 25.0754C16.9784 25.2211 16.9706 25.3787 16.9918 25.5481C17.0126 25.7142 17.059 25.865 17.131 26.0005C17.206 26.1322 17.299 26.2428 17.41 26.3321C17.5244 26.4211 17.6527 26.4842 17.7951 26.5214C17.9374 26.5587 18.0882 26.5673 18.2475 26.5474ZM17.3497 33.3573L16.9044 29.7992L17.5855 29.714L20.0054 32.013L19.675 32.0544L19.3543 29.4926L20.1676 29.3908L20.613 32.9489L19.9369 33.0335L17.5119 30.7351L17.8423 30.6937L18.163 33.2555L17.3497 33.3573ZM17.6273 39.3696L18.7678 35.6131L19.5811 35.5113L21.6174 38.8702L20.7533 38.9784L19.0589 36L19.3842 35.9593L18.471 39.264L17.6273 39.3696ZM18.3248 38.5079L18.4651 37.8554L20.2949 37.6264L20.5969 38.2236L18.3248 38.5079ZM19.5771 45.1727L19.2158 42.2855L18.0772 42.4281L17.9932 41.7571L21.0938 41.369L21.1778 42.04L20.0392 42.1825L20.4006 45.0696L19.5771 45.1727ZM19.5853 51.2187L19.14 47.6606L19.9634 47.5576L20.4087 51.1156L19.5853 51.2187ZM22.0663 57.0172C21.7851 57.0524 21.5184 57.0393 21.2664 56.9779C21.0177 56.9161 20.7949 56.8132 20.5979 56.6692C20.4043 56.5248 20.2444 56.347 20.1181 56.1356C19.9952 55.9238 19.9173 55.6858 19.8842 55.4215C19.8511 55.1572 19.868 54.9072 19.9349 54.6717C20.0052 54.4358 20.118 54.2237 20.2734 54.0356C20.4289 53.8475 20.6195 53.6929 20.8452 53.5717C21.071 53.4505 21.3228 53.3726 21.6006 53.3378C21.8819 53.3026 22.1452 53.3161 22.3904 53.3783C22.6391 53.4401 22.8602 53.5432 23.0538 53.6876C23.2508 53.8316 23.4124 54.0093 23.5387 54.2206C23.6645 54.4286 23.7442 54.6664 23.7777 54.9341C23.8108 55.1985 23.7924 55.4503 23.7226 55.6896C23.6523 55.9256 23.5394 56.1376 23.384 56.3257C23.2315 56.51 23.0424 56.6627 22.8167 56.7839C22.5943 56.9046 22.3442 56.9824 22.0663 57.0172ZM21.9735 56.3164C22.1327 56.2965 22.275 56.2511 22.4004 56.1803C22.5292 56.1092 22.638 56.0164 22.7269 55.902C22.8159 55.7876 22.8788 55.6576 22.9156 55.5118C22.9558 55.3657 22.9653 55.2079 22.9441 55.0385C22.9229 54.869 22.8748 54.7185 22.7998 54.5867C22.7282 54.4546 22.6352 54.3441 22.5208 54.2551C22.4098 54.1658 22.2832 54.1025 22.1408 54.0652C21.9985 54.0279 21.8477 54.0193 21.6884 54.0392C21.5292 54.0592 21.3852 54.1047 21.2564 54.1759C21.131 54.2467 21.0239 54.3392 20.9349 54.4536C20.846 54.568 20.7814 54.6983 20.7412 54.8444C20.7044 54.9901 20.6966 55.1477 20.7178 55.3171C20.7386 55.4832 20.785 55.634 20.857 55.7695C20.932 55.9012 21.025 56.0118 21.136 56.1011C21.2504 56.1901 21.3787 56.2532 21.5211 56.2904C21.6634 56.3277 21.8142 56.3363 21.9735 56.3164ZM21.0757 63.1263L20.6304 59.5682L21.3115 59.483L23.7314 61.782L23.401 61.8234L23.0803 59.2616L23.8936 59.1598L24.339 62.7179L23.6629 62.8025L21.2379 60.5041L21.5683 60.4627L21.889 63.0245L21.0757 63.1263Z" fill="#333333"/>
<path d="M15.2944 26.5771H13.2656V29.3125H15.2944V26.5771Z" fill="#D06C54"/>
<path d="M15.297 26.5771V27.4232C14.835 27.4424 13.7751 27.3938 13.3438 26.581L13.6407 26.5771H15.297Z" fill="#C15538"/>
<path d="M17.186 37.4077H11.6321L11.4109 29.8701C11.391 29.1917 11.761 28.588 12.3193 28.3987L14.3177 27.7207L16.4793 28.4111C17.0473 28.5925 17.4269 29.2014 17.4068 29.8884L17.186 37.4077Z" fill="#D06C54"/>
<path d="M16.5866 41.8868H12.2326C11.6375 41.8868 11.1973 41.1142 11.2896 40.2467L11.6475 36.8818H17.1716L17.5295 40.2467C17.6219 41.1143 17.1817 41.8868 16.5866 41.8868Z" fill="#D06C54"/>
<path d="M7.00106 23.8252L6.83082 24.2455C6.7105 24.5492 6.7352 24.911 6.93258 25.2015L7.06736 25.3997C7.09514 25.4407 7.12394 25.4807 7.1521 25.5215C7.41066 24.9571 7.25181 24.3449 7.00106 23.8252Z" fill="#C15538"/>
<path d="M13.4247 28.9393C13.1039 28.4629 12.7504 28.015 12.3916 27.5716C12.0276 27.1327 11.6575 26.6992 11.2729 26.2782C11.0824 26.0661 10.8911 25.8549 10.6952 25.6474C10.502 25.4377 10.305 25.2314 10.1063 25.0263C9.84173 24.7539 9.57408 24.4841 9.30016 24.2199L10.7878 18.0334C10.8647 17.7152 10.6992 17.38 10.3866 17.2534C10.0426 17.1141 9.65075 17.28 9.51149 17.6241L7 23.8256C7.25062 24.3452 7.4096 24.9575 7.15104 25.5218C7.44915 25.9528 7.76314 26.3699 8.0825 26.7826C8.25747 27.0081 8.43398 27.2324 8.61434 27.4532C8.79213 27.6763 8.97427 27.8956 9.15744 28.1141C9.51994 28.5543 9.89702 28.9818 10.2803 29.4039C10.6687 29.8216 11.0623 30.2348 11.4887 30.6194C11.9187 31.0074 12.573 31.0698 13.075 30.7318C13.6665 30.3332 13.823 29.5308 13.4247 28.9393Z" fill="#D06C54"/>
<path d="M17.0218 46.9764C17.0989 46.8224 17.13 46.6685 17.2258 46.5425C17.055 46.057 16.8609 45.5834 16.6594 45.1135C16.3973 44.5107 16.1172 43.9172 15.8218 43.3314C15.5268 42.7456 15.215 42.1683 14.8854 41.6002C14.5532 41.0336 14.209 40.473 13.8164 39.9373C13.4623 39.4555 12.8252 39.2306 12.2264 39.4278C11.4813 39.6732 11.0762 40.4762 11.3217 41.2214C11.5295 41.8522 11.7857 42.458 12.0539 43.0577C12.3247 43.6559 12.6132 44.2451 12.9185 44.8257C13.2234 45.4065 13.5437 45.9794 13.882 46.543C14.1916 47.0527 14.5119 47.5569 14.8669 48.0433L15.5682 55.4305C15.6093 55.8682 15.9721 56.2157 16.4224 56.2267C16.908 56.2386 17.3114 55.8546 17.3233 55.3688L17.4934 48.4275C17.0011 48.1329 16.9061 47.5552 17.0218 46.9764Z" fill="#D06C54"/>
<path d="M17.4964 48.4273L17.5184 47.5304C17.5196 47.4722 17.5116 47.4105 17.4932 47.3518L17.3702 46.962C17.3256 46.8206 17.2779 46.681 17.2289 46.542C17.133 46.6682 17.1019 46.8219 17.0248 46.9759C16.9091 47.5549 17.0041 48.1325 17.4964 48.4273Z" fill="#C15538"/>
<path d="M16.3174 24.6389C16.3174 23.2985 15.4209 22.2119 14.3149 22.2119C13.209 22.2119 12.3125 23.2985 12.3125 24.6389C12.3125 25.0581 12.4011 25.4783 12.5831 25.8566C12.7467 26.1967 12.9868 26.5038 13.2945 26.7248C13.4857 26.8622 13.7099 26.9675 13.9405 27.0165C14.0939 27.0492 14.2591 27.0421 14.4152 27.0443C14.5864 27.0466 14.7577 27.0444 14.9287 27.0376C15.1277 27.0297 15.338 27.0199 15.5281 26.9548C15.6964 26.8972 15.8511 26.7952 15.972 26.665C16.1801 26.4412 16.2948 26.141 16.2948 25.8357V24.983C16.3083 24.8705 16.3174 24.7562 16.3174 24.6389Z" fill="#D06C54"/>
<path d="M12.7599 24.6222C12.6881 24.4944 12.5146 24.4209 12.3506 24.4329C12.1868 24.445 12.0377 24.534 11.9478 24.6531C11.858 24.7721 11.8233 24.9179 11.8287 25.0599C11.8342 25.2064 11.8827 25.3546 11.9862 25.4707C12.0899 25.587 12.2525 25.6674 12.4223 25.6668C12.5922 25.6663 12.7626 25.5762 12.8216 25.4387L12.7599 24.6222Z" fill="#D06C54"/>
<path d="M12.3697 25.4106C12.4995 25.1693 12.4807 24.8795 12.3203 24.6504" stroke="#C15538" stroke-width="0.6854" stroke-miterlimit="10" stroke-linecap="round" stroke-linejoin="round"/>
<path d="M12.4182 24.9814C12.2817 25.0415 12.1759 25.145 12.1289 25.2643" stroke="#C15538" stroke-width="0.6854" stroke-miterlimit="10" stroke-linecap="round" stroke-linejoin="round"/>
<path d="M15.3995 55.5475C15.3995 55.5614 15.3995 55.5765 15.4007 55.5914C15.4018 55.6816 15.4076 55.7787 15.4122 55.877C15.4168 55.9464 15.4214 56.0158 15.426 56.0862C15.4341 56.1856 15.4421 56.2862 15.4515 56.3844C15.47 56.5983 15.4919 56.7994 15.5105 56.9625C15.536 57.1913 15.5555 57.3439 15.5555 57.3439L20.5644 57.3404C20.5644 57.3404 20.7066 57.1775 20.5656 56.9625C20.3598 56.6422 19.976 56.2042 19.3379 55.9914C18.6374 55.7568 18.2144 55.4469 17.9299 55.1383C17.9219 55.128 17.9127 55.1199 17.9056 55.1094C17.819 55.0157 17.7484 54.9198 17.6848 54.8273C17.6768 54.8181 17.6698 54.8064 17.6641 54.7961C17.6317 54.7464 17.6028 54.6989 17.5728 54.6527C17.4676 54.4793 17.3047 54.5555 17.1427 54.714C16.7983 55.0515 16.2781 55.1451 15.8354 54.9544C15.6931 54.8919 15.5672 54.8585 15.4944 54.8839C15.4435 54.9036 15.4158 55.0203 15.4054 55.1936C15.3984 55.2944 15.3972 55.4157 15.3995 55.5475Z" fill="#1B141C"/>
<path d="M15.5096 56.9619C15.4944 57.1901 15.4962 57.3446 15.4962 57.3446L20.5647 57.3404C20.5647 57.3404 20.7065 57.1776 20.5646 56.9619H15.5096Z" fill="#D5D5D1"/>
<path d="M17.2899 55.1821L17.4413 55.3764C17.4665 55.4093 17.5145 55.4143 17.5462 55.3891L17.9033 55.1089C17.8175 55.0154 17.7467 54.9195 17.6825 54.8274C17.6749 54.8173 17.6686 54.8059 17.6622 54.7959L17.3026 55.0774C17.2698 55.1026 17.2634 55.1506 17.2899 55.1821Z" fill="#D5D5D1"/>
<path d="M15.3995 55.5472C15.3995 55.561 15.3995 55.5761 15.4007 55.5911L15.5139 55.6049C15.5555 55.6106 15.5937 55.5806 15.5971 55.5401L15.6272 55.295C15.633 55.2534 15.6029 55.2164 15.5625 55.2118L15.4053 55.1934C15.3984 55.294 15.3972 55.4153 15.3995 55.5472Z" fill="#D5D5D1"/>
<path d="M16.9398 56.0763C16.9398 56.2862 16.7696 56.4564 16.5597 56.4564C16.3498 56.4564 16.1797 56.2862 16.1797 56.0763C16.1797 55.8664 16.3498 55.6963 16.5597 55.6963C16.7696 55.6963 16.9398 55.8665 16.9398 56.0763Z" fill="#D5D5D1"/>
<path d="M11.9486 57.0757C11.9434 57.068 11.937 57.0591 11.9294 57.0501C11.7233 56.8031 11.3406 56.4652 10.7018 56.3013C10.5976 56.2743 10.5007 56.2459 10.4091 56.2166C10.2821 55.8247 10.2463 55.4912 10.2579 55.2051C10.2596 55.1921 10.2587 55.1798 10.2613 55.1675C10.2661 55.04 10.2842 54.9223 10.3047 54.8119C10.3054 54.7996 10.3087 54.7866 10.3119 54.7752C10.3242 54.7172 10.3373 54.6632 10.3487 54.6093C10.3969 54.4123 10.2277 54.351 10.0013 54.3486C9.51899 54.3437 9.08494 54.042 8.90676 53.5941C8.85032 53.4495 8.78491 53.3366 8.71553 53.3032C8.66574 53.2812 8.56347 53.344 8.43355 53.4593C8.35752 53.5255 8.27086 53.6105 8.17934 53.7054C8.16948 53.7152 8.15886 53.7258 8.14913 53.7372C8.08616 53.8019 8.02164 53.8746 7.95534 53.9473C7.90952 53.9996 7.86382 54.0519 7.81723 54.1051C7.75259 54.1811 7.68731 54.2579 7.62433 54.334C7.48622 54.4983 7.3595 54.656 7.25735 54.7844C7.11348 54.9642 7.01953 55.086 7.01953 55.086L9.28116 57.3445L9.53511 57.0906L9.71944 57.1296L10.1156 57.1955V57.342L11.9281 57.3407C11.9281 57.3407 12.0561 57.228 11.9486 57.0757Z" fill="#1B141C"/>
<path d="M9.77314 54.7855L9.74281 55.0301C9.73743 55.0712 9.76777 55.1087 9.80796 55.1131L10.2586 55.1675C10.264 55.0407 10.2818 54.923 10.3015 54.8123C10.3033 54.7997 10.3069 54.7873 10.3096 54.7757L9.85621 54.7204C9.81513 54.715 9.77673 54.7444 9.77314 54.7855Z" fill="#D5D5D1"/>
<path d="M8.17865 53.7053C8.16879 53.7151 8.15817 53.7257 8.14844 53.7371L8.21871 53.827C8.24405 53.8605 8.29231 53.8663 8.32329 53.84L8.51785 53.688C8.55138 53.6626 8.55625 53.6153 8.5309 53.5833L8.43285 53.459C8.35682 53.5254 8.27017 53.6104 8.17865 53.7053Z" fill="#D5D5D1"/>
<path d="M8.89483 55.1692C8.74648 55.3176 8.50584 55.3176 8.35736 55.1692C8.20901 55.0208 8.20901 54.7803 8.35736 54.6318C8.50584 54.4834 8.74635 54.4834 8.89483 54.6318C9.04331 54.7801 9.04331 55.0208 8.89483 55.1692Z" fill="#D5D5D1"/>
<path d="M11.9476 57.0761H10.1146V57.0763H9.54885L7.25675 54.7842C7.08459 54.9347 6.97656 55.0453 6.97656 55.0453L9.28018 57.3449C9.28018 57.3449 10.0859 57.3423 10.1146 57.3423V57.3424L11.9271 57.3411C11.9271 57.3411 12.0551 57.2285 11.9476 57.0761Z" fill="#D5D5D1"/>
<path d="M10.3725 18.9219C10.3725 18.9219 11.2768 17.2766 11.5292 16.9118C11.7815 16.547 11.9297 16.2202 11.9337 16.1041C11.9377 15.988 11.594 16.1111 11.2413 16.655C11.2413 16.655 11.6343 15.9606 11.6322 15.5689C11.6302 15.1772 11.057 16.1366 10.917 16.4819C10.917 16.4819 11.2811 15.5757 11.2334 15.1711C11.1857 14.7665 10.6501 15.8778 10.5211 16.3516C10.5211 16.3516 10.714 15.3754 10.6105 15.1045C10.5071 14.8336 10.2029 15.8851 10.1372 16.3272C10.0715 16.7693 9.894 16.846 9.8501 16.7655C9.8062 16.6848 9.67717 16.3524 9.63276 16.174C9.60498 16.0624 9.39954 15.8219 9.33951 15.9839C9.30341 16.0811 9.35692 16.3847 9.39455 16.5653C9.49464 17.0469 9.57093 17.8818 9.4693 18.2361C9.3678 18.5904 9.3125 18.7277 9.3125 18.7277L10.3725 18.9219Z" fill="#D06C54"/>
<path d="M11.6826 24.945C11.9155 25.1369 12.2073 25.2563 12.5078 25.2828C12.6839 25.2983 12.8721 25.2792 13.0162 25.1767C13.144 25.0858 13.2247 24.9321 13.2268 24.7753C13.229 24.6185 13.1524 24.4626 13.0272 24.3684C13.2233 24.4348 13.3956 24.4908 13.6027 24.4919C13.8098 24.4931 14.0267 24.4238 14.1595 24.2651C14.2924 24.1062 14.314 23.8491 14.1741 23.6964C14.309 23.8268 14.4663 23.9325 14.6357 24.0132C14.8051 24.0938 15.0144 24.1148 15.1765 24.0202C15.3371 23.9265 15.4238 23.7215 15.379 23.541C15.5373 23.7801 15.7781 23.9649 16.0435 24.0733C16.1485 24.1162 16.2701 24.1459 16.373 24.0983C16.4776 24.0499 16.5352 23.9302 16.5394 23.815C16.5436 23.6998 16.5035 23.5878 16.4578 23.4821C16.1767 22.8311 15.6443 22.2808 14.9806 22.031C14.317 21.7811 13.528 21.8536 12.9511 22.266C12.3432 22.7004 12.0323 23.4304 11.7632 24.1275C11.6667 24.378 11.4752 24.7741 11.6826 24.945Z" fill="#1B141C"/>
<path d="M17.2582 37.0527C15.2784 37.3877 13.5371 37.3932 11.5553 37.0708L11.0736 40.4277C11.0119 41.0305 11.1014 41.6386 11.3355 42.1974C11.8949 43.533 13.0398 46.0716 14.1979 47.4675L17.2411 45.7985L15.4895 41.9267H17.3891C17.5622 41.1599 17.6085 40.3699 17.526 39.588L17.2582 37.0527Z" fill="#536CC0"/>
<path d="M13.8867 47.3082L17.1768 45.4951L17.3879 45.8965L14.1663 47.6766L13.8867 47.3082Z" fill="#3E508F"/>
<path d="M14.365 47.2316C14.365 47.1806 12.4726 43.4305 11.7094 41.9198C11.505 41.5151 11.4283 41.0587 11.489 40.6094L11.7921 38.3643" stroke="#3E508F" stroke-miterlimit="10"/>
<path d="M11.4883 38.2914C11.4883 38.2914 12.3085 38.7364 13.0765 37.6543" stroke="#3E508F" stroke-miterlimit="10"/>
<path d="M17.2801 38.4096C16.9832 38.3769 16.6008 38.2102 16.2305 37.6885" stroke="#3E508F" stroke-miterlimit="10"/>
<path d="M15.0078 37.6025V40.469" stroke="#3E508F" stroke-miterlimit="10"/>
<path d="M14.4102 37.7002L14.4748 38.9657C14.4944 39.3492 14.8111 39.6501 15.1951 39.6501" stroke="#3E508F" stroke-miterlimit="10"/>
<path d="M17.0481 41.9268C17.0188 41.9268 15.4297 41.9268 15.4297 41.9268L16.6283 44.4443" stroke="#3E508F" stroke-miterlimit="10"/>
<path d="M17.5509 37.669C17.5358 35.3277 17.5915 32.6639 17.5764 30.3227L20.5429 27.0454L18.0907 25.0176L15.7103 27.9961L15.5938 27.9451C15.3744 28.424 14.8696 28.7582 14.343 28.7731C13.8164 28.7879 13.2935 28.4825 13.0477 28.0165L12.9033 28.0868L10.8411 25.5895L8.42578 27.4419L11.2966 30.6761C11.3275 32.8726 11.2401 35.4387 11.2712 37.6352C13.4152 37.7874 15.4066 37.8162 17.5509 37.669Z" fill="#F99746"/>
<path d="M11.1325 25.6672L8.53439 27.8761L8.08984 27.2778L10.7906 25.2646L11.1325 25.6672Z" fill="#D9843C"/>
<path d="M17.6289 25.0495L20.5426 27.4267L20.8596 26.9018L18.0563 24.6289L17.6289 25.0495Z" fill="#D9843C"/>
<path d="M16.1217 32.2643H12.8454C12.6331 32.2643 12.4609 32.0921 12.4609 31.8798V31.2517C12.4609 31.0393 12.6331 30.8672 12.8454 30.8672H16.1217C16.3341 30.8672 16.5062 31.0393 16.5062 31.2517V31.8798C16.5062 32.0921 16.3341 32.2643 16.1217 32.2643Z" fill="#D9843C"/>
<path d="M11.3125 30.6247C11.7482 30.4504 12.1277 30.1387 12.3833 29.7451" stroke="#D9843C" stroke-miterlimit="10"/>
<path d="M17.5145 30.3827C17.1463 30.2528 16.8236 29.9971 16.6133 29.668" stroke="#D9843C" stroke-miterlimit="10"/>
<path d="M12.7773 36.1295C14.0536 35.6526 15.1725 34.764 15.926 33.6289" stroke="#D9843C" stroke-miterlimit="10"/>
<path d="M13.9219 36.8712C14.4774 36.4715 14.9419 35.9462 15.2705 35.3457" stroke="#D9843C" stroke-miterlimit="10"/>
<path d="M10.5238 25.4625L8.32976 27.0978L7.94141 26.5986L10.3045 25.2314L10.5238 25.4625Z" fill="#C15538"/>
<path d="M18.4219 24.9259L20.5417 26.6444L20.9907 26.0864L18.6171 24.7158L18.4219 24.9259Z" fill="#C15538"/>
<path d="M17.0557 46.0791L14.4648 47.5107L14.7607 47.8948L17.1301 46.276L17.0557 46.0791Z" fill="#C15538"/>
<path d="M15.838 25.1047C15.9212 25.1047 15.9886 25.0176 15.9886 24.9103C15.9886 24.8029 15.9212 24.7158 15.838 24.7158C15.7549 24.7158 15.6875 24.8029 15.6875 24.9103C15.6875 25.0176 15.7549 25.1047 15.838 25.1047Z" fill="#1B141C"/>
<path d="M14.4826 25.1047C14.5657 25.1047 14.6331 25.0176 14.6331 24.9103C14.6331 24.8029 14.5657 24.7158 14.4826 24.7158C14.3994 24.7158 14.332 24.8029 14.332 24.9103C14.332 25.0176 14.3994 25.1047 14.4826 25.1047Z" fill="#1B141C"/>
<path d="M15.1988 24.7725C15.1721 24.9057 15.1932 25.0482 15.2574 25.1679C15.296 25.2397 15.3488 25.3026 15.3906 25.3727C15.4323 25.4427 15.463 25.5239 15.4505 25.6045C15.4299 25.736 15.3049 25.8214 15.1913 25.8908" stroke="#1B141C" stroke-width="0.75" stroke-miterlimit="10" stroke-linecap="round" stroke-linejoin="round"/>
<path d="M16.1031 24.6033C16.1317 24.5989 16.1609 24.5925 16.1844 24.5763C16.208 24.56 16.2251 24.5317 16.2202 24.5038C16.213 24.4615 16.1637 24.4411 16.1212 24.4307C15.9604 24.3916 15.7916 24.3868 15.6281 24.4122C15.585 24.4188 15.513 24.4419 15.5247 24.4996C15.534 24.5463 15.6003 24.5572 15.6393 24.5666C15.7886 24.6025 15.95 24.6267 16.1031 24.6033Z" fill="#1B141C"/>
<path d="M14.2156 24.6033C14.1871 24.5989 14.1579 24.5925 14.1343 24.5763C14.1106 24.56 14.0936 24.5317 14.0985 24.5038C14.1058 24.4615 14.1551 24.4411 14.1976 24.4307C14.3583 24.3916 14.5272 24.3868 14.6906 24.4122C14.7338 24.4188 14.8056 24.4419 14.794 24.4996C14.7847 24.5463 14.7184 24.5572 14.6795 24.5666C14.5301 24.6025 14.3687 24.6267 14.2156 24.6033Z" fill="#1B141C"/>
<path d="M15.6618 26.0657C15.3336 26.1099 14.9994 26.1095 14.6712 26.0645C14.6292 26.2522 14.7096 26.4677 14.8725 26.5699C15.0355 26.6722 15.2564 26.668 15.4207 26.568C15.5852 26.468 15.654 26.258 15.6618 26.0657Z" fill="white"/>
<path d="M41.2587 52.014C40.8473 51.9833 40.4372 51.9411 40.0273 51.8994L40.3805 56.4476C40.4075 56.7999 40.6878 57.0899 41.051 57.1181C41.4525 57.1493 41.8032 56.849 41.8344 56.4476L42.1751 52.0621C41.8691 52.0517 41.5636 52.0368 41.2587 52.014Z" fill="#F78D7D"/>
<path d="M42.0029 55.8935C42.0018 55.9807 41.9976 56.0731 41.9924 56.1675C41.9892 56.2253 41.9851 56.2831 41.9808 56.3419C41.9746 56.4248 41.9671 56.5089 41.9598 56.5897C41.9441 56.7682 41.9262 56.9352 41.9104 57.0707C41.8894 57.2618 41.8737 57.3889 41.8737 57.3889L37.7054 57.3857C37.7054 57.3857 37.5867 57.2503 37.7044 57.0707C37.8755 56.805 38.1949 56.4406 38.7262 56.263C39.3091 56.0677 39.6608 55.8104 39.8971 55.553C39.9044 55.5446 39.9118 55.5373 39.9181 55.5288C39.9895 55.4511 40.0483 55.3713 40.1019 55.2946C40.1082 55.2861 40.1134 55.2768 40.1187 55.2683C40.146 55.2274 40.1702 55.1874 40.1943 55.1487C40.4212 54.7758 40.9736 55.7915 40.9736 55.7915C40.9736 55.7915 41.7161 55.2663 41.9241 55.3419C41.9912 55.3673 42.0091 55.5963 42.0029 55.8935Z" fill="#1B141C"/>
<path d="M41.9111 57.0703C41.9239 57.2603 41.9224 57.3888 41.9224 57.3888L37.7048 57.3853C37.7048 57.3853 37.5867 57.2498 37.7049 57.0703H41.9111Z" fill="#D5D5D1"/>
<path d="M40.4284 55.5898L40.3024 55.7516C40.2814 55.7789 40.2414 55.7831 40.2152 55.7621L39.918 55.529C39.9894 55.4513 40.0481 55.3715 40.1018 55.2948C40.108 55.2863 40.1133 55.277 40.1185 55.2686L40.4178 55.5028C40.4452 55.5237 40.4504 55.5636 40.4284 55.5898Z" fill="#D5D5D1"/>
<path d="M41.9921 56.168C41.9889 56.2257 41.9848 56.2836 41.9805 56.3423C41.823 56.44 41.6466 56.5114 41.4607 56.5503C41.3346 56.5776 41.2024 56.5892 41.0721 56.584C40.943 56.5797 40.8211 56.565 40.7067 56.5598C40.5922 56.5556 40.4893 56.563 40.3958 56.5923C40.3013 56.6207 40.212 56.6722 40.1343 56.7351C39.9777 56.8622 39.8707 57.0471 39.8328 57.234L39.418 57.1248C39.5072 56.8443 39.6889 56.6039 39.9273 56.4484C40.0459 56.3707 40.1793 56.3118 40.3211 56.2846C40.464 56.2551 40.6068 56.2626 40.7328 56.2814C40.8609 56.3003 40.9785 56.3276 41.0909 56.3423C41.2023 56.358 41.3147 56.3601 41.4281 56.3476C41.6234 56.3276 41.8166 56.2656 41.9921 56.168Z" fill="#D5D5D1"/>
<path d="M39.8999 46.3096L39.6247 47.2509C39.5781 47.4101 39.5593 47.576 39.5688 47.7416L39.5985 48.2579C40.2346 47.7365 40.0548 47.0123 39.8999 46.3096Z" fill="#3E508F"/>
<path d="M43.6301 40.5312L41.4367 41.063L39.903 46.3098C40.0578 47.0125 40.2376 47.7368 39.6016 48.2581L39.9194 53.7857H42.189L42.6674 48.06L45.259 41.6975L43.6301 40.5312Z" fill="#495FA8"/>
<path d="M39.7578 53.4754L42.4083 53.4189L42.3712 54.1041L39.8295 54.0335L39.7578 53.4754Z" fill="#3E508F"/>
<path d="M41.8477 53.7617L42.1858 47.9989L43.7044 44.7627" stroke="#3E508F" stroke-miterlimit="10"/>
<path d="M41.8047 25.6113C42.0736 25.7515 42.2012 26.0765 42.2026 26.3797C42.2039 26.6829 42.1034 26.9758 42.0242 27.2685C41.9451 27.5613 41.8869 27.874 41.9722 28.1649C42.0965 28.5891 42.4969 28.8784 42.6682 29.2861C42.7972 29.5933 42.7839 29.9472 42.6842 30.2652C42.5845 30.5831 42.404 30.8698 42.2044 31.1367C42.7949 31.0695 43.4282 30.8161 43.7997 30.3523C44.1411 29.9263 44.2311 29.3502 44.2226 28.8044C44.2108 28.0463 44.0255 27.2785 43.6055 26.6472C43.1856 26.0157 42.5553 25.7191 41.8047 25.6113Z" fill="#1B141C"/>
<path d="M42.9528 26.3926C42.2614 26.2313 41.6594 25.7049 41.4354 25.0312C41.2114 24.3574 41.3878 23.5597 41.8957 23.0636C42.4036 22.5676 43.225 22.4134 43.8666 22.7172C44.3854 22.963 44.7567 23.4616 45.2877 23.6803C45.6483 23.8288 46.0493 23.8342 46.4321 23.9087C46.815 23.9832 47.2172 24.1583 47.385 24.5103C47.6719 25.1119 47.1261 25.7906 47.1515 26.4568C47.1698 26.9396 47.4839 27.3524 47.7633 27.7466C48.0428 28.1409 48.3117 28.6038 48.2231 29.0788C48.1274 29.5922 47.6408 29.956 47.5081 30.4612C47.4039 30.8584 47.5364 31.282 47.7352 31.6413C47.934 32.0006 48.1981 32.3209 48.3895 32.6841C48.8507 33.559 48.8393 34.6658 48.3602 35.5311C47.8811 36.3962 46.9491 36.9933 45.9628 37.0668C45.5013 33.3259 43.7865 30.0681 42.9528 26.3926Z" fill="#1B141C"/>
<path d="M45.4897 28.333H43.4609V31.0684H45.4897V28.333Z" fill="#F78D7D"/>
<path d="M43.4609 28.333V29.1791C43.923 29.1983 44.9829 29.1496 45.4142 28.3368L45.1173 28.333H43.4609Z" fill="#D2675D"/>
<path d="M42.4375 26.3948C42.4375 25.0544 43.334 23.9678 44.4399 23.9678C45.5459 23.9678 46.4424 25.0544 46.4424 26.3948C46.4424 26.8139 46.3537 27.2342 46.1718 27.6124C46.0082 27.9525 45.7681 28.2596 45.4603 28.4807C45.2691 28.618 45.045 28.7234 44.8143 28.7724C44.661 28.805 44.4957 28.798 44.3397 28.8C44.1684 28.8025 43.9972 28.8002 43.8262 28.7934C43.6271 28.7854 43.4168 28.7756 43.2268 28.7107C43.0584 28.6531 42.9038 28.5511 42.7828 28.4209C42.5747 28.197 42.46 27.8969 42.46 27.5916V26.7388C42.4466 26.6263 42.4375 26.512 42.4375 26.3948Z" fill="#F78D7D"/>
<path d="M45.9992 26.3781C46.071 26.2502 46.2446 26.1767 46.4084 26.1888C46.5723 26.2008 46.7214 26.2899 46.8112 26.4089C46.9011 26.528 46.9358 26.6738 46.9304 26.8157C46.9249 26.9623 46.8764 27.1105 46.7728 27.2266C46.6691 27.3428 46.5066 27.4232 46.3369 27.4227C46.1671 27.4222 45.9966 27.3321 45.9375 27.1946L45.9992 26.3781Z" fill="#D06C54"/>
<path d="M46.3864 27.1664C46.2566 26.9252 46.2754 26.6354 46.4358 26.4062" stroke="#C15538" stroke-width="0.6854" stroke-miterlimit="10" stroke-linecap="round" stroke-linejoin="round"/>
<path d="M46.3398 26.7373C46.4763 26.7973 46.5821 26.9009 46.6291 27.0202" stroke="#C15538" stroke-width="0.6854" stroke-miterlimit="10" stroke-linecap="round" stroke-linejoin="round"/>
<path d="M43.9922 53.1746C44.0411 53.547 44.0907 53.9192 44.1408 54.2916C44.2488 55.0666 44.356 55.8418 44.4782 56.616C44.5311 56.9514 44.8132 57.2153 45.1656 57.232C45.5688 57.251 45.9109 56.9396 45.93 56.5365C45.967 55.7536 45.9887 54.9714 46.0115 54.189C46.0207 53.8109 46.0294 53.4328 46.0374 53.0547C45.3559 53.1031 44.6743 53.1468 43.9922 53.1746Z" fill="#F78D7D"/>
<path d="M42.3546 39.0282H46.4918L47.3852 32.3115C47.4951 31.4855 47.193 30.7074 46.6281 30.4544L44.5225 29.5107L42.2398 30.4711C41.6639 30.7134 41.3526 31.4978 41.4637 32.3331L42.3546 39.0282Z" fill="#F78D7D"/>
<path d="M42.2956 41.8411H46.5482C47.1293 41.8411 47.4184 41.0099 47.1928 40.1611L46.4901 37.5186H42.3536L41.6509 40.1611C41.4253 41.0099 41.7144 41.8411 42.2956 41.8411Z" fill="#D06C54"/>
<path d="M46.0966 55.8935C46.0956 55.9807 46.0914 56.0731 46.0861 56.1675C46.0829 56.2253 46.0788 56.2831 46.0746 56.3419C46.0683 56.4248 46.0609 56.5089 46.0536 56.5897C46.0379 56.7682 46.0199 56.9352 46.0042 57.0707C45.9832 57.2618 45.9675 57.3889 45.9675 57.3889L41.7991 57.3857C41.7991 57.3857 41.6805 57.2503 41.7981 57.0707C41.9692 56.805 42.2886 56.4406 42.8199 56.263C43.4028 56.0677 43.7546 55.8104 43.9909 55.553C43.9982 55.5446 44.0056 55.5373 44.0119 55.5288C44.0833 55.4511 44.142 55.3713 44.1957 55.2946C44.2019 55.2861 44.2072 55.2768 44.2124 55.2683C44.2397 55.2274 44.2639 55.1874 44.2881 55.1487C44.5149 54.7758 45.0674 55.7915 45.0674 55.7915C45.0674 55.7915 45.8099 55.2663 46.0179 55.3419C46.085 55.3673 46.1029 55.5963 46.0966 55.8935Z" fill="#1B141C"/>
<path d="M46.0048 57.0703C46.0176 57.2603 46.0161 57.3888 46.0161 57.3888L41.7985 57.3853C41.7985 57.3853 41.6805 57.2498 41.7986 57.0703H46.0048Z" fill="#D5D5D1"/>
<path d="M44.5222 55.5898L44.3961 55.7516C44.3751 55.7789 44.3352 55.7831 44.3089 55.7621L44.0117 55.529C44.0831 55.4513 44.1419 55.3715 44.1955 55.2948C44.2018 55.2863 44.207 55.277 44.2123 55.2686L44.5116 55.5028C44.539 55.5237 44.5442 55.5636 44.5222 55.5898Z" fill="#D5D5D1"/>
<path d="M46.0858 56.168C46.0826 56.2257 46.0785 56.2836 46.0743 56.3423C45.9167 56.44 45.7403 56.5114 45.5545 56.5503C45.4284 56.5776 45.2962 56.5892 45.1659 56.584C45.0367 56.5797 44.9149 56.565 44.8004 56.5598C44.686 56.5556 44.5831 56.563 44.4895 56.5923C44.395 56.6207 44.3057 56.6722 44.228 56.7351C44.0715 56.8622 43.9645 57.0471 43.9266 57.234L43.5117 57.1248C43.6009 56.8443 43.7827 56.6039 44.021 56.4484C44.1397 56.3707 44.2731 56.3118 44.4149 56.2846C44.5577 56.2551 44.7006 56.2626 44.8265 56.2814C44.9547 56.3003 45.0723 56.3276 45.1847 56.3423C45.296 56.358 45.4084 56.3601 45.5218 56.3476C45.7172 56.3276 45.9103 56.2656 46.0858 56.168Z" fill="#D5D5D1"/>
<path d="M57.5597 39.0824C57.81 38.9921 56.8506 38.6952 56.4463 38.6273C56.0419 38.5595 55.9744 38.3954 56.0491 38.3565C56.1237 38.3176 56.4309 38.2049 56.5954 38.1672C56.6982 38.1436 56.9223 37.9593 56.7747 37.9013C56.6861 37.8666 56.4067 37.9105 56.2404 37.9419C55.8758 38.0106 55.2928 38.0603 54.9173 38.0208L53.1058 37.0801C53.0307 37.1734 52.9488 37.2595 52.8601 37.3363C52.8311 37.3816 52.8022 37.4268 52.7729 37.471C52.5996 37.7321 52.4222 37.9913 52.2619 38.2609C52.2418 38.2947 52.2139 38.3452 52.1836 38.4014L54.7166 39.1786C55.1623 39.4398 55.7031 39.7621 55.8863 39.8939C56.2166 40.1316 56.5138 40.2732 56.6203 40.2788C56.7267 40.2844 56.6197 39.9671 56.1268 39.6343C56.1268 39.6343 56.7572 40.0067 57.1165 40.0114C57.4758 40.0161 56.6055 39.4741 56.291 39.3397C56.291 39.3397 57.1162 39.6892 57.488 39.6522C57.86 39.6154 56.8497 39.1052 56.4172 38.9787C56.4172 38.9792 57.3095 39.1728 57.5597 39.0824Z" fill="#F78D7D"/>
<path d="M42.2022 25.901C42.6576 26.1969 43.2073 26.3454 43.7497 26.319C44.2922 26.2927 44.8248 26.0914 45.2493 25.7525C45.1816 25.9942 45.2456 26.2946 45.3514 26.522C45.4573 26.7495 45.6038 26.956 45.7145 27.1812C45.8973 27.5531 45.9786 27.9743 45.9472 28.3875C46.2295 28.2166 46.498 28.0272 46.7024 27.7682C46.9162 27.4974 47.0218 27.154 47.0593 26.8109C47.1666 25.8326 46.7131 24.8104 45.9112 24.2398C45.1092 23.6693 43.99 23.5773 43.1091 24.0162C42.7695 24.1854 42.4616 24.4322 42.264 24.7562C42.0665 25.0801 42.0916 25.5381 42.2022 25.901Z" fill="#1B141C"/>
<path d="M43.2326 46.251L43.1439 47.1193C43.133 47.2262 43.1345 47.3339 43.1485 47.4404L43.2694 48.3613C43.8017 47.6818 43.5524 46.8473 43.2326 46.251Z" fill="#3E508F"/>
<path d="M47.197 39.6806L46.7556 38.0508H42.0708L41.4336 41.0634L41.5656 41.3273C41.8086 41.8133 42.3054 42.1204 42.8489 42.1204H43.6531L43.2308 46.2517C43.5507 46.8481 43.7999 47.6825 43.2676 48.3619L44.0123 54.034L46.1679 53.9379L46.2436 47.4826L47.2824 42.3982C47.4665 41.4981 47.4372 40.5674 47.197 39.6806Z" fill="#536CC0"/>
<path d="M43.7344 53.6488L46.3755 53.4189L46.3833 54.105L43.8424 54.2009L43.7344 53.6488Z" fill="#3E508F"/>
<path d="M45.9258 53.7616L45.9374 47.4024L47.0715 41.7143C47.1415 41.363 47.1269 41.0003 47.029 40.6558L46.6291 39.25" stroke="#3E508F" stroke-miterlimit="10"/>
<path d="M45.457 38.2959C45.457 38.2959 45.7051 39.5664 46.9682 39.1755" stroke="#3E508F" stroke-miterlimit="10"/>
<path d="M42.3318 38.2959C42.3318 38.2959 42.2439 38.7462 41.9062 39.0282" stroke="#3E508F" stroke-miterlimit="10"/>
<path d="M41.5117 41.2158C41.5117 41.2158 41.722 42.3639 43.655 42.1205L43.5655 42.9962" stroke="#3E508F" stroke-miterlimit="10"/>
<path d="M43.7044 38.54L43.5156 40.4355" stroke="#3E508F" stroke-miterlimit="10"/>
<path d="M43.1817 38.5762L43.132 39.1159C43.0982 39.4837 43.3437 39.8191 43.7046 39.8979" stroke="#3E508F" stroke-miterlimit="10"/>
<path d="M42.6775 30.2298C42.0605 30.5136 41.4873 30.8844 40.9755 31.3309L38.481 33.5067L36.2757 31.0682L34.9492 31.9611L37.4087 35.8925C37.9757 35.7821 38.6132 35.8714 39.0227 36.2462L41.4424 34.496L42.4389 31.5994L43.1219 30.0254L42.6775 30.2298Z" fill="#F06795"/>
<path d="M46.9592 38.602C45.276 38.8128 43.5632 38.7766 41.8763 38.5976C41.9283 37.6626 41.9198 36.1757 41.5759 35.3046C41.3647 34.7695 41.0188 34.2504 41.0623 33.6768C41.1005 33.174 41.4352 32.7389 41.5266 32.2431C41.6075 31.8039 41.4965 31.3263 41.684 30.9211C41.8036 30.6628 42.077 30.5937 42.3302 30.4635C42.5834 30.3333 42.8902 30.2058 43.1202 30.025C43.3582 30.634 43.8067 31.1584 44.3715 31.4877C44.9713 31.1539 45.5405 30.5859 45.8511 29.9736C46.5703 30.3099 46.9615 30.5046 47.1883 31.0145C47.4205 31.5366 47.2911 32.1155 47.2458 32.6851C47.1037 34.4717 47.1013 36.8156 46.9592 38.602Z" fill="#F06795"/>
<path d="M48.4961 37.1055L48.5299 37.1436C48.8271 37.4783 49.2134 37.7215 49.6437 37.8449L49.8041 37.8909C49.5156 37.4376 49.0666 37.1116 48.4961 37.1055Z" fill="#B54E71"/>
<path d="M53.7704 37.2344L50.632 35.6048L47.8511 31.4833C47.5052 30.9707 47.0316 30.5571 46.477 30.2833L45.8516 29.9746L45.9999 32.6776L46.7846 35.1776L48.4971 37.1063C49.0676 37.1124 49.5166 37.4384 49.8051 37.8917L53.1971 38.864L53.7704 37.2344Z" fill="#F06795"/>
<path d="M54.0127 37.1552L53.2183 38.9519L52.8242 38.8599L53.6382 37.0439L54.0127 37.1552Z" fill="#B54E71"/>
<path d="M41.2624 34.5829C41.0159 34.1857 40.9405 33.6861 41.0587 33.2338C41.1321 32.9537 41.274 32.6973 41.3865 32.4306C41.4992 32.1638 41.5839 31.872 41.5336 31.5869" stroke="#B54E71" stroke-miterlimit="10"/>
<path d="M50.4698 35.874C50.2413 36.1741 49.9915 36.4578 49.7227 36.7224" stroke="#B54E71" stroke-miterlimit="10"/>
<path d="M46.1107 30.0952C45.7267 30.8146 45.0534 31.4751 44.3469 31.868C43.6915 31.4866 43.1641 30.8876 42.8672 30.1912C42.9568 30.1413 43.0438 30.0863 43.1206 30.0248C43.3587 30.6341 43.8067 31.1589 44.3725 31.4879C44.9715 31.1538 45.5411 30.5868 45.8521 29.9736C45.943 30.0159 46.0301 30.0568 46.1107 30.0952Z" fill="#B54E71"/>
<path d="M47.0697 35.5038C46.8751 34.979 46.7782 34.4181 46.7855 33.8584" stroke="#B54E71" stroke-miterlimit="10"/>
<path d="M42.5625 37.7206C43.295 37.1792 43.9181 36.4907 44.3841 35.708" stroke="#B54E71" stroke-miterlimit="10"/>
<path d="M43.4688 37.753C43.7908 37.4626 44.1128 37.1723 44.4349 36.8818" stroke="#B54E71" stroke-miterlimit="10"/>
<path d="M53.87 37.4766L53.3086 38.7463L53.689 38.8631L54.0125 37.5505L53.87 37.4766Z" fill="#D2675D"/>
<path d="M40.1953 54.0439L42.0187 54.0946L41.9762 54.6429L40.214 54.285L40.1953 54.0439Z" fill="#D2675D"/>
<path d="M44.125 54.1902L46.0111 54.1191L45.9934 54.7376L44.1578 54.4284L44.125 54.1902Z" fill="#D2675D"/>
<path d="M42.5281 26.5253C42.4996 26.5209 42.4704 26.5145 42.4468 26.4982C42.4231 26.4819 42.4061 26.4536 42.411 26.4257C42.4183 26.3833 42.4676 26.363 42.5101 26.3526C42.6708 26.3135 42.8397 26.3087 43.0031 26.3341C43.0463 26.3407 43.1181 26.3638 43.1065 26.4215C43.0972 26.4683 43.0309 26.4791 42.992 26.4884C42.8426 26.5245 42.6812 26.5487 42.5281 26.5253Z" fill="#1B141C"/>
<path d="M44.4156 26.5253C44.4441 26.5209 44.4733 26.5145 44.4969 26.4982C44.5206 26.4819 44.5376 26.4536 44.5327 26.4257C44.5254 26.3833 44.4761 26.363 44.4337 26.3526C44.2729 26.3135 44.1041 26.3087 43.9406 26.3341C43.8975 26.3407 43.8257 26.3638 43.8372 26.4215C43.8465 26.4683 43.9128 26.4791 43.9517 26.4884C44.1011 26.5245 44.2626 26.5487 44.4156 26.5253Z" fill="#1B141C"/>
<path d="M42.5898 26.9654C42.6075 26.8602 42.6998 26.7721 42.8057 26.7594C42.9115 26.7467 43.0221 26.8105 43.0641 26.9085" stroke="#1B141C" stroke-width="0.75" stroke-miterlimit="10" stroke-linecap="round" stroke-linejoin="round"/>
<path d="M44.4 26.9654C44.3824 26.8602 44.2901 26.7721 44.1842 26.7594C44.0784 26.7467 43.9678 26.8105 43.9258 26.9085" stroke="#1B141C" stroke-width="0.75" stroke-miterlimit="10" stroke-linecap="round" stroke-linejoin="round"/>
<path d="M43.4474 26.8691C43.4559 26.968 43.3846 27.054 43.3165 27.1262C43.2484 27.1984 43.1745 27.2804 43.1758 27.3796C43.1773 27.4915 43.2733 27.5766 43.3649 27.641" stroke="#1B141C" stroke-width="0.75" stroke-miterlimit="10" stroke-linecap="round" stroke-linejoin="round"/>
<path d="M43.0742 28.0252C43.3248 28.0938 43.6053 28.0437 43.8166 27.8926" stroke="#1B141C" stroke-width="0.75" stroke-miterlimit="10" stroke-linecap="round" stroke-linejoin="round"/>
</svg>
