<svg width="145" height="49" viewBox="0 0 145 49" fill="none" xmlns="http://www.w3.org/2000/svg">
<path d="M34.3015 13.9258C34.4799 13.9258 34.6738 13.9388 34.8837 13.9648C35.0943 13.9908 35.3152 14.046 35.5465 14.1298C35.9978 14.2877 36.3386 14.4583 36.5692 14.6418C36.8006 14.8257 36.9474 14.9173 37.0098 14.9173C37.0416 14.9173 37.0683 14.9122 37.0891 14.9018C37.1098 14.8914 37.1358 14.8758 37.167 14.855L37.2931 14.9173L36.3327 16.2871L36.1755 16.2078C36.1859 16.1558 36.1937 16.1142 36.1989 16.083C36.2041 16.0512 36.2067 16.009 36.2067 15.957C36.2067 15.8524 36.1566 15.7396 36.0572 15.6191C35.9575 15.4979 35.8236 15.3849 35.6557 15.2799C35.4883 15.1753 35.2892 15.086 35.0579 15.0122C34.8265 14.9388 34.5852 14.9018 34.334 14.9018C33.9032 14.9018 33.5328 14.9937 33.2229 15.1773C32.9136 15.3611 32.6592 15.6029 32.4601 15.9024C32.2606 16.2013 32.1163 16.545 32.0273 16.9329C31.938 17.3212 31.8935 17.7253 31.8935 18.1454C31.8935 19.237 32.1293 20.0557 32.6017 20.6016C33.0738 21.1474 33.6719 21.4203 34.3964 21.4203C34.6485 21.4203 34.8896 21.3784 35.1202 21.2942C35.3516 21.2104 35.5588 21.1081 35.7427 20.9875C35.9263 20.8663 36.0705 20.7429 36.1755 20.6171C36.2801 20.4908 36.3327 20.3803 36.3327 20.2858C36.3327 20.2338 36.3249 20.1711 36.3093 20.0973C36.2937 20.0239 36.2651 19.9554 36.2236 19.892L36.4588 19.7984L37.5296 21.2786L37.3568 21.3878C37.2726 21.304 37.1885 21.2617 37.1046 21.2617C37.0517 21.2617 36.9883 21.2936 36.9149 21.3566C36.8421 21.4199 36.7687 21.4774 36.6953 21.5294C36.4536 21.7185 36.1462 21.9102 35.7739 22.1051C35.4013 22.2994 34.9474 22.3962 34.412 22.3962C33.835 22.3962 33.3181 22.2916 32.8616 22.0817C32.4048 21.8712 32.0189 21.5798 31.7037 21.2071C31.3893 20.8348 31.1479 20.3891 30.9799 19.8699C30.8116 19.3501 30.7278 18.7806 30.7278 18.161C30.7278 17.5522 30.8116 16.9882 30.9799 16.469C31.1479 15.9492 31.3867 15.5005 31.6959 15.1227C32.0059 14.7442 32.3811 14.4502 32.8213 14.2403C33.2622 14.0307 33.7557 13.9258 34.3015 13.9258Z" fill="black"/>
<path d="M39.0869 19.6567H41.2754L40.2214 16.0661H40.1902L39.0869 19.6567ZM41.213 15.3734V15.5632C41.1288 15.5944 41.0869 15.6837 41.0869 15.8309C41.0869 15.8933 41.0999 15.9641 41.1259 16.0427C41.1526 16.1217 41.1922 16.2503 41.2442 16.4287L42.9128 21.7347C42.9758 21.9446 43.0863 22.0706 43.2442 22.1129V22.3013H41.7952V22.1129C41.8478 22.1025 41.89 22.0736 41.9212 22.0258C41.9531 21.9784 41.9693 21.9283 41.9693 21.8764C41.9693 21.8452 41.9583 21.7955 41.9368 21.7269C41.916 21.6587 41.89 21.5667 41.8589 21.4514L41.5275 20.4118H38.8205L38.5359 21.3409C38.4839 21.4988 38.4469 21.6223 38.4255 21.7113C38.4047 21.8007 38.3943 21.8712 38.3943 21.9231C38.3943 22.0281 38.4625 22.0914 38.5996 22.1129V22.3013H37.135V22.1129C37.2614 22.081 37.3533 22.0258 37.4105 21.9478C37.4683 21.8692 37.5395 21.7035 37.6236 21.4514L39.2455 16.4443C39.3293 16.2035 39.3793 16.0489 39.3949 15.9803C39.4105 15.9121 39.4183 15.8621 39.4183 15.8309C39.4183 15.7149 39.3553 15.6256 39.2299 15.5632V15.3734H41.213Z" fill="black"/>
<path d="M46.3603 18.491C46.875 18.491 47.2765 18.3916 47.565 18.1922C47.8535 17.993 47.9978 17.673 47.9978 17.2318C47.9978 16.8543 47.8587 16.5762 47.5806 16.3975C47.3025 16.2191 46.901 16.1298 46.3759 16.1298H44.849V18.491H46.3603ZM46.5488 15.3734C46.8847 15.3734 47.1973 15.4157 47.4858 15.4995C47.7743 15.5836 48.0231 15.7071 48.233 15.8699C48.4435 16.033 48.6089 16.2376 48.7294 16.4846C48.8506 16.7308 48.9114 17.0115 48.9114 17.3267C48.9114 17.7669 48.7801 18.1551 48.5176 18.491C48.2551 18.8273 47.898 19.0323 47.4468 19.1057L48.8165 21.6879C48.9003 21.8448 48.9793 21.955 49.053 22.018C49.1264 22.0814 49.2262 22.1129 49.3519 22.1129V22.3013H47.5884V22.1129C47.6514 22.1025 47.7145 22.0843 47.7769 22.0583C47.8399 22.0317 47.8717 21.9865 47.8717 21.9231C47.8717 21.8712 47.8555 21.8111 47.8236 21.7425C47.7924 21.6743 47.7613 21.6083 47.7301 21.545L46.5332 19.3098H44.849V21.5138C44.849 21.7133 44.8698 21.8575 44.9114 21.9465C44.9536 22.0359 45.0485 22.0914 45.196 22.1129V22.3013H43.5897V22.1129C43.7047 22.0914 43.7808 22.0359 43.8171 21.9465C43.8542 21.8575 43.873 21.7237 43.873 21.545V16.1298C43.873 15.9618 43.8542 15.8306 43.8171 15.736C43.7808 15.6418 43.7047 15.584 43.5897 15.5632V15.3734H46.5488Z" fill="black"/>
<path d="M54.9716 16.5079H54.7831C54.7614 16.3607 54.7136 16.261 54.6402 16.209C54.5674 16.1564 54.4677 16.1297 54.3413 16.1297H51.4602V18.3961H53.3185C53.4543 18.3961 53.5567 18.3675 53.6252 18.3104C53.6935 18.2525 53.7383 18.1447 53.7591 17.9868H53.9488V19.5306H53.7591C53.7383 19.3835 53.6909 19.2837 53.6174 19.2317C53.5437 19.1791 53.4491 19.1525 53.3341 19.1525H51.4602V21.5449H54.4829C54.6093 21.5449 54.709 21.5189 54.7818 21.4669C54.8552 21.4143 54.903 21.3039 54.9248 21.1356H55.1132V22.5846H54.9248C54.903 22.4692 54.8474 22.3929 54.7584 22.3558C54.6701 22.3194 54.5206 22.3013 54.3101 22.3013H50.2009V22.1128C50.3159 22.0914 50.392 22.0358 50.4283 21.9465C50.4654 21.8575 50.4842 21.7236 50.4842 21.5449V16.1297C50.4842 15.9202 50.4628 15.7785 50.4206 15.7048C50.379 15.6313 50.3055 15.5839 50.2009 15.5631V15.3734H54.2945C54.4199 15.3734 54.5274 15.3552 54.6168 15.3188C54.7058 15.2824 54.7614 15.2064 54.7831 15.0901H54.9716V16.5079Z" fill="black"/>
<path d="M59.4729 14.0206V14.209C59.3991 14.261 59.3332 14.3085 59.2753 14.3507C59.2182 14.3923 59.1896 14.4605 59.1896 14.5547C59.1896 14.6493 59.2026 14.7519 59.2285 14.8627C59.2552 14.9729 59.2792 15.0596 59.3 15.1226L60.5593 20.1921H60.5905L62.0239 15.1057C62.0447 15.0226 62.0707 14.9287 62.1018 14.8237C62.1337 14.7181 62.1499 14.6181 62.1499 14.5235C62.1499 14.4716 62.1259 14.4248 62.0784 14.3832C62.0317 14.341 61.9397 14.2828 61.8029 14.209V14.0206H63.7081V14.209C63.4982 14.2932 63.3936 14.3825 63.3936 14.4768C63.3936 14.5183 63.404 14.5814 63.4248 14.6652C63.4456 14.7493 63.4719 14.8546 63.504 14.981L64.8894 20.1921H64.9205L66.1486 15.185C66.222 14.8913 66.2669 14.7103 66.2825 14.6418C66.2981 14.5736 66.3059 14.5235 66.3059 14.4923C66.3059 14.3773 66.2269 14.2828 66.0693 14.209V14.0206H67.5495V14.2558C67.4238 14.2984 67.3371 14.4063 67.2896 14.5794C67.2428 14.7519 67.1928 14.9274 67.1402 15.1057L65.7081 20.7587C65.6239 21.094 65.5632 21.3302 65.5261 21.467C65.4898 21.6031 65.4716 21.7081 65.4716 21.7815C65.4716 21.8968 65.5502 22.0073 65.7081 22.1129V22.3013H63.9602V22.1129C64.1282 22.0602 64.2123 21.9657 64.2123 21.8296C64.2123 21.7458 64.1935 21.6275 64.1564 21.4748C64.12 21.3224 64.0862 21.1886 64.0551 21.0732L62.7165 16.0661H62.6853L61.2831 21.1356C61.2519 21.2415 61.2201 21.3601 61.1883 21.4917C61.1571 21.6226 61.1415 21.7191 61.1415 21.7815C61.1415 21.929 61.2571 22.0394 61.4885 22.1129V22.3013H59.5521V22.1129C59.636 22.0498 59.699 21.9972 59.7406 21.9556C59.7828 21.9134 59.8042 21.8604 59.8042 21.7971C59.8042 21.6613 59.7568 21.4043 59.6626 21.0265L58.0875 14.7289C58.0564 14.5817 58.0219 14.4768 57.9849 14.4144C57.9485 14.3513 57.8618 14.2984 57.725 14.2558V14.0206H59.4729Z" fill="black"/>
<path d="M68.8391 19.6567H71.0276L69.9736 16.0661H69.9424L68.8391 19.6567ZM70.9652 15.3734V15.5632C70.881 15.5944 70.8391 15.6837 70.8391 15.8309C70.8391 15.8933 70.8521 15.9641 70.8781 16.0427C70.9047 16.1217 70.9444 16.2503 70.9964 16.4287L72.665 21.7347C72.728 21.9446 72.8385 22.0706 72.9964 22.1129V22.3013H71.5474V22.1129C71.6 22.1025 71.6422 22.0736 71.6734 22.0258C71.7053 21.9784 71.7215 21.9283 71.7215 21.8764C71.7215 21.8452 71.7105 21.7955 71.689 21.7269C71.6682 21.6587 71.6422 21.5667 71.611 21.4514L71.2797 20.4118H68.5727L68.2881 21.3409C68.2361 21.4988 68.1991 21.6223 68.1777 21.7113C68.1569 21.8007 68.1465 21.8712 68.1465 21.9231C68.1465 22.0281 68.2147 22.0914 68.3518 22.1129V22.3013H66.8872V22.1129C67.0136 22.081 67.1055 22.0258 67.1627 21.9478C67.2205 21.8692 67.2917 21.7035 67.3758 21.4514L68.9977 16.4443C69.0815 16.2035 69.1315 16.0489 69.1471 15.9803C69.1627 15.9121 69.1705 15.8621 69.1705 15.8309C69.1705 15.7149 69.1075 15.6256 68.9821 15.5632V15.3734H70.9652Z" fill="black"/>
<path d="M74.1762 15.3734V15.5632C74.0287 15.6048 73.9553 15.6889 73.9553 15.8153C73.9553 15.8673 73.9657 15.9277 73.9865 15.9959C74.008 16.0645 74.0398 16.1564 74.0814 16.2714L75.6408 21.2617H75.672L76.9625 16.7912C77.0359 16.5495 77.0911 16.366 77.1275 16.2402C77.1645 16.1139 77.1834 15.993 77.1834 15.8777C77.1834 15.6993 77.0785 15.5944 76.8689 15.5632V15.3734H78.5687V15.5632C78.4212 15.5736 78.3081 15.6028 78.2295 15.6502C78.1515 15.697 78.0807 15.8358 78.0177 16.0661L76.4907 21.3254C76.4482 21.4719 76.4141 21.582 76.3881 21.6554C76.3621 21.7292 76.3491 21.8029 76.3491 21.8764C76.3491 21.9813 76.4066 22.0602 76.5219 22.1129V22.3013H74.7584V22.0973C74.8319 22.0758 74.8689 22.0229 74.8689 21.9387C74.8689 21.8868 74.8215 21.7084 74.7273 21.4033L73.2003 16.5547C73.1577 16.4293 73.121 16.3062 73.0898 16.1857C73.0586 16.0645 73.0378 15.9933 73.0274 15.9725C72.9745 15.8254 72.9189 15.7256 72.8611 15.6736C72.8039 15.621 72.7172 15.584 72.6012 15.5632V15.3734H74.1762Z" fill="black"/>
<path d="M83.8422 16.5079H83.6537C83.632 16.3607 83.5842 16.261 83.5108 16.209C83.438 16.1564 83.3383 16.1297 83.2119 16.1297H80.3308V18.3961H82.1891C82.3249 18.3961 82.4273 18.3675 82.4958 18.3104C82.5641 18.2525 82.6089 18.1447 82.6297 17.9868H82.8194V19.5306H82.6297C82.6089 19.3835 82.5615 19.2837 82.488 19.2317C82.4143 19.1791 82.3197 19.1525 82.2047 19.1525H80.3308V21.5449H83.3535C83.4799 21.5449 83.5797 21.5189 83.6524 21.4669C83.7258 21.4143 83.7736 21.3039 83.7954 21.1356H83.9838V22.5846H83.7954C83.7736 22.4692 83.7181 22.3929 83.629 22.3558C83.5407 22.3194 83.3912 22.3013 83.1807 22.3013H79.0715V22.1128C79.1865 22.0914 79.2626 22.0358 79.299 21.9465C79.336 21.8575 79.3548 21.7236 79.3548 21.5449V16.1297C79.3548 15.9202 79.3334 15.7785 79.2912 15.7048C79.2496 15.6313 79.1761 15.5839 79.0715 15.5631V15.3734H83.1651C83.2905 15.3734 83.398 15.3552 83.4874 15.3188C83.5764 15.2824 83.632 15.2064 83.6537 15.0901H83.8422V16.5079Z" fill="black"/>
<path d="M92.7048 15.3903H92.5164C92.4946 15.212 92.4261 15.1018 92.3111 15.0602C92.1958 15.018 92.0752 14.9966 91.9498 14.9966H88.6269V17.6723H90.7997C90.9147 17.6723 91.0301 17.6515 91.1454 17.6099C91.2614 17.5677 91.3299 17.468 91.3507 17.3111H91.5405V19.0576H91.3507C91.3299 18.8793 91.2669 18.7665 91.1623 18.7198C91.0574 18.6723 90.9365 18.6483 90.7997 18.6483H88.6269V21.545C88.6269 21.7347 88.6477 21.8718 88.6893 21.9556C88.7315 22.0388 88.8212 22.0914 88.9583 22.1129V22.3013H87.1311V22.1129C87.2679 22.0914 87.3572 22.0388 87.3988 21.9556C87.441 21.8718 87.4625 21.7347 87.4625 21.545V14.8068C87.4625 14.6077 87.4436 14.4634 87.4066 14.3741C87.3702 14.2851 87.2783 14.2298 87.1311 14.209V14.0206H92.0746C92.1906 14.0206 92.2877 14.0024 92.3657 13.966C92.4443 13.929 92.4946 13.8523 92.5164 13.736H92.7048V15.3903Z" fill="black"/>
<path d="M93.6014 18.838C93.6014 19.1837 93.6408 19.5248 93.7197 19.8608C93.7983 20.197 93.9244 20.4962 94.0979 20.7588C94.271 21.0213 94.4942 21.2341 94.7671 21.3968C95.04 21.5589 95.3653 21.6398 95.7431 21.6398C96.1206 21.6398 96.4435 21.5615 96.7113 21.4046C96.979 21.2471 97.1992 21.0369 97.3727 20.7743C97.5459 20.5118 97.6742 20.2129 97.7574 19.8777C97.8412 19.5417 97.8834 19.1951 97.8834 18.838C97.8834 18.5229 97.8464 18.2 97.773 17.8699C97.7002 17.5391 97.5797 17.237 97.4117 16.9641C97.2434 16.6912 97.0231 16.4683 96.7502 16.2948C96.4773 16.1217 96.1362 16.0349 95.7275 16.0349C95.3704 16.0349 95.0582 16.1113 94.7905 16.2636C94.5228 16.4163 94.3022 16.621 94.1291 16.8783C93.9556 17.135 93.8243 17.4313 93.7353 17.7672C93.646 18.1035 93.6014 18.4605 93.6014 18.838ZM95.7431 15.2799C96.2359 15.2799 96.6713 15.377 97.0491 15.571C97.4267 15.7653 97.747 16.0226 98.0095 16.3429C98.272 16.6626 98.4686 17.0352 98.5995 17.4605C98.7311 17.8851 98.797 18.3335 98.797 18.8055C98.797 19.3098 98.7285 19.7799 98.5917 20.2155C98.4556 20.6515 98.2564 21.0297 97.9939 21.35C97.7314 21.6697 97.4111 21.9241 97.0335 22.1129C96.6557 22.3016 96.2255 22.3962 95.7431 22.3962C95.2285 22.3962 94.7795 22.2942 94.3968 22.0895C94.0137 21.8842 93.6963 21.6165 93.4442 21.2864C93.1921 20.9556 93.0027 20.5804 92.8763 20.161C92.7506 19.7409 92.6879 19.3156 92.6879 18.8848C92.6879 18.3702 92.7587 17.8929 92.901 17.4527C93.043 17.0118 93.2447 16.6314 93.5066 16.3117C93.7691 15.9914 94.0891 15.7393 94.4669 15.5554C94.8454 15.3718 95.2707 15.2799 95.7431 15.2799Z" fill="black"/>
<path d="M101.032 15.3734V15.5632C100.906 15.584 100.822 15.6366 100.779 15.7204C100.738 15.8046 100.717 15.941 100.717 16.1298V20.2233C100.717 20.6645 100.848 21.0109 101.111 21.263C101.373 21.5144 101.772 21.6398 102.308 21.6398C102.843 21.6398 103.241 21.5144 103.503 21.263C103.766 21.0109 103.897 20.6645 103.897 20.2233V16.1298C103.897 15.9514 103.876 15.8176 103.833 15.7282C103.792 15.6392 103.698 15.584 103.551 15.5632V15.3734H105.189V15.5632C105.062 15.584 104.978 15.6366 104.935 15.7204C104.894 15.8046 104.873 15.941 104.873 16.1298V19.9868C104.873 20.7743 104.674 21.3731 104.275 21.7828C103.877 22.1918 103.221 22.3962 102.308 22.3962C101.394 22.3962 100.738 22.1944 100.339 21.7906C99.9402 21.3861 99.7411 20.7847 99.7411 19.9868V16.1454C99.7411 15.9358 99.717 15.7916 99.6696 15.7126C99.6228 15.634 99.5205 15.584 99.3629 15.5632V15.3734H101.032Z" fill="black"/>
<path d="M107.943 15.3734V15.5632C107.775 15.584 107.691 15.6574 107.691 15.7828C107.691 15.8462 107.717 15.9147 107.77 15.9881L110.509 20.443H110.541V16.1454C110.541 15.967 110.522 15.8306 110.485 15.736C110.448 15.6418 110.367 15.584 110.242 15.5632V15.3734H111.705V15.5632C111.59 15.584 111.513 15.6392 111.476 15.7282C111.44 15.8176 111.422 15.9514 111.422 16.1298V21.5294C111.422 21.7399 111.445 21.8848 111.492 21.9634C111.539 22.0414 111.621 22.0914 111.738 22.1129V22.3013H110.211V22.1129C110.263 22.1129 110.312 22.1051 110.359 22.0895C110.406 22.0732 110.43 22.0388 110.43 21.9868C110.43 21.903 110.378 21.7795 110.273 21.6165C110.168 21.4537 110.005 21.1886 109.784 20.8211L107.219 16.6652H107.187V21.545C107.187 21.7347 107.207 21.8718 107.249 21.9556C107.291 22.0388 107.376 22.0914 107.502 22.1129V22.3013H105.943V22.1129C106.09 22.0914 106.187 22.0466 106.234 21.979C106.281 21.9108 106.305 21.7717 106.305 21.5619V16.1454C106.305 15.9462 106.287 15.8046 106.25 15.7204C106.213 15.6366 106.137 15.584 106.022 15.5632V15.3734H107.943Z" fill="black"/>
<path d="M114.885 21.545C115.357 21.545 115.759 21.5008 116.089 21.4124C116.419 21.3234 116.687 21.1714 116.892 20.9563C117.097 20.7406 117.247 20.4595 117.342 20.1129C117.436 19.7666 117.483 19.3364 117.483 18.8224C117.483 18.4024 117.449 18.0271 117.381 17.697C117.312 17.3663 117.191 17.0856 117.018 16.8549C116.844 16.6236 116.611 16.4452 116.317 16.3195C116.024 16.1931 115.656 16.1298 115.215 16.1298H113.909V21.545H114.885ZM115.499 15.3734C116.485 15.3734 117.225 15.6808 117.718 16.2948C118.212 16.9092 118.459 17.7461 118.459 18.8055C118.459 20.0135 118.191 20.8978 117.656 21.4592C117.121 22.0206 116.26 22.3013 115.074 22.3013H112.586V22.1129C112.734 22.0914 112.828 22.0359 112.87 21.9465C112.911 21.8575 112.932 21.7133 112.932 21.5138V16.1454C112.932 15.9358 112.908 15.7916 112.861 15.7126C112.814 15.634 112.712 15.584 112.555 15.5632V15.3734H115.499Z" fill="black"/>
<path d="M120.457 19.6567H122.645L121.592 16.0661H121.56L120.457 19.6567ZM122.583 15.3734V15.5632C122.499 15.5944 122.457 15.6837 122.457 15.8309C122.457 15.8933 122.47 15.9641 122.496 16.0427C122.523 16.1217 122.562 16.2503 122.614 16.4287L124.283 21.7347C124.346 21.9446 124.456 22.0706 124.614 22.1129V22.3013H123.165V22.1129C123.218 22.1025 123.26 22.0736 123.291 22.0258C123.323 21.9784 123.339 21.9283 123.339 21.8764C123.339 21.8452 123.328 21.7955 123.307 21.7269C123.286 21.6587 123.26 21.5667 123.229 21.4514L122.898 20.4118H120.191L119.906 21.3409C119.854 21.4988 119.817 21.6223 119.796 21.7113C119.775 21.8007 119.764 21.8712 119.764 21.9231C119.764 22.0281 119.833 22.0914 119.97 22.1129V22.3013H118.505V22.1129C118.632 22.081 118.723 22.0258 118.781 21.9478C118.838 21.8692 118.91 21.7035 118.994 21.4514L120.616 16.4443C120.699 16.2035 120.749 16.0489 120.765 15.9803C120.781 15.9121 120.788 15.8621 120.788 15.8309C120.788 15.7149 120.725 15.6256 120.6 15.5632V15.3734H122.583Z" fill="black"/>
<path d="M124.203 15.0901H124.393C124.414 15.2064 124.461 15.2824 124.535 15.3188C124.608 15.3552 124.708 15.3734 124.834 15.3734H128.77C128.885 15.3734 128.982 15.3578 129.061 15.3266C129.14 15.2954 129.19 15.2168 129.21 15.0901H129.399V16.5079H129.21C129.19 16.3607 129.142 16.261 129.069 16.209C128.995 16.1564 128.895 16.1297 128.77 16.1297H127.29V21.5449C127.29 21.7347 127.31 21.8718 127.352 21.9556C127.394 22.0387 127.478 22.0914 127.604 22.1128V22.3013H126.03V22.1128C126.145 22.0914 126.221 22.0387 126.258 21.9556C126.295 21.8718 126.314 21.7405 126.314 21.5618V16.1297H124.834C124.718 16.1297 124.621 16.1538 124.542 16.2012C124.463 16.248 124.414 16.3503 124.393 16.5079H124.203V15.0901Z" fill="black"/>
<path d="M131.525 15.3734V15.5632C131.408 15.584 131.332 15.6366 131.296 15.7204C131.259 15.8046 131.241 15.9358 131.241 16.1142V21.5619C131.241 21.7406 131.259 21.8718 131.296 21.9556C131.332 22.0388 131.408 22.0914 131.525 22.1129V22.3013H129.981V22.1129C130.097 22.0914 130.173 22.0388 130.209 21.9556C130.246 21.8718 130.264 21.7406 130.264 21.5619V16.1142C130.264 15.9358 130.246 15.8046 130.209 15.7204C130.173 15.6366 130.097 15.584 129.981 15.5632V15.3734H131.525Z" fill="black"/>
<path d="M133.428 18.838C133.428 19.1837 133.468 19.5248 133.547 19.8608C133.625 20.197 133.751 20.4962 133.925 20.7588C134.098 21.0213 134.321 21.2341 134.594 21.3968C134.867 21.5589 135.192 21.6398 135.57 21.6398C135.948 21.6398 136.271 21.5615 136.538 21.4046C136.806 21.2471 137.026 21.0369 137.2 20.7743C137.373 20.5118 137.501 20.2129 137.584 19.8777C137.668 19.5417 137.71 19.1951 137.71 18.838C137.71 18.5229 137.673 18.2 137.6 17.8699C137.527 17.5391 137.407 17.237 137.239 16.9641C137.07 16.6912 136.85 16.4683 136.577 16.2948C136.304 16.1217 135.963 16.0349 135.555 16.0349C135.197 16.0349 134.885 16.1113 134.618 16.2636C134.35 16.4163 134.129 16.621 133.956 16.8783C133.783 17.135 133.651 17.4313 133.562 17.7672C133.473 18.1035 133.428 18.4605 133.428 18.838ZM135.57 15.2799C136.063 15.2799 136.498 15.377 136.876 15.571C137.254 15.7653 137.574 16.0226 137.837 16.3429C138.099 16.6626 138.296 17.0352 138.427 17.4605C138.558 17.8851 138.624 18.3335 138.624 18.8055C138.624 19.3098 138.555 19.7799 138.419 20.2155C138.283 20.6515 138.083 21.0297 137.821 21.35C137.558 21.6697 137.238 21.9241 136.861 22.1129C136.483 22.3016 136.053 22.3962 135.57 22.3962C135.056 22.3962 134.607 22.2942 134.224 22.0895C133.841 21.8842 133.523 21.6165 133.271 21.2864C133.019 20.9556 132.83 20.5804 132.703 20.161C132.578 19.7409 132.515 19.3156 132.515 18.8848C132.515 18.3702 132.586 17.8929 132.728 17.4527C132.87 17.0118 133.072 16.6314 133.334 16.3117C133.596 15.9914 133.916 15.7393 134.294 15.5554C134.672 15.3718 135.098 15.2799 135.57 15.2799Z" fill="black"/>
<path d="M141.205 15.3734V15.5632C141.037 15.584 140.953 15.6574 140.953 15.7828C140.953 15.8462 140.98 15.9147 141.032 15.9881L143.772 20.443H143.803V16.1454C143.803 15.967 143.784 15.8306 143.747 15.736C143.711 15.6418 143.63 15.584 143.504 15.5632V15.3734H144.967V15.5632C144.852 15.584 144.776 15.6392 144.739 15.7282C144.702 15.8176 144.684 15.9514 144.684 16.1298V21.5294C144.684 21.7399 144.708 21.8848 144.754 21.9634C144.802 22.0414 144.884 22.0914 145 22.1129V22.3013H143.473V22.1129C143.525 22.1129 143.574 22.1051 143.621 22.0895C143.669 22.0732 143.693 22.0388 143.693 21.9868C143.693 21.903 143.64 21.7795 143.535 21.6165C143.43 21.4537 143.268 21.1886 143.047 20.8211L140.481 16.6652H140.449V21.545C140.449 21.7347 140.47 21.8718 140.511 21.9556C140.554 22.0388 140.638 22.0914 140.765 22.1129V22.3013H139.205V22.1129C139.352 22.0914 139.45 22.0466 139.496 21.979C139.544 21.9108 139.568 21.7717 139.568 21.5619V16.1454C139.568 15.9462 139.549 15.8046 139.512 15.7204C139.476 15.6366 139.4 15.584 139.285 15.5632V15.3734H141.205Z" fill="black"/>
<path d="M11.7404 13.9104C10.9961 21.0768 13.2972 29.4305 20.7095 33.4734C26.6656 36.7223 33.6114 37.2077 40.2543 36.7892C47.5701 36.3288 54.7689 34.7814 61.8173 32.8263C66.9885 31.3916 72.0876 29.7083 77.2124 28.1284C84.4723 25.8873 92.1685 24.2694 99.6445 25.6284C105.268 26.6508 110.565 29.3899 114.671 33.3659C109.336 30.5131 103.156 29.4796 97.1565 29.7678C94.5152 29.8942 91.9086 30.4244 89.3466 31.0777C74.7364 34.8064 61.1614 42.6147 46.1699 44.2307C41.4548 44.7395 36.5899 44.9169 31.8729 44.3272C24.1939 43.3685 17.8015 39.6482 13.8593 32.8909C10.5425 27.2041 9.38756 20.0595 11.7404 13.9104Z" fill="#004AAD"/>
<mask id="mask0_404_1674" style="mask-type:luminance" maskUnits="userSpaceOnUse" x="47" y="32" width="69" height="17">
<path d="M47.6569 32.977H115.17V48.3341H47.6569V32.977Z" fill="white"/>
</mask>
<g mask="url(#mask0_404_1674)">
<path d="M74.69 40.7077C81.5282 37.9124 88.0496 34.5173 95.3527 33.402C102.181 32.3591 109.633 33.261 115.172 37.2954C109.452 35.1154 103.708 35.0287 98.0031 36.156C91.0961 37.5225 84.0246 40.7207 77.3966 43.0949C72.8784 44.7129 68.6614 46.3282 63.9447 47.2103C58.5909 48.2119 53.0867 48.6784 47.677 48.0459C57.6916 47.6044 66.0899 44.2223 74.69 40.7077Z" fill="#00BF63"/>
</g>
<path d="M19.5415 12.6593C20.3521 11.3565 21.4522 10.2633 22.8599 9.54038C24.9866 8.44746 27.7251 8.06215 29.9814 8.9871C29.3248 8.71777 28.0081 8.95786 27.3118 9.02771C24.7784 9.28144 22.7173 10.9354 21.5802 13.1875C19.8014 16.7135 20.7293 21.6775 23.0828 24.7307C23.8008 25.6609 25.151 26.593 26.1484 27.2119C32.4142 31.0998 40.2173 30.3623 47.1451 29.0517C49.1234 28.6775 51.5581 28.4228 53.5194 27.9682C59.2371 26.6447 64.4918 25.1628 70.1906 23.7652C70.1906 23.7652 68.1409 24.5335 67.7088 24.6953C66.8456 25.0189 65.9824 25.3425 65.1185 25.6661C58.2199 28.2532 51.2767 30.8133 43.9996 32.1112C38.3524 33.1174 32.4522 33.6602 26.9727 31.5767C23.3265 30.1905 20.0545 27.5836 18.6345 23.9494C17.2982 20.5319 17.5071 15.9312 19.5415 12.6593Z" fill="#00BF63"/>
<path d="M29.8772 24.0303C26.5848 21.2255 26.0306 16.4699 28.6397 13.4062C29.553 12.3341 30.7327 11.6112 32.0221 11.2454C30.1417 11.4354 28.3688 12.2902 27.09 13.7918C24.3266 17.0371 24.9136 22.0758 28.4016 25.0459C31.8896 28.0163 36.9575 27.7934 39.721 24.5475C39.8646 24.3789 39.9987 24.2051 40.1254 24.0267C37.4454 26.6362 32.9935 26.6833 29.8772 24.0303Z" fill="#004AAD"/>
<mask id="mask1_404_1674" style="mask-type:luminance" maskUnits="userSpaceOnUse" x="0" y="0" width="27" height="14">
<path d="M0 0.207703H26.0325V13.6814H0V0.207703Z" fill="white"/>
</mask>
<g mask="url(#mask1_404_1674)">
<mask id="mask2_404_1674" style="mask-type:luminance" maskUnits="userSpaceOnUse" x="-1" y="0" width="30" height="17">
<path d="M28.553 9.65929L2.56959 16.8022L-0.0100098 7.41953L25.9734 0.27626L28.553 9.65929Z" fill="white"/>
</mask>
<g mask="url(#mask2_404_1674)">
<mask id="mask3_404_1674" style="mask-type:luminance" maskUnits="userSpaceOnUse" x="-1" y="0" width="30" height="17">
<path d="M28.553 9.65929L2.56959 16.8022L-0.0100098 7.41953L25.9734 0.27626L28.553 9.65929Z" fill="white"/>
</mask>
<g mask="url(#mask3_404_1674)">
<path d="M25.974 0.283737L25.9678 0.296408C25.5575 1.66158 25.0152 2.98971 24.3408 4.28113C23.677 5.50368 22.8564 6.61999 21.8785 7.62973C19.8388 9.67002 17.4814 11.0098 14.8054 11.6489C13.3177 12.0326 11.9236 12.1973 10.6231 12.1434C9.81771 12.1476 8.71115 11.9874 7.30375 11.6632C5.95904 11.3143 4.65852 10.7675 3.40187 10.0228C2.12929 9.23045 1.00648 8.39289 0.0334473 7.51083C1.56366 9.98288 3.84728 11.7587 6.88399 12.8386C8.50712 13.3773 10.0094 13.6505 11.3902 13.6573C11.8723 13.6671 12.395 13.6534 12.9577 13.6161C13.5178 13.5891 14.2855 13.4686 15.2612 13.2545C18.2121 12.4822 20.7394 10.8789 22.843 8.44422C23.7829 7.35163 24.5627 6.05274 25.1825 4.54787C25.4311 3.94975 25.6465 3.23955 25.8284 2.41726C26.0178 1.53975 26.0666 0.828571 25.974 0.283737Z" fill="#00BF63"/>
</g>
</g>
</g>
<mask id="mask4_404_1674" style="mask-type:luminance" maskUnits="userSpaceOnUse" x="10" y="4" width="8" height="8">
<path d="M10.7882 4.44226H17.9831V11.6372H10.7882V4.44226Z" fill="white"/>
</mask>
<g mask="url(#mask4_404_1674)">
<mask id="mask5_404_1674" style="mask-type:luminance" maskUnits="userSpaceOnUse" x="10" y="4" width="8" height="8">
<path d="M14.3857 4.44226C12.3987 4.44226 10.7882 6.05305 10.7882 8.03972C10.7882 10.0264 12.3987 11.6372 14.3857 11.6372C16.3723 11.6372 17.9831 10.0264 17.9831 8.03972C17.9831 6.05305 16.3723 4.44226 14.3857 4.44226Z" fill="white"/>
</mask>
<g mask="url(#mask5_404_1674)">
<path d="M10.7882 4.44226H17.9831V11.6372H10.7882V4.44226Z" fill="#004AAD"/>
</g>
</g>
</svg>
