<svg width="349" height="284" viewBox="0 0 349 284" fill="none" xmlns="http://www.w3.org/2000/svg">
<path d="M137.65 192.727C92.7506 179.295 67.6305 130.707 81.5427 84.2028C95.455 37.6989 143.131 10.8891 188.031 24.3216C232.93 37.754 258.05 86.342 244.138 132.846C230.226 179.35 182.549 206.16 137.65 192.727Z" fill="#2F2F2F"/>
<path d="M226.578 220.363C223.513 224.316 220.825 227.83 217.271 230.575C215.919 231.488 214.547 232.371 213.125 233.183C212.302 233.592 211.433 233.97 210.507 234.311C197.454 239.129 182.02 237.462 168.455 236.049C148.432 233.961 126.245 227.186 116.695 208.816L148.723 209.355L139.463 163.791L184.117 158.799L204.632 213.885L229.168 217.246C228.28 218.257 227.411 219.289 226.578 220.363Z" fill="#703A3A"/>
<path d="M114.311 208.776L124.948 208.954C152.727 237.793 195.565 238.682 225.411 216.115L249.968 220.763C275.689 225.536 285.617 241.194 284.048 265.38L277.163 421.093C229.769 427.959 159.463 429.519 101.092 421.093L73.5981 268.557C62.5825 221.28 83.0413 208.166 114.311 208.776Z" fill="#004AAD"/>
<path d="M75.6014 223.517C106.239 189.437 154.718 235.786 133.319 286.513C111.92 337.24 86.9081 369.456 60.4773 393.458C32.4034 421.552 -15.3425 398.41 4.83173 352.374C31.7871 287.579 75.6014 223.517 75.6014 223.517Z" fill="#004AAD"/>
<path d="M284.722 241.362C246.633 194.501 195.943 244.166 216.788 293.81C237.632 343.454 262.239 374.88 288.333 398.222C316.025 425.57 363.759 402.404 344.091 357.358C325.333 293.082 284.722 241.362 284.722 241.362Z" fill="#004AAD"/>
<path d="M34.0236 292.244C44.5172 314.069 55.6914 342.024 55.6914 342.024L38.8206 283.572L34.0236 292.244Z" fill="#2F2F2F"/>
<path d="M224.711 216.636L212.595 214.976L200.807 203.625C195.183 214.407 186.516 224.104 171.714 231.612C177.863 236.412 180.28 243.158 181.917 250.312C192.214 243.005 199.885 234.672 205.641 227.047C205.641 227.047 217.001 222.915 224.711 216.636Z" fill="white"/>
<path d="M162.828 230.247C156.461 224.339 151.502 217.538 148.724 209.354L147.296 202.088L138.422 209.181L124.948 208.954C124.948 208.954 130.542 215.485 139.579 220.935C141.917 232.769 145.42 241.335 150.71 248.475C152.564 240.493 156.426 234.261 162.828 230.247Z" fill="white"/>
<path d="M212.598 214.976C210.661 219.602 208.418 223.746 205.643 227.046C207.048 226.527 208.517 225.914 210.031 225.236C211.496 222.345 212.255 218.841 212.598 214.976Z" fill="#2F2F2F"/>
<path d="M139.574 220.936C138.886 217.165 138.517 213.237 138.418 209.181C137.538 212.718 136.944 216.118 136.928 219.247L139.574 220.936Z" fill="#2F2F2F"/>
<path d="M269.07 232.066C247.956 214.975 198.663 238.774 217.893 283.932C206.131 244.344 244.091 220.766 269.07 232.066Z" fill="#2F2F2F"/>
<path d="M120.535 290.425H169.562L167.332 280.46H122.766L120.535 290.425Z" fill="#2F2F2F"/>
<path d="M180.02 123.983C180.308 120.864 194.2 114.793 200.558 125.099C207.237 135.578 205.046 152.449 184.118 158.8C175.347 185.849 161.938 203.471 140.092 202.613C105.556 202.644 75.0899 142.228 110.854 87.7623C157.059 66.5637 185.075 76.529 180.02 123.983Z" fill="#703A3A"/>
<path d="M172.301 184.474C168.099 192.421 158.746 199.478 147.301 202.089L148.528 208.367C162.619 204.67 168.811 195.308 172.301 184.474Z" fill="#2F2F2F"/>
<path d="M186.316 130.142C187.479 129.877 188.626 129.738 189.647 129.973C190.666 130.175 191.507 130.69 192.121 131.41C193.356 132.857 193.722 134.971 193.514 136.958C193.296 138.977 192.461 140.921 191.252 142.687C190.012 144.451 188.354 145.973 186.489 147.483C188.837 147.037 191.122 145.888 192.9 144.085C194.689 142.307 195.941 139.858 196.186 137.229C196.312 135.92 196.196 134.567 195.772 133.287C195.367 132.007 194.617 130.786 193.518 129.915C192.46 129 191.005 128.596 189.702 128.701C188.385 128.811 187.227 129.375 186.316 130.142Z" fill="#2F2F2F"/>
<path d="M192.922 142.517C192.218 141.925 191.544 141.595 190.79 141.31C190.047 141.044 189.279 140.876 188.509 140.842C187.742 140.818 186.98 140.858 186.254 141.041C185.523 141.195 184.833 141.469 184.168 141.765C184.879 141.595 185.59 141.456 186.306 141.44C187.018 141.393 187.724 141.492 188.395 141.638C189.069 141.794 189.702 142.065 190.279 142.404C190.842 142.73 191.41 143.195 191.748 143.617L192.922 142.517Z" fill="#2F2F2F"/>
<path d="M184.113 158.799C184.113 158.799 179.737 160.004 174.659 158.799C177.73 161.15 181.161 162.762 185.496 162.513L184.113 158.799Z" fill="#2F2F2F"/>
<path d="M180.022 123.983C173.212 119.721 169.769 111.062 172.299 94.5972C135.846 103.576 109.933 104.072 101.83 90.2369L106.764 73.598L147.299 57.763C147.299 57.763 210.383 84.6149 210.383 85.647C210.383 86.6804 207.629 98.3845 207.629 98.3845L180.022 123.983Z" fill="#2F2F2F"/>
<path d="M130.663 176.845C132.995 176.845 135.521 176.3 138.277 175.212L137.555 173.383C132.966 175.195 129.154 175.354 125.899 173.865L125.08 175.654C126.816 176.447 128.669 176.845 130.663 176.845Z" fill="#2F2F2F"/>
<path d="M150.816 139.461C150.816 141.174 152.385 142.562 154.32 142.562C156.255 142.562 157.824 141.174 157.824 139.461C157.824 137.748 156.256 136.36 154.32 136.36C152.385 136.36 150.816 137.748 150.816 139.461Z" fill="#2F2F2F"/>
<path d="M163.868 140.291L165.164 138.812C161.328 135.453 155.904 133.794 151.341 134.587C148.298 135.115 145.897 136.708 144.581 139.073L146.3 140.029C147.61 137.676 149.947 136.824 151.679 136.523C155.672 135.835 160.463 137.309 163.868 140.291Z" fill="#2F2F2F"/>
<path d="M112.98 139.461C112.98 141.174 111.412 142.562 109.476 142.562C107.541 142.562 105.972 141.174 105.972 139.461C105.972 137.748 107.541 136.36 109.476 136.36C111.412 136.36 112.98 137.748 112.98 139.461Z" fill="#2F2F2F"/>
<path d="M99.9258 140.291C103.33 137.309 108.114 135.827 112.118 136.525C113.847 136.825 116.187 137.678 117.496 140.03L119.215 139.074C117.9 136.71 115.498 135.115 112.456 134.588C107.89 133.797 102.466 135.455 98.6315 138.813L99.9258 140.291Z" fill="#2F2F2F"/>
<path d="M170.296 126.254C168.235 124.729 166.006 123.118 163.344 122.204C160.709 121.255 157.88 121.018 155.188 121.161C152.485 121.307 149.842 121.743 147.288 122.387C144.723 123.016 142.248 123.903 139.887 125.057C139.393 125.298 139.189 125.892 139.43 126.385C139.626 126.784 140.052 126.994 140.469 126.932L140.491 126.928C143.057 126.543 145.527 125.927 147.996 125.398C150.455 124.81 152.926 124.379 155.373 124.178C157.817 124.008 160.244 124.059 162.525 124.737C163.67 125.058 164.772 125.55 165.888 126.074C166.994 126.628 168.093 127.278 169.223 127.904L169.231 127.908C169.707 128.171 170.306 127.998 170.57 127.522C170.815 127.084 170.688 126.543 170.296 126.254Z" fill="#2F2F2F"/>
<path d="M94.5741 127.904C95.7045 127.278 96.8035 126.629 97.909 126.074C99.0249 125.55 100.129 125.058 101.273 124.737C103.554 124.059 105.982 124.008 108.426 124.178C110.875 124.38 113.344 124.81 115.803 125.398C118.272 125.927 120.743 126.543 123.308 126.928L123.329 126.931C123.872 127.012 124.376 126.638 124.458 126.095C124.523 125.656 124.29 125.24 123.911 125.055C121.548 123.901 119.073 123.015 116.508 122.385C113.954 121.742 111.311 121.306 108.608 121.159C105.916 121.016 103.088 121.254 100.452 122.203C97.7896 123.117 95.5616 124.728 93.5001 126.253C93.0621 126.577 92.9703 127.193 93.2942 127.631C93.5919 128.034 94.1374 128.144 94.5636 127.908L94.5741 127.904Z" fill="#2F2F2F"/>
<path d="M146.91 163.075C136.494 173.287 126.44 174.888 116.886 164.478L146.91 163.075Z" fill="white"/>
<path d="M131.157 159.782C131.166 159.782 131.177 159.782 131.185 159.782C134.878 159.772 137.195 157.68 138.887 156.152C139.597 155.511 140.269 154.904 140.743 154.757C141.814 154.428 142.158 155.186 142.217 155.341L144.059 154.651C143.656 153.579 142.287 152.223 140.161 152.878C139.272 153.153 138.483 153.867 137.566 154.693C136.029 156.08 134.117 157.807 131.178 157.815C131.17 157.815 131.163 157.815 131.156 157.815C128.229 157.815 126.313 156.105 124.774 154.729C123.854 153.909 123.06 153.199 122.169 152.93C120.042 152.284 118.68 153.65 118.282 154.726L120.121 155.421C120.264 155.069 120.652 154.524 121.597 154.813C122.073 154.958 122.749 155.56 123.463 156.198C125.162 157.71 127.48 159.782 131.157 159.782Z" fill="#2F2F2F"/>
<path d="M160.304 159.251C174.003 159.251 185.148 148.106 185.148 134.407C185.148 120.707 174.003 109.561 160.304 109.561C146.604 109.561 135.459 120.707 135.459 134.407C135.459 148.106 146.604 159.251 160.304 159.251ZM160.304 111.528C172.919 111.528 183.181 121.791 183.181 134.407C183.181 147.021 172.919 157.284 160.304 157.284C147.689 157.284 137.426 147.021 137.426 134.407C137.426 121.791 147.689 111.528 160.304 111.528Z" fill="white"/>
<path d="M101.832 159.251C115.53 159.251 126.676 148.106 126.676 134.407C126.676 120.707 115.53 109.561 101.832 109.561C88.1331 109.561 76.9878 120.707 76.9878 134.407C76.9865 148.106 88.1318 159.251 101.832 159.251ZM101.832 111.528C114.446 111.528 124.709 121.791 124.709 134.407C124.709 147.021 114.446 157.284 101.832 157.284C89.2176 157.284 78.9548 147.021 78.9548 134.407C78.9535 121.791 89.2163 111.528 101.832 111.528Z" fill="white"/>
<path d="M124.982 127.872C128.634 125.194 133.789 125.18 136.97 127.834L138.23 126.325C134.376 123.107 128.183 123.09 123.82 126.287L124.982 127.872Z" fill="white"/>
</svg>
