<svg width="36" height="36" viewBox="0 0 36 36" fill="none" xmlns="http://www.w3.org/2000/svg">
<path d="M29.5039 33.0597C30.2906 33.6261 31.0837 35.042 31.6095 35.0417C32.1353 35.0415 32.9736 34.302 33.7522 33.8241C34.1536 33.5777 35.3666 33.1788 35.3663 32.6817C35.366 32.3114 34.2845 32.5116 32.5252 32.5537C31.9229 32.5681 31.6773 32.0856 31.0975 31.3291L29.5039 33.0597Z" fill="#B55C3B"/>
<path d="M9.206 9.78726C9.206 9.78726 10.8048 9.59539 11.5096 10.8983C11.5096 10.8983 12.8371 8.37644 10.6191 5.71289C10.6191 5.71289 9.15199 6.37158 9.03871 7.3559C8.9253 8.34022 9.206 9.78726 9.206 9.78726Z" fill="#452217"/>
<path d="M10.6183 5.71254C10.6183 5.71254 11.9957 8.92777 11.5088 10.8979C11.5088 10.8979 13.6276 11.2485 13.3734 7.4189C13.1192 3.58914 12.6176 0.538519 10.1037 0.919959C10.1037 0.919959 8.92485 0.0937198 7.52645 0.28444C6.12805 0.47516 3.86078 5.9958 6.77394 8.73295L7.34801 4.47567L10.6183 5.71254Z" fill="#5E2F1F"/>
<path d="M12.2157 20.5774C12.2157 20.5774 19.4329 19.7039 20.4961 19.9285C21.999 20.2461 32.1604 31.6377 32.1604 31.6377L29.0573 34.3354L19.5251 24.2786C19.5251 24.2786 9.79603 27.0858 7.5303 26.2473C4.6686 25.1882 5.36326 20.5774 5.36326 20.5774H12.2157Z" fill="#287194"/>
<path d="M29.5072 33.9434C27.3023 31.5422 25.3274 29.5623 23.0886 27.4511C22.6654 27.0521 22.2407 26.6448 21.9291 26.1537C21.727 25.835 21.575 25.4845 21.3471 25.1836C20.8221 24.4903 19.9682 24.1455 19.1569 23.832C19.1569 23.832 16.4492 24.3122 13.4141 25.1995" stroke="#558CAA" stroke-miterlimit="10" stroke-linecap="round" stroke-linejoin="round"/>
<path d="M13.3945 24.868C14.2302 24.3769 15.1508 23.0402 15.6743 23.0892C16.1979 23.1381 16.9642 23.9519 17.6953 24.4998C18.0723 24.7823 19.2431 25.2916 19.1969 25.7865C19.1625 26.1552 18.104 25.8559 16.3562 25.6514C15.7577 25.5812 15.4686 26.0391 14.8215 26.7387L13.3945 24.868Z" fill="#B55C3B"/>
<path d="M3.65722 20.5771C3.65722 20.5771 2.07374 23.6118 3.42401 25.9277C4.28788 27.4094 14.5382 29.2623 15.969 28.943C17.3998 28.6235 17.7239 26.6702 16.9823 25.5306C16.2405 24.391 7.89402 20.5773 7.89402 20.5773L3.65722 20.5771Z" fill="#287194"/>
<path d="M4.32875 20.5049C4.11755 21.0358 4.12382 21.4712 4.17284 21.9643C4.22187 22.4575 4.41323 22.9365 4.39019 23.4316C4.3738 23.7868 4.24695 24.1327 4.25438 24.4882C4.26551 25.0262 4.59051 25.5181 5.00676 25.8593C6.64811 27.2048 10.8687 28.3878 13.5418 28.8164" stroke="#558CAA" stroke-miterlimit="10" stroke-linecap="round" stroke-linejoin="round"/>
<path d="M13.0508 23.0879C13.0508 23.0879 16.0322 24.6267 16.6516 25.1995" stroke="#332737" stroke-miterlimit="10" stroke-linecap="round" stroke-linejoin="round"/>
<path d="M9.05375 16.3799L19.1416 20.4426L18.8301 21.8488C18.8301 21.8488 10.0317 20.8244 6.42578 18.2222C6.42578 18.2222 6.42335 16.4212 9.05375 16.3799Z" fill="#B55C3B"/>
<path d="M3.26172 10.3754C3.26172 10.3754 3.98018 10.1058 6.90012 10.585C9.82006 11.0641 12.7994 11.0042 13.0544 11.4835C13.0544 11.4835 11.5666 12.3519 8.77673 12.1123C5.98684 11.8727 3.26172 10.3754 3.26172 10.3754Z" fill="#452217"/>
<path d="M7.18799 4.20898L6.70312 9.54223L9.20783 9.78697L9.89749 4.56687L7.18799 4.20898Z" fill="#B55C3B"/>
<path d="M9.34473 8.73257L9.62556 6.60662L7.90204 6.37891C7.90204 6.37891 7.66562 8.51087 9.34473 8.73257Z" fill="#8C472F"/>
<path d="M11.3038 5.08046C11.2784 5.21652 11.2369 5.34964 11.2037 5.4843C10.9305 6.59316 9.95241 7.53537 9.26966 7.4075C8.12444 7.19284 6.77648 6.32206 7.15485 4.30299C7.37129 3.14753 8.4758 2.38491 9.62179 2.59969C10.767 2.81422 11.5733 3.64264 11.3038 5.08046Z" fill="#B55C3B"/>
<path d="M7.51519 5.06566C7.44492 5.44083 7.0837 5.688 6.70853 5.61773C6.33337 5.54746 6.0862 5.18624 6.15647 4.81107C6.22674 4.4359 6.58796 4.18874 6.96313 4.25901C7.33829 4.32928 7.58546 4.6905 7.51519 5.06566Z" fill="#B55C3B"/>
<path d="M9.73833 5.06055C9.73833 5.06055 10.0249 5.33267 9.98255 5.48999C9.94505 5.62951 9.59766 5.52212 9.59766 5.52212" stroke="#332737" stroke-miterlimit="10" stroke-linecap="round" stroke-linejoin="round"/>
<path d="M9.0382 5.48555C9.01055 5.76831 8.75877 5.97503 8.47602 5.94738C8.19327 5.91973 7.98655 5.66795 8.0142 5.3852C8.04185 5.10245 8.29362 4.89573 8.57637 4.92338C8.85913 4.95103 9.06597 5.2028 9.0382 5.48555Z" fill="#D65A5D"/>
<path d="M11.1319 5.76277C11.1043 6.04552 10.8527 6.25224 10.5698 6.2246C10.287 6.19695 10.0803 5.9453 10.1079 5.66255C10.1356 5.37979 10.3872 5.17307 10.67 5.20072C10.9528 5.22837 11.1596 5.48002 11.1319 5.76277Z" fill="#D65A5D"/>
<path d="M8.77344 6.19141C8.86649 6.27256 8.97568 6.32465 9.09408 6.34411" stroke="#332737" stroke-miterlimit="10" stroke-linecap="round" stroke-linejoin="round"/>
<path d="M6.89509 4.69935C6.89509 4.69935 6.56716 4.66018 6.54041 4.92181C6.51353 5.18357 6.89906 5.18165 6.89906 5.18165" stroke="#332737" stroke-miterlimit="10" stroke-linecap="round" stroke-linejoin="round"/>
<path d="M11.2049 5.48422C11.2049 5.48422 11.2864 3.43929 10.1071 2.7358C10.1071 2.7358 9.47982 4.41478 7.15239 4.32287C7.15239 4.32287 7.10362 1.97676 10.1071 2.10783C10.1071 2.10783 12.3021 2.97388 11.2049 5.48422Z" fill="#5E2F1F"/>
<path d="M6.81195 8.30566C6.81195 8.30566 6.61484 9.26464 5.5916 9.51296C4.56837 9.76141 3.64011 10.3611 3.42188 10.7866C3.42188 10.7866 6.71787 12.5915 12.7826 11.723C12.7826 11.723 12.6699 10.5455 11.8116 10.3107C10.9534 10.0758 9.3301 9.64339 9.3461 8.73318L6.81195 8.30566Z" fill="#B55C3B"/>
<path d="M3.25981 10.375C3.25981 10.375 0.831904 14.5043 0.354976 16.0983C-0.0032959 17.2958 0.247456 18.3078 1.04605 19.2661C1.04605 19.2661 1.83005 17.4982 3.67402 17.4238L3.65546 20.5769H12.2139C12.2139 20.5769 11.7348 17.8836 11.7348 16.4434C11.7348 15.3552 13.3965 13.9087 13.0525 11.483C13.0525 11.483 8.18371 12.0139 3.25981 10.375Z" fill="#FFFEFC"/>
<path d="M12.0243 19.5791L4.11719 19.8916" stroke="#DDDAD3" stroke-miterlimit="10" stroke-linecap="round" stroke-linejoin="round"/>
<path d="M3.67485 17.4238L9.3958 20.7543L8.90288 22.3054C8.90288 22.3054 4.57891 21.6317 1.04688 19.266C1.04688 19.266 1.04445 17.4652 3.67485 17.4238Z" fill="#B55C3B"/>
<path d="M8.903 22.3055C8.903 22.3055 9.70633 22.5364 9.99023 22.4918C10.3971 22.428 10.7372 22.051 10.7996 22.0157C10.8618 21.9804 11.2988 22.1293 11.3772 22.0984C11.4557 22.0674 11.2707 22.5304 11.3875 22.615C11.5042 22.6996 11.6691 22.4824 11.7154 22.2501C11.7154 22.2501 11.6487 23.0019 11.8131 22.9771C11.9774 22.9523 12.0602 22.6513 12.0602 22.6513C12.0602 22.6513 12.0573 23.0442 12.1936 22.9941C12.3299 22.9441 12.5163 22.3301 12.5163 22.3301C12.5163 22.3301 12.4655 22.5786 12.71 22.4533C12.9545 22.328 12.712 21.491 12.6457 21.3503C12.5794 21.2097 11.409 20.4682 11.3208 20.4433C10.9381 20.3354 9.63413 20.7083 9.39593 20.7544C9.39593 20.7544 8.81839 21.7221 8.903 22.3055Z" fill="#B55C3B"/>
<path d="M11.8945 21.0879C11.8945 21.0879 12.2511 21.3221 12.3693 21.4234C12.4874 21.5246 12.5152 22.3306 12.5152 22.3306" stroke="#332737" stroke-miterlimit="10" stroke-linecap="round" stroke-linejoin="round"/>
<path d="M11.7852 21.5098C11.7852 21.5098 12.0493 21.5891 12.0826 21.6562C12.146 21.7841 12.0575 22.6517 12.0575 22.6517" stroke="#332737" stroke-miterlimit="10" stroke-linecap="round" stroke-linejoin="round"/>
<path d="M11.3984 21.6279C11.3984 21.6279 11.6951 21.6954 11.7156 21.7799C11.7361 21.8642 11.7143 22.2504 11.7143 22.2504" stroke="#332737" stroke-miterlimit="10" stroke-linecap="round" stroke-linejoin="round"/>
<path d="M4.24886 11.959C4.24886 11.959 4.69802 12.7409 4.54838 13.2799C4.39862 13.819 3.50019 15.6227 3.67991 16.0984C3.85962 16.574 4.52534 17.0133 4.11754 17.6022" stroke="#332737" stroke-miterlimit="10" stroke-linecap="round" stroke-linejoin="round"/>
<path d="M9.59498 13.9824C9.70839 14.5018 9.57271 15.0699 9.23671 15.4819C8.90071 15.894 8.37156 16.1411 7.83984 16.1345" stroke="#332737" stroke-miterlimit="10" stroke-linecap="round" stroke-linejoin="round"/>
<path d="M7.83984 23.0613L12.7081 22.7773L14.9602 17.5084L15.5883 17.3818L13.1543 23.3047L7.83984 23.6293V23.0613Z" fill="#F5F0EA"/>
<path d="M15.5864 17.3817L22.5918 16.9688L20.348 22.3831L13.1523 23.3045L15.5864 17.3817Z" fill="#DDDAD3"/>
<path d="M18.7945 20.1345C18.7945 20.5815 18.4321 20.9439 17.9851 20.9439C17.5381 20.9439 17.1758 20.5815 17.1758 20.1345C17.1758 19.6876 17.5381 19.3252 17.9851 19.3252C18.4321 19.3252 18.7945 19.6876 18.7945 20.1345Z" fill="#F5F0EA"/>
<path d="M11.1328 16.1341C11.1328 16.1341 11.5626 16.0246 12.0222 15.4756" stroke="#332737" stroke-miterlimit="10" stroke-linecap="round" stroke-linejoin="round"/>
<path d="M0.519531 18.4685C0.519531 18.4685 0.775404 17.3526 1.8835 16.9033" stroke="#332737" stroke-miterlimit="10" stroke-linecap="round" stroke-linejoin="round"/>
<path d="M19.5229 24.2785L18.7227 23.3252" stroke="#332737" stroke-miterlimit="10" stroke-linecap="round" stroke-linejoin="round"/>
<path d="M28.1445 33.1851L30.9727 30.3223" stroke="#332737" stroke-miterlimit="10" stroke-linecap="round" stroke-linejoin="round"/>
<path d="M10.2196 4.77463C10.2118 4.83876 10.2575 4.897 10.3216 4.90481C10.3858 4.91262 10.444 4.86692 10.4518 4.80292C10.4596 4.73879 10.4139 4.68055 10.3499 4.67275C10.2857 4.66494 10.2274 4.7105 10.2196 4.77463Z" fill="#332737"/>
<path d="M9.04384 4.60962C9.03603 4.67375 9.08173 4.73199 9.14585 4.73979C9.20998 4.7476 9.26822 4.70191 9.27603 4.63791C9.28384 4.57378 9.23814 4.51554 9.17414 4.50773C9.10989 4.4998 9.05165 4.54549 9.04384 4.60962Z" fill="#332737"/>
<path d="M2.95703 10.8975C2.95703 10.8975 7.78161 13.0832 13.0523 11.9585" stroke="#DDDAD3" stroke-miterlimit="10" stroke-linecap="round" stroke-linejoin="round"/>
</svg>
