<svg width="491" height="225" viewBox="0 0 491 225" fill="none" xmlns="http://www.w3.org/2000/svg">
<path d="M294.938 94.3C294.538 95.1 293.937 95.8999 293.337 96.4999C273.537 116.3 253.537 136.3 233.737 156.1C231.737 158.1 230.138 158.1 228.138 156.1L194.537 121.5C193.137 120.3 192.938 118.3 193.938 116.9C194.138 116.7 194.537 116.3 194.737 116.1L203.138 108.5C204.338 107.1 206.337 106.9 207.737 108.1C207.937 108.3 208.138 108.5 208.138 108.7L227.938 128.9C229.938 130.9 231.537 131.1 233.537 128.9L279.938 82.7C281.938 80.7 283.537 80.7 285.537 82.7C288.137 85.3 290.737 87.9 293.337 90.7C293.937 91.3 294.538 92.0999 294.938 92.8999V94.3Z" fill="#004AAD"/>
<path d="M158.34 113.9H130.74C129.94 113.9 129.34 113.3 129.34 112.5C129.34 111.7 129.94 111.1 130.74 111.1H158.14C158.94 111.1 159.54 111.7 159.54 112.5C159.54 113.3 158.94 113.9 158.34 113.9C158.14 113.9 158.14 113.9 158.34 113.9Z" fill="#D9E2FF"/>
<path d="M244.139 185.1C204.139 185.1 171.539 152.7 171.539 112.5C171.539 72.2999 203.939 39.8999 244.139 39.8999C284.339 39.8999 316.739 72.2999 316.739 112.5C316.539 152.5 284.139 185.1 244.139 185.1ZM244.139 42.6999C205.539 42.6999 174.339 73.8999 174.339 112.5C174.339 151.1 205.539 182.3 244.139 182.3C282.739 182.3 313.939 151.1 313.939 112.5C313.739 74.0999 282.539 42.8999 244.139 42.6999Z" fill="#D9E2FF"/>
<path d="M161.541 71.6998C161.341 71.6998 160.941 71.6998 160.741 71.4998L129.941 50.0998C129.341 49.6998 128.941 48.8998 129.341 48.0998C129.741 47.2998 130.541 47.0998 131.341 47.4998C131.341 47.4998 131.541 47.4998 131.541 47.6998L162.341 68.8998C162.941 69.2998 163.141 70.2998 162.741 70.8998C162.341 71.4998 161.941 71.6998 161.541 71.6998Z" fill="#D9E2FF"/>
<path d="M130.74 177.5C130.34 177.5 129.94 177.3 129.54 176.9C129.14 176.3 129.14 175.3 129.94 174.9L160.74 153.7C161.34 153.3 162.14 153.3 162.74 153.9C163.14 154.5 163.14 155.3 162.54 155.9C162.54 155.9 162.34 155.9 162.34 156.1L131.54 177.3C131.34 177.5 131.14 177.5 130.74 177.5Z" fill="#D9E2FF"/>
<path d="M329.541 71.6999C328.741 71.6999 328.141 71.0999 328.141 70.2999C328.141 69.8999 328.341 69.2999 328.741 69.0999L359.541 47.8999C360.141 47.4999 360.941 47.4999 361.541 48.0999C361.941 48.6999 361.941 49.4999 361.341 50.0999C361.341 50.0999 361.141 50.0999 361.141 50.2999L330.341 71.4999C329.941 71.4999 329.741 71.6999 329.541 71.6999Z" fill="#D9E2FF"/>
<path d="M360.141 177.5C359.941 177.5 359.541 177.5 359.341 177.3L328.741 155.9C328.141 155.5 327.941 154.7 328.341 154.1C328.341 154.1 328.341 154.1 328.341 153.9C328.741 153.3 329.541 153.1 330.341 153.5L361.141 174.7C361.741 175.1 361.941 176.1 361.541 176.7C361.141 177.3 360.741 177.5 360.141 177.5Z" fill="#D9E2FF"/>
<path d="M360.14 113.9H332.74C331.94 113.9 331.34 113.3 331.34 112.5C331.34 111.7 331.94 111.1 332.74 111.1H360.14C360.94 111.1 361.54 111.7 361.54 112.5C361.54 113.3 360.94 113.9 360.14 113.9Z" fill="#D9E2FF"/>
</svg>
