<svg width="149" height="120" viewBox="0 0 149 120" fill="none" xmlns="http://www.w3.org/2000/svg">
<path opacity="0.7" d="M53.2558 94.3374C40.8571 94.3374 28.9137 92.4319 16.5024 92.8429C13.3825 92.9462 10.2097 93.0588 7.25292 94.0602C2.87417 95.5431 -3.38291 100.678 2.21647 104.425C5.63054 106.71 11.1267 107.31 15.1409 107.173C19.4494 107.026 23.4736 108.504 27.7351 108.649C33.3827 108.841 39.1561 109.169 44.4379 111.346C49.7955 113.554 54.4652 117.28 60.1695 118.667C62.0145 119.115 63.9117 119.299 65.8014 119.483C69.9773 119.887 74.2001 120.291 78.3548 119.707C84.1906 118.887 87.3609 115.291 92.1865 112.742C97.5526 109.908 103.821 107.07 109.988 107.046C119.964 107.008 128.802 109.57 138.759 107.633C142.123 106.978 152.397 104.091 147.864 98.7953C142.949 93.0517 128.351 92.7471 121.429 92.1623C111.015 91.2822 100.543 91.6392 90.1252 92.2657C77.8395 93.0043 65.5704 94.1843 53.2558 94.3374Z" fill="#F1F2F2"/>
<path d="M95.5799 99.7485L95.7572 101.127L93.1771 102.861L91.6211 101.659L92.8225 100.103L95.4027 98.3694L95.5799 99.7485Z" fill="#004AAD"/>
<path d="M95.6668 99.2856L93.6769 81.6986L96.0709 62.0101L95.5326 57.8219L84.839 57.4158L84.4531 64.2323L86.2483 81.7256L93.002 100.184L95.6668 99.2856Z" fill="#687081"/>
<path d="M76.993 59.3864L76.9648 77.1339L80.5365 99.9807L83.1073 99.9552L84.5204 78.8272L87.8277 57.6802L76.993 59.3864Z" fill="#687081"/>
<path d="M83.1036 101.04L80.3374 102.458L78.9336 101.081L80.3097 99.6771L83.0898 99.6494L83.1036 101.04Z" fill="#004AAD"/>
<path d="M97.1777 65.4225C97.1531 64.6535 97.1104 64.0116 97.1044 63.7824C97.0494 61.7193 96.8655 59.6607 96.6073 57.6124C96.3759 55.7768 96.0838 51.2196 95.7697 49.3952C95.5103 47.889 94.6067 44.1292 93.9538 42.7321C92.3301 39.2575 92.8318 38.9365 85.6991 37.9049C82.5732 37.4527 81.8342 39.4013 79.2786 41.642C79.0266 41.863 79.0404 43.1789 78.982 43.5272C78.8789 44.1409 78.7687 44.7534 78.6422 45.3632C78.5427 45.8425 78.4331 46.3201 78.3099 46.7947L78.3101 46.7945C78.3101 46.7945 76.1646 56.5598 74.7457 58.634C73.3269 60.7079 70.3957 63.6075 75.299 65.3779C76.1679 65.6588 77.0423 65.9262 77.9467 66.0691C77.9467 66.0691 81.9568 65.6233 84.019 65.6387C85.9182 65.6529 87.8254 65.8453 89.6925 66.1672C90.9412 66.3759 92.2152 66.6792 93.3323 67.2628C94.398 67.8196 95.167 68.6385 96.2481 69.215C96.3505 69.2696 96.4629 69.326 96.5791 69.3099C97.2002 69.2236 97.2292 67.0412 97.1777 65.4225Z" fill="#7FC5A3"/>
<path d="M85.6905 38.8846C86.0504 39.0625 86.8997 39.1261 87.7858 38.7791C87.9643 38.7092 88.0849 38.537 88.0824 38.3451C88.0753 37.8068 88.0321 37.2691 87.9529 36.7365C88.6175 36.5028 89.3854 36.1523 89.5013 35.4573C89.5378 35.2383 89.4999 35.0147 89.4622 34.796C89.306 33.8919 89.1498 32.9879 88.9937 32.0838C88.9397 31.7711 88.8821 31.4492 88.7121 31.1814C88.4138 30.7112 87.8348 30.5056 87.2862 30.4104C85.8864 30.1674 84.3612 30.4706 83.276 31.3876C82.9872 31.6316 82.726 31.925 82.5986 32.281C82.4023 32.83 82.5491 33.4356 82.6972 33.9995C82.8338 34.5201 82.9704 35.0406 83.107 35.5611C83.2642 36.1598 83.4911 36.8404 84.0679 37.0649C84.3742 37.1841 84.7356 37.1494 85.0129 37.3258C85.502 37.6368 85.4361 38.3638 85.6905 38.8846Z" fill="#EAC1A4"/>
<path d="M77.6134 29.8684C77.4759 29.6427 77.3278 29.4248 77.162 29.2205C76.8029 28.7778 76.3607 28.3985 76.0719 27.9073C75.7831 27.416 75.6814 26.7501 76.028 26.2977C76.2516 26.0058 76.6146 25.8599 76.9672 25.756C78.1296 25.4138 79.3839 25.3907 80.5582 25.6896C81.6767 25.9743 82.6776 26.4458 83.8033 26.0253C84.8611 25.6302 85.6251 25.7911 86.7307 26.1856C87.9272 26.6125 89.5331 26.7134 90.6161 27.316C91.0683 27.5677 91.4291 27.9611 91.7105 28.3956C92.685 29.901 92.6904 31.9765 91.7236 33.4871C91.5067 33.8259 91.2472 34.1357 90.9746 34.4313C90.4101 35.0435 89.7349 35.7997 88.9586 36.0267C88.9401 35.332 89.5727 33.1415 89.0394 32.572C88.1928 31.6684 86.2788 31.9838 85.2286 32.2062C84.0831 32.4489 83.0621 33.2601 81.9264 33.4336C81.1092 33.5583 80.0662 33.1576 79.3713 32.735C78.5144 32.2133 78.1151 30.6925 77.6134 29.8684Z" fill="#11233B"/>
<path d="M91.6211 39.24L96.0714 43.1404L101.036 53.5758L94.7654 61.0372L93.6866 56.8645L91.6211 39.24Z" fill="#7FC5A3"/>
<path d="M62.8002 42.2384L60.5898 40.8152L61.1569 39.8438L62.8864 40.4832L62.9414 39.8993L64.6844 41.3478L64.2313 42.4372L62.8002 42.2384Z" fill="#D9CAAF"/>
<path d="M83.4962 38.2295L71.964 42.9584L64.684 41.3477L63.9727 42.7403L70.6126 47.6296L79.7641 46.5399L83.4962 38.2295Z" fill="#7FC5A3"/>
<path d="M89.3038 62.6705L87.0232 63.9784L86.4219 63.0281L87.7852 61.7865L87.2923 61.4689L89.3801 60.5874L90.1386 61.491L89.3038 62.6705Z" fill="#D9CAAF"/>
<path d="M51.3785 100.914L51.3164 102.121L53.6681 103.453L54.937 102.308L53.7923 101.038L51.4406 99.7073L51.3785 100.914Z" fill="#11233B"/>
<path d="M49.4621 64.2812L49.2734 67.9472L53.3435 84.0848L51.273 100.519L53.6423 101.121L60.2204 81.3755L60.3385 75.4337L58.7044 63.2188L49.4621 64.2812Z" fill="#11233B"/>
<path d="M67.485 63.9345L69.3087 79.255L68.5413 99.3434L66.319 99.5819L62.9568 81.4832L57.957 63.5603L67.485 63.9345Z" fill="#11233B"/>
<path d="M66.4337 100.518L68.9659 101.462L70.0385 100.131L68.7079 99.0579L66.3047 99.3159L66.4337 100.518Z" fill="#11233B"/>
<path d="M68.3832 61.3838C66.0946 56.7225 65.1806 51.6116 63.9818 46.5838C63.6274 45.1003 63.2597 43.5851 62.4348 42.3025C61.4874 40.8298 60.1789 40.1697 58.7295 39.9159C56.8845 39.593 54.8111 39.928 52.9639 40.0825C51.8462 43.5747 51.1183 41.5933 49.806 45.0169C49.5339 45.7267 48.7617 51.874 48.4752 52.578V52.5782C48.4752 52.5782 45.4597 62.0238 46.4249 69.4942C46.4344 69.5683 46.4426 69.6402 46.451 69.7129C46.6458 69.7463 46.8326 69.78 47.0071 69.8154C49.6104 70.3427 52.2659 70.6269 54.923 70.5923C57.2801 70.5617 59.6371 70.2761 61.9262 69.7098C65.0595 68.9345 68.7801 69.2514 71.3417 67.1861C70.591 65.6564 69.1341 62.9134 68.3832 61.3838Z" fill="#004AAD"/>
<path d="M41.4141 41.1205L43.9883 27.1433L46.1755 27.5661L46.276 38.113L41.4141 41.1205Z" fill="#004AAD"/>
<path d="M41.4141 41.1204L54.1878 49.4462L52.3724 40.9253L44.5243 37.3418L41.4141 41.1204Z" fill="#004AAD"/>
<path d="M57.9512 33.9821C56.2932 31.4833 52.0248 31.619 51.9629 35.0652C51.9442 36.1008 52.053 37.1644 52.5106 38.0937C52.9682 39.0229 53.8241 39.8007 54.8485 39.9535C54.8543 39.9543 54.8601 39.9549 54.8659 39.9557C54.8997 40.22 54.9332 40.4843 54.9669 40.7488C54.9742 40.8056 54.9841 40.8678 55.0273 40.9052C55.0766 40.9479 55.1497 40.9425 55.2146 40.9349C55.5307 40.8974 55.847 40.86 56.1634 40.8225C56.32 40.804 56.483 40.7832 56.6154 40.6973C56.9051 40.5091 56.9335 40.0925 56.8567 39.7556C56.8383 39.675 56.8157 39.5947 56.7925 39.5145C58.4229 38.4081 59.0351 35.6156 57.9512 33.9821Z" fill="#AA6755"/>
<path d="M51.163 31.0413C50.4137 31.214 50.0802 32.1373 49.5685 32.7543C49.1427 33.2675 48.5576 33.5889 48.0919 34.0587C47.6262 34.5285 47.2761 35.2647 47.5191 35.9189C46.8317 35.8459 46.0937 35.7838 45.5026 36.1581C44.9113 36.5324 44.6173 37.5293 45.1192 38.0589C45.5687 38.533 46.3561 38.3772 46.8185 38.8361C47.5501 39.5621 47.0385 41.3361 47.9811 41.6381C48.2076 41.7107 48.4546 41.6528 48.6797 41.7306C48.9594 41.8273 49.1474 42.1084 49.3478 42.345C50.2566 43.4178 51.8226 43.737 52.9909 43.0874C53.6166 42.4272 53.9367 41.4449 53.8772 40.4876C53.8054 39.3337 53.1173 39.1912 52.6476 38.2661C52.1343 37.2549 52.0317 36.0111 52.3729 34.9353C52.595 34.2353 53.0313 33.5358 53.6579 33.2184C53.9126 33.0893 53.9159 33.3428 54.1333 33.021C54.2265 32.883 54.2705 32.4822 54.2444 32.3087C53.3072 32.0154 52.149 30.8142 51.163 31.0413Z" fill="#11233B"/>
<path d="M59.1767 29.404C59.5819 29.3623 59.9726 29.1918 60.3804 29.2079C60.9929 29.2319 61.1742 29.7868 61.5071 30.2002C61.8756 30.6577 62.3886 31.2647 62.892 31.5356C63.2547 31.7307 63.6673 31.7611 64.0578 31.8682C64.4485 31.9753 64.8568 32.1995 65.0101 32.6087C65.1552 32.9965 65.0318 33.4443 65.145 33.8441C65.3239 34.436 65.5386 34.691 65.5917 35.3469C65.6192 35.6854 65.6427 36.0461 65.4967 36.3415C65.3042 36.731 64.8757 36.8931 64.4769 36.9775C64.0779 37.0619 63.6502 37.1099 63.3297 37.379C62.6347 37.9626 63.102 38.7138 63.1552 39.4765C63.2362 40.6366 62.2751 41.7098 61.215 41.702C60.316 41.6954 59.5124 40.9698 59.1981 40.0655C59.0408 39.6128 59.0553 39.1274 58.8929 38.6761C58.7364 38.2408 58.2601 37.74 58.516 37.2453C58.5785 37.1247 58.6829 37.0332 58.7312 36.9049C58.7701 36.8011 58.7682 36.6833 58.7518 36.5714C58.6952 36.1831 58.4647 35.8259 58.1482 35.6358C57.9206 35.4991 57.6487 35.441 57.4637 35.241C57.2517 35.012 57.2114 34.6628 57.1119 34.3566C56.8715 33.6168 56.1981 33.0631 55.4866 33.0204C55.0177 32.9922 54.6177 33.024 54.1612 32.8803C54.0916 32.8585 53.0291 32.4708 53.0678 32.6295C53.0004 32.3534 53.0633 32.0638 53.136 31.7924C53.2551 31.3463 53.4061 30.8983 53.6838 30.5501C54.5821 29.4244 55.2493 30.9596 56.1011 30.3888C56.3065 30.2511 56.3949 29.9785 56.549 29.7759C56.8401 29.3935 57.3423 29.2921 57.8014 29.3129C58.261 29.3336 58.7203 29.4511 59.1767 29.404Z" fill="#11233B"/>
<path d="M62.4177 47.777C62.6585 48.8412 63.5373 49.8489 64.3116 50.9579C65.2213 52.2607 66.1308 53.5635 67.0405 54.8664L64.0813 64.2492L65.9288 64.8839L71.2629 55.5228C71.2577 51.7836 67.9201 49.8673 67.0448 47.768C66.5889 46.6748 63.0856 43.2947 62.4335 42.3027C61.474 40.8434 62.7793 43.3093 61.6059 44.4952C60.6219 45.4893 62.2266 46.9326 62.4177 47.777Z" fill="#004AAD"/>
<path d="M65.4109 65.4484L65.0299 65.9622L64.1387 65.7494L63.3985 66.2393L63.2227 65.7625L64.5144 64.4187L65.506 64.757L65.4109 65.4484Z" fill="#AA6755"/>
<path d="M44.4844 26.4233L45.4423 24.8257L45.9369 25.9455L46.4926 25.5847L46.7018 26.2186L45.9931 27.5358L44.5048 27.2473L44.4844 26.4233Z" fill="#AA6755"/>
<path d="M113.407 96.1621L110.961 97.507L111.173 98.6555L115.52 98.0588L115.286 96.4046L113.407 96.1621Z" fill="#11233B"/>
<path d="M124.468 97.4217L126.169 97.4011L126.585 98.842L126.542 98.8543L126.552 98.8557L123.719 100.485L122.38 100.616L122.23 99.0856L122.595 98.8257L124.468 97.4217Z" fill="#11233B"/>
<path d="M119.222 70.2809C118.949 70.2524 118.203 80.0436 118.203 80.0436L123.498 97.8368L126.552 97.2357L124.692 79.4702C124.692 79.4702 131.155 72.0153 129.294 66.4468C126.481 67.8109 119.222 70.2809 119.222 70.2809Z" fill="#11233B"/>
<path d="M111.591 70.364L110.973 79.0937L112.676 96.469L115.819 96.3085C115.819 96.3085 116.577 79.8515 116.888 79.5157C117.199 79.1798 119.876 70.5449 119.876 70.5449L111.591 70.364Z" fill="#11233B"/>
<path d="M115.723 74.3479C125.704 74.1648 126.437 69.1274 128.634 68.5778C130.832 68.0283 129.686 65.4107 129.686 65.4107C129.686 65.4107 129.27 64.2428 129.092 63.632C127.81 59.2365 123.962 53.5944 123.96 53.5925C122.062 51.0017 120.157 48.7133 118.512 47.3316C113.619 43.222 108.378 43.03 108.378 43.03C100.829 45.3908 103.493 48.9406 103.407 49.8745C105.89 52.1506 107.688 55.5608 109.015 59.2227C109.64 61.1624 110.377 64.5121 109.862 68.5777C109.697 69.8819 109.506 71.0126 109.316 71.9972C109.279 73.2828 110.515 74.4304 115.723 74.3479Z" fill="#004AAD"/>
<path d="M108.347 43.8256C108.347 43.8256 106.667 42.9051 105.626 44.506C104.363 46.4497 111.504 55.2157 111.334 73.9627C113.206 74.3418 118.028 75.2466 123.001 72.899C121.872 67.3293 116.995 50.5314 108.347 43.8256Z" fill="white"/>
<path d="M101.42 71.4165L99.4668 73.2286L98.6562 72.4274L99.7188 70.8903L99.1597 70.6895L101.02 69.3425L101.975 70.0614L101.42 71.4165Z" fill="#EBCEB1"/>
<path d="M103.427 46.4507L102.746 48.0318L103.397 59.6585C103.397 59.6585 99.9557 69.6109 100.049 69.6109C100.142 69.6109 102.374 70.3551 102.374 70.3551L107.395 60.3097V54.1709L103.427 46.4507Z" fill="#004AAD"/>
<path d="M104.656 37.9062C103.811 38.5663 103.076 39.9693 103.368 41.0737C103.508 41.6056 103.892 41.962 104.02 42.5373C104.275 43.6704 106.245 44.5049 105.417 45.8198C104.991 46.4958 104.166 46.7814 103.404 47.0204C103.311 47.0495 103.214 47.0787 103.119 47.0599C102.962 47.0289 102.857 46.8727 102.828 46.7158C102.799 46.5589 102.829 46.3982 102.845 46.2395C103.019 44.5801 101.896 42.919 101.48 41.351C101.065 39.7859 101.087 37.9993 102.171 36.6992C103.096 36.7848 103.471 36.6065 104.065 37.3212L104.656 37.9062Z" fill="#11233B"/>
<path d="M106.639 44.5422C105.538 44.6287 104.462 44.0252 103.764 43.1691C103.066 42.3131 102.698 41.2337 102.47 40.1531C101.709 36.5568 106.113 35.3936 108.434 37.5935C110.457 39.5105 109.84 44.2903 106.639 44.5422Z" fill="#AA6755"/>
<path d="M112.12 43.8668C111.534 43.8236 110.951 43.7631 110.426 43.3844C109.579 42.7724 109.079 41.3933 108.559 40.5201C108.01 39.5996 107.383 38.6122 106.371 38.2609C105.71 38.0314 105.124 38.181 104.503 38.4297C104.077 38.6001 104.128 38.7667 103.676 38.6899C103.33 38.6311 102.878 38.2104 102.688 37.9335C102.366 37.4666 102.345 36.8406 102.516 36.3001C102.779 35.4682 103.267 34.9049 104.044 34.5584C106.77 33.3424 109.52 34.1068 111.424 36.4696C112.339 37.6053 112.667 39.16 113.587 40.2366C114.155 40.9014 114.861 41.2063 115.404 41.9402C116.812 43.8447 119.123 46.066 119.954 48.2972C119.985 48.3797 120.013 48.4738 119.975 48.5532C119.897 48.715 119.656 48.6591 119.495 48.579C118.558 48.1113 117.621 47.6434 116.683 47.1757C116.315 46.992 115.942 46.8046 115.639 46.5267C114.884 45.8344 114.622 44.6388 113.706 44.1813C113.206 43.932 112.662 43.907 112.12 43.8668Z" fill="#11233B"/>
<path d="M115.95 48.5901L123.483 46.8229L125.496 36.8101L122.995 37.0284L121.065 43.5673L111.3 43.8463L110.742 44.5905L115.95 48.5901Z" fill="#004AAD"/>
<path d="M123.395 36.993L123.641 34.3676L125.5 32.9456L125.609 33.7113L124.953 34.3676C124.953 34.3676 124.789 35.1333 124.324 35.5161C124.379 35.9538 124.735 36.8835 124.735 36.8835L123.395 36.993Z" fill="#EBCEB1"/>
<path d="M72.4675 49.8088L72.3125 66.6619L142.316 67.306L142.471 50.4529L72.4675 49.8088Z" fill="#F9F9F9"/>
<path d="M79.3176 61.8422L76.9844 54.3218L78.842 54.3389L79.7248 57.5182C79.9723 58.4105 80.1982 59.2692 80.3675 60.2053L80.4009 60.2057C80.5982 59.3062 80.84 58.4183 81.1037 57.564L82.0898 54.3688L83.8917 54.3856L81.2974 61.8605L79.3176 61.8422Z" fill="#11233B"/>
<path d="M91.4318 58.1268C91.4092 60.5854 89.9048 62.0625 87.7137 62.0422C85.489 62.0216 84.2032 60.3298 84.2229 58.1937C84.2436 55.9464 85.6939 54.2798 87.9074 54.3002C90.21 54.3215 91.451 56.0575 91.4318 58.1268ZM86.0141 58.1768C86.0006 59.6453 86.6806 60.6863 87.8151 60.6968C88.9605 60.7074 89.627 59.6232 89.6405 58.1657C89.653 56.8196 89.0184 55.6567 87.8507 55.646C86.705 55.6354 86.0274 56.7195 86.0141 58.1768Z" fill="#11233B"/>
<path d="M92.5768 54.4658L94.2787 54.4816L94.2227 60.5559L97.2037 60.5834L97.1906 62.0073L92.5078 61.9641L92.5768 54.4658Z" fill="#11233B"/>
<path d="M99.608 54.5306L99.5682 58.847C99.5563 60.1376 100.04 60.7984 100.907 60.8065C101.797 60.8146 102.292 60.1962 102.305 58.8723L102.344 54.5559L104.035 54.5715L103.996 58.7766C103.975 61.0909 102.797 62.1815 100.839 62.1633C98.9481 62.1458 97.8454 61.0898 97.8675 58.6979L97.9061 54.5149L99.608 54.5306Z" fill="#11233B"/>
<path d="M105.434 62.0835L105.503 54.5852L107.483 54.6035L109.015 57.3659C109.452 58.1599 109.888 59.0985 110.214 59.9469L110.248 59.9472C110.145 58.9561 110.122 57.9433 110.132 56.8199L110.152 54.6281L111.709 54.6425L111.64 62.1407L109.86 62.1243L108.285 59.2169C107.848 58.4117 107.367 57.4396 107.009 56.5571L106.975 56.568C107.01 57.5586 107.023 58.6155 107.012 59.8393L106.991 62.0978L105.434 62.0835Z" fill="#11233B"/>
<path d="M114.607 56.0935L112.594 56.075L112.607 54.6509L118.369 54.7042L118.356 56.1283L116.309 56.1092L116.253 62.1834L114.551 62.1677L114.607 56.0935Z" fill="#11233B"/>
<path d="M123.689 59.0811L120.93 59.0555L120.914 60.8356L123.995 60.8642L123.982 62.2547L119.199 62.2104L119.268 54.7122L123.895 54.7549L123.883 56.1456L120.957 56.1186L120.943 57.6762L123.701 57.7018L123.689 59.0811Z" fill="#11233B"/>
<path d="M129.63 59.1361L126.872 59.1107L126.855 60.8908L129.936 60.9193L129.924 62.3099L125.141 62.2656L125.21 54.7673L129.837 54.8102L129.824 56.2009L126.899 56.174L126.885 57.7314L129.643 57.757L129.63 59.1361Z" fill="#11233B"/>
<path d="M131.147 54.9223C131.692 54.8383 132.505 54.779 133.406 54.7874C134.518 54.7976 135.295 54.9718 135.825 55.3994C136.267 55.7595 136.507 56.2847 136.5 56.9745C136.492 57.9314 135.807 58.5813 135.16 58.8091L135.159 58.8425C135.68 59.0583 135.965 59.5619 136.148 60.2534C136.373 61.1012 136.598 62.0823 136.74 62.3729L135.004 62.3568C134.884 62.1442 134.712 61.5308 134.498 60.6054C134.306 59.6689 133.986 59.4102 133.297 59.3927L132.785 59.388L132.758 62.3362L131.078 62.3208L131.147 54.9223ZM132.796 58.1639L133.464 58.1701C134.309 58.1779 134.814 57.76 134.82 57.1036C134.826 56.4137 134.362 56.0645 133.584 56.0462C133.172 56.0424 132.938 56.0737 132.816 56.0946L132.796 58.1639Z" fill="#11233B"/>
<path d="M102.893 81.16L73.5198 92.4471L41.3711 81.6414L68.6837 71.1328L102.893 81.16Z" fill="#313CA3"/>
<path d="M62.0754 5.95663C62.0678 5.93414 62.0618 5.91165 62.054 5.88917C60.6051 1.67689 56.2325 -1.13204 51.6528 0.443928C48.0136 1.69609 46.803 5.03813 46.9254 7.73446C45.3634 5.5337 42.3533 3.64378 38.7141 4.89595C34.1344 6.47174 32.4152 11.3768 33.8639 15.5891C33.8717 15.6115 33.8807 15.633 33.8886 15.6555C34.1794 16.5804 37.4098 25.898 54.115 28.6504L54.1157 28.6524C54.1162 28.6519 54.1169 28.6512 54.1169 28.6512C54.1183 28.6507 54.1192 28.6509 54.1192 28.6509C54.1206 28.6504 54.1211 28.6498 54.1211 28.6498C54.1225 28.6493 54.1233 28.6495 54.1242 28.6497L54.1235 28.6476C65.5998 16.1979 62.4151 6.86457 62.0754 5.95663Z" fill="#D34E4E"/>
<path d="M47.9297 27.1707C49.7523 27.7628 51.8036 28.2694 54.1138 28.6499L54.1145 28.652C54.115 28.6515 54.1157 28.6508 54.1157 28.6508C54.1171 28.6503 54.1179 28.6505 54.1179 28.6505C54.1193 28.6499 54.1198 28.6494 54.1198 28.6494C54.1198 28.6494 54.1221 28.6491 54.123 28.6491L54.1223 28.647C65.5986 16.1977 62.4138 6.86449 62.0742 5.95638C62.0666 5.93389 62.0605 5.9114 62.0527 5.88892C61.8694 5.35581 61.6389 4.84536 61.3672 4.36328C60.6102 16.6031 53.1808 23.6695 47.9297 27.1707Z" fill="#C13D3D"/>
<path opacity="0.14" d="M34.9757 16.2805C34.9757 16.2805 32.1163 8.2879 40.4182 5.3252C40.4182 5.3252 35.2203 8.65409 34.9757 16.2805Z" fill="#FCFCFC"/>
<path d="M27.1135 97.5713L26.9349 98.7058L24.5654 99.5557L23.6484 98.279L24.9225 97.2868L27.2922 96.4368L27.1135 97.5713Z" fill="#11233B"/>
<path d="M30.4413 74.5599L27.2865 97.2206L25.0425 97.3886L24.3736 77.8715L23.2227 71.6228L30.4413 74.5599Z" fill="#11233B"/>
<path d="M36.1244 68.9067L35.8232 96.0426L33.7698 96.3019L30.7774 75.5744L28.8086 69.5061L36.1244 68.9067Z" fill="#11233B"/>
<path d="M33.897 97.2084L36.2644 98.0922L37.2277 96.7878L35.9704 95.7639L33.75 96.0443L33.897 97.2084Z" fill="#11233B"/>
<path d="M35.0198 39.5125C33.4581 38.0519 29.4475 38.5948 27.3624 38.4688C27.563 38.4809 24.6823 49.9914 24.552 51.0027C24.0771 54.6893 22.7038 58.3645 20.9162 61.6582C20.1626 63.0469 19.7475 64.4969 19.1821 65.9722C18.2453 68.417 17.6063 71.2339 17.6727 73.8272C19.8734 74.5777 21.8999 75.8567 24.1833 76.2943C26.062 76.6544 27.9952 76.4218 29.9072 76.3685C32.1683 76.3054 34.43 76.4955 36.6916 76.4585C38.9534 76.4214 40.2859 76.0277 42.6083 75.3708C41.9479 71.5614 41.9479 71.5614 41.4887 69.6735C41.033 67.7988 37.8111 49.13 37.1387 45.9679C36.7637 44.2049 36.3675 40.9999 35.1472 39.6427C35.1071 39.5976 35.0644 39.5542 35.0198 39.5125Z" fill="#E5BA23"/>
<path d="M31.9062 33.0077C32.9363 33.2603 34.1664 34.2279 34.351 35.3419C34.4399 35.8782 34.2382 36.3551 34.356 36.9256C34.5841 38.0512 33.1457 39.6017 34.4255 40.4517C35.0832 40.8886 35.9431 40.812 36.727 40.7186C36.8222 40.7074 36.9216 40.6944 36.9998 40.6389C37.1283 40.5475 37.1599 40.364 37.1226 40.2109C37.0852 40.0577 36.9934 39.9246 36.9142 39.7883C36.0856 38.3625 36.4253 36.4098 36.1653 34.8274C35.9059 33.248 35.1626 31.6456 33.6582 30.9128C32.8586 31.3648 32.2501 32.1432 32.0043 33.0281L31.9062 33.0077Z" fill="#11233B"/>
<path d="M32.8092 39.794C33.837 39.4259 34.5625 38.4458 34.8453 37.3912C35.128 36.3365 35.0224 35.2143 34.7908 34.1472C34.0202 30.5962 29.5785 31.3313 28.3763 34.2555C27.3286 36.8037 29.8206 40.8642 32.8092 39.794Z" fill="#EAC1A4"/>
<path d="M27.592 41.4065C28.1024 41.1304 28.6039 40.8394 28.9235 40.2856C29.4399 39.3903 29.3323 37.9442 29.4479 36.946C29.5693 35.8938 29.7349 34.7494 30.5051 34.0225C31.0082 33.5479 31.5979 33.4448 32.2585 33.4176C32.7109 33.3989 32.7326 33.5698 33.1092 33.3173C33.3979 33.1237 33.6346 32.5616 33.6943 32.2348C33.795 31.6836 33.5604 31.1108 33.1876 30.6926C32.6138 30.0489 31.945 29.739 31.1045 29.7412C28.1541 29.7492 25.9838 31.5526 25.2237 34.4548C24.8585 35.8496 25.1924 37.3844 24.7992 38.7279C24.5563 39.5574 24.0427 40.1187 23.8507 41.0003C23.3525 43.2881 22.1685 46.2273 22.3223 48.5762C22.328 48.6633 22.3406 48.7594 22.4072 48.8155C22.5428 48.9298 22.738 48.7816 22.8504 48.6442C23.5062 47.8427 24.1619 47.0411 24.8177 46.2395C25.0752 45.9247 25.336 45.6045 25.4968 45.2311C25.897 44.301 25.6488 43.117 26.2899 42.3331C26.6391 41.9053 27.1194 41.6621 27.592 41.4065Z" fill="#11233B"/>
<path d="M38.3344 42.467L41.0517 56.2761L32.772 60.0805L31.9609 57.5419L37.7694 51.8134L33.7289 46.5684L34.223 40.9883L38.3344 42.467Z" fill="#E5BA23"/>
<path d="M32.5201 59.3896C32.0187 59.7093 30.4541 59.9011 29.9287 59.5335C28.7158 58.6851 30.6352 58.3225 31.2707 58.0482C31.1075 57.855 30.9437 57.6732 30.8233 57.4565C30.7128 57.2577 32.8385 57.032 33.1027 57.1576C33.7369 57.459 33.6819 57.9024 33.8867 58.5246C33.4258 58.8013 32.9744 59.0995 32.5201 59.3896Z" fill="#EAC1A4"/>
<path d="M23.6475 42.6196L16.8906 53.6282L23.1583 62.4242L24.891 60.3995L21.4088 53.8285L27.5201 49.6L27.2829 42.0974L23.6475 42.6196Z" fill="#E5BA23"/>
<path d="M24.9649 46.1459L22.2031 46.563L28.6828 89.4853L31.4446 89.0682L24.9649 46.1459Z" fill="#11233B"/>
<path d="M21.0117 79.726L22.237 87.8404C23.4002 95.543 31.3231 97.5734 31.3231 97.5734C31.3231 97.5734 38.2931 93.2933 37.1298 85.5907L35.9044 77.4763L21.0117 79.726Z" fill="#E5E5E5"/>
<path d="M23.9462 48.7296L23.4848 48.6113C23.2095 48.5409 16.7267 46.8077 15.7421 40.2881L15.5742 39.1762L29.1236 37.1294L29.2915 38.2413C30.2761 44.7609 24.5942 48.3319 24.3519 48.4803L23.9462 48.7296ZM18.2156 41.0516C19.2576 44.4232 22.3913 45.8523 23.5796 46.2827C24.5986 45.5204 27.1628 43.2482 27.1552 39.701L18.2156 41.0516Z" fill="#8EC3CB"/>
<path d="M24.9649 46.1459L22.2031 46.563L23.0637 52.2637L25.8255 51.8466L24.9649 46.1459Z" fill="#8EC3CB"/>
<path d="M23.412 62.0761C23.7499 62.5655 25.1175 63.3496 25.7443 63.2146C27.1913 62.9035 25.563 61.8243 25.084 61.3247C25.3095 61.21 25.5309 61.1061 25.726 60.9532C25.9049 60.8129 24.0335 59.7797 23.7413 59.7928C23.0398 59.8245 22.9184 60.2543 22.4883 60.7484C22.8056 61.1824 23.1059 61.6324 23.412 62.0761Z" fill="#EAC1A4"/>
<path d="M68.3256 80.7552C69.4049 74.1038 64.8888 67.8367 58.2387 66.7572C51.5885 65.6778 45.3225 70.1947 44.2433 76.846C43.164 83.4974 47.6801 89.7645 54.3302 90.844C60.9804 91.9234 67.2464 87.4065 68.3256 80.7552Z" fill="white"/>
<path d="M62.6654 68.4009C63.8802 70.2977 64.5846 72.553 64.5846 74.9729C64.5846 81.7113 59.123 87.1736 52.386 87.1736C50.0463 87.1736 47.8606 86.5143 46.0039 85.3718C48.1719 88.757 51.9656 91.0007 56.2833 91.0007C63.0205 91.0007 68.4818 85.5382 68.4818 78.7999C68.4818 74.4017 66.1549 70.5477 62.6654 68.4009Z" fill="#E5E4E2"/>
<path d="M45.7414 79.8889C45.7414 73.6328 50.8121 68.5612 57.0671 68.5612C60.7233 68.5612 63.9741 70.2944 66.0449 72.9836C64.0892 69.5878 60.4235 67.3018 56.2241 67.3018C49.9691 67.3018 44.8984 72.3734 44.8984 78.6295C44.8984 81.2288 45.7744 83.6233 47.2463 85.5348C46.2891 83.8727 45.7414 81.9449 45.7414 79.8889Z" fill="#FCFCFA"/>
<mask id="mask0_1113_3989" style="mask-type:luminance" maskUnits="userSpaceOnUse" x="44" y="66" width="25" height="26">
<path d="M68.3256 80.7552C69.4049 74.1038 64.8888 67.8367 58.2387 66.7572C51.5885 65.6778 45.3225 70.1947 44.2433 76.846C43.164 83.4974 47.6801 89.7645 54.3303 90.844C60.9804 91.9234 67.2464 87.4065 68.3256 80.7552Z" fill="white"/>
</mask>
<g mask="url(#mask0_1113_3989)">
<path d="M48.3617 71.4442L48.0781 71.2317C48.1359 71.1546 49.5253 69.3295 52.267 68.2773L52.3939 68.6082C49.7469 69.6239 48.3752 71.426 48.3617 71.4442Z" fill="#2B323B"/>
<path d="M64.2784 71.4443C64.2648 71.4261 62.8876 69.6218 60.2461 68.608L60.373 68.2771C63.1147 69.3293 64.504 71.1544 64.5619 71.2315L64.2784 71.4443Z" fill="#2B323B"/>
<path d="M47.3414 85.2951C46.51 84.4068 45.8546 82.991 45.3933 81.0874C45.0521 79.6787 44.9501 78.5097 44.9492 78.4981L45.3022 78.468C45.306 78.5135 45.7112 83.0347 47.6001 85.053L47.3414 85.2951Z" fill="#2B323B"/>
<path d="M65.2626 85.2951L65.0039 85.053C66.8938 83.0333 67.298 78.5135 67.3018 78.468L67.655 78.4981C67.6539 78.5097 67.5521 79.6787 67.2107 81.0874C66.7494 82.991 66.094 84.4066 65.2626 85.2951Z" fill="#2B323B"/>
<path d="M56.5072 90.017C54.9156 90.017 53.6605 89.7138 53.582 89.6944L53.6669 89.3503C53.6951 89.3573 56.5238 90.0393 59.0339 89.3514L59.1275 89.6932C58.2415 89.936 57.3294 90.017 56.5072 90.017Z" fill="#2B323B"/>
</g>
<mask id="mask1_1113_3989" style="mask-type:luminance" maskUnits="userSpaceOnUse" x="44" y="66" width="25" height="26">
<path d="M68.3256 80.7552C69.4049 74.1038 64.8888 67.8367 58.2387 66.7572C51.5885 65.6778 45.3225 70.1947 44.2433 76.846C43.164 83.4974 47.6801 89.7645 54.3303 90.844C60.9804 91.9234 67.2464 87.4065 68.3256 80.7552Z" fill="white"/>
</mask>
<g mask="url(#mask1_1113_3989)">
<path d="M56.2856 74.2283L52.1367 77.243L53.7214 82.1213H58.8497L60.4344 77.243L56.2856 74.2283Z" fill="#11233B"/>
</g>
<mask id="mask2_1113_3989" style="mask-type:luminance" maskUnits="userSpaceOnUse" x="44" y="66" width="25" height="26">
<path d="M68.3256 80.7552C69.4049 74.1038 64.8888 67.8367 58.2387 66.7572C51.5885 65.6778 45.3225 70.1947 44.2433 76.846C43.164 83.4974 47.6801 89.7645 54.3303 90.844C60.9804 91.9234 67.2464 87.4065 68.3256 80.7552Z" fill="white"/>
</mask>
<g mask="url(#mask2_1113_3989)">
<path d="M56.2856 71.5876L60.4344 68.5728L58.8497 63.6946H53.7214L52.1367 68.5728L56.2856 71.5876Z" fill="#11233B"/>
</g>
<mask id="mask3_1113_3989" style="mask-type:luminance" maskUnits="userSpaceOnUse" x="44" y="66" width="25" height="26">
<path d="M68.3256 80.7552C69.4049 74.1038 64.8888 67.8367 58.2387 66.7572C51.5885 65.6778 45.3225 70.1947 44.2433 76.846C43.164 83.4974 47.6801 89.7645 54.3303 90.844C60.9804 91.9234 67.2464 87.4065 68.3256 80.7552Z" fill="white"/>
</mask>
<g mask="url(#mask3_1113_3989)">
<path d="M52.3989 84.76L47.2711 84.8228L45.7461 89.7199L49.9315 92.6838L54.0432 89.6183L52.3989 84.76Z" fill="#11233B"/>
<path d="M54.1692 80.8347L51.7109 85.751L52.0279 85.9095L54.4861 80.9932L54.1692 80.8347Z" fill="#11233B"/>
</g>
<mask id="mask4_1113_3989" style="mask-type:luminance" maskUnits="userSpaceOnUse" x="44" y="66" width="25" height="26">
<path d="M68.3256 80.7552C69.4049 74.1038 64.8888 67.8367 58.2387 66.7572C51.5885 65.6778 45.3225 70.1947 44.2433 76.846C43.164 83.4974 47.6801 89.7645 54.3303 90.844C60.9804 91.9234 67.2464 87.4065 68.3256 80.7552Z" fill="white"/>
</mask>
<g mask="url(#mask4_1113_3989)">
<path d="M49.5682 76.1979L48.406 71.2022L43.2964 70.7639L41.3008 75.4887L45.177 78.8472L49.5682 76.1979Z" fill="#11233B"/>
<path d="M48.2549 75.4098L48.1133 75.7346L53.1507 77.9317L53.2924 77.6068L48.2549 75.4098Z" fill="#11233B"/>
</g>
<mask id="mask5_1113_3989" style="mask-type:luminance" maskUnits="userSpaceOnUse" x="44" y="66" width="25" height="26">
<path d="M68.3256 80.7552C69.4049 74.1038 64.8888 67.8367 58.2387 66.7572C51.5885 65.6778 45.3225 70.1947 44.2433 76.846C43.164 83.4974 47.6801 89.7645 54.3303 90.844C60.9804 91.9234 67.2464 87.4065 68.3256 80.7552Z" fill="white"/>
</mask>
<g mask="url(#mask5_1113_3989)">
<path d="M60.1989 84.8237L65.3268 84.8863L66.8516 89.7836L62.6662 92.7475L58.5547 89.6821L60.1989 84.8237Z" fill="#11233B"/>
<path d="M58.4263 80.8991L58.1094 81.0576L60.5671 85.9739L60.884 85.8154L58.4263 80.8991Z" fill="#11233B"/>
</g>
<mask id="mask6_1113_3989" style="mask-type:luminance" maskUnits="userSpaceOnUse" x="44" y="66" width="25" height="26">
<path d="M68.3256 80.7552C69.4049 74.1038 64.8888 67.8367 58.2387 66.7572C51.5885 65.6778 45.3225 70.1947 44.2433 76.846C43.164 83.4974 47.6801 89.7645 54.3303 90.844C60.9804 91.9234 67.2464 87.4065 68.3256 80.7552Z" fill="white"/>
</mask>
<g mask="url(#mask6_1113_3989)">
<path d="M63.0742 76.2272L64.3099 71.2491L69.4252 70.8862L71.3511 75.6399L67.426 78.9408L63.0742 76.2272Z" fill="#11233B"/>
<path d="M64.3896 75.4539L59.3203 77.5762L59.4571 77.9031L64.5264 75.7808L64.3896 75.4539Z" fill="#11233B"/>
</g>
<mask id="mask7_1113_3989" style="mask-type:luminance" maskUnits="userSpaceOnUse" x="44" y="66" width="25" height="26">
<path d="M68.3256 80.7552C69.4049 74.1038 64.8888 67.8367 58.2387 66.7572C51.5885 65.6778 45.3225 70.1947 44.2433 76.846C43.164 83.4974 47.6801 89.7645 54.3303 90.844C60.9804 91.9234 67.2464 87.4065 68.3256 80.7552Z" fill="white"/>
</mask>
<g mask="url(#mask7_1113_3989)">
<path d="M56.4637 69.0244H56.1094V74.8144H56.4637V69.0244Z" fill="#11233B"/>
</g>
<path d="M52.4057 87.1736C50.4475 87.1736 48.5982 86.7104 46.9585 85.8901L46.7891 86.4345C48.3317 88.355 50.4428 89.799 52.8678 90.5094L54.063 89.6184L53.2262 87.1456C52.9548 87.1636 52.6816 87.1736 52.4057 87.1736Z" fill="#11233B"/>
<path d="M60.2225 84.8235L58.5781 89.6818L59.7026 90.5201C62.1484 89.8119 64.2773 88.3586 65.8286 86.4221L65.3502 84.8861L60.2225 84.8235Z" fill="#11233B"/>
<path d="M65.8018 71.1448L64.3313 71.2491L64.1914 71.8128C64.4609 72.8207 64.6051 73.8798 64.6051 74.9727C64.6051 75.6835 64.5437 76.3798 64.427 77.0572L67.4474 78.9407L68.4797 78.0726C68.326 75.4562 67.3483 73.0617 65.8018 71.1448Z" fill="#11233B"/>
<path d="M60.2628 68.0445C59.0079 67.5652 57.6465 67.3018 56.2232 67.3018C54.8537 67.3018 53.541 67.545 52.3259 67.9904L52.1367 68.5728L53.103 69.2749C54.3366 68.8139 55.6717 68.5612 57.0661 68.5612C58.0598 68.5612 59.0233 68.6902 59.9416 68.9307L60.4344 68.5726L60.2628 68.0445Z" fill="#11233B"/>
<path d="M47.7243 71.1436C45.9702 73.1345 44.904 75.7461 44.8984 78.6069L45.1753 78.8468L45.8316 78.4509C46.1294 76.0991 47.1484 73.9726 48.6596 72.299L48.4043 71.2018L47.7243 71.1436Z" fill="#11233B"/>
<path d="M98.2376 70.2906C98.1956 70.6493 97.9396 70.9371 97.6821 71.1767C95.9696 72.7708 92.4708 74.1394 90.6445 72.46C90.8918 72.4643 91.5094 72.5974 92.0179 72.5925C93.2248 72.5811 94.2231 71.5555 95.062 70.6225C95.5763 70.0505 96.0454 68.2119 96.8407 68.1107C97.6 68.014 98.3213 69.575 98.2376 70.2906Z" fill="#B23535"/>
<path d="M91.481 70.0079C92.2196 69.0199 92.8915 68.4278 93.7467 67.7852C94.6019 67.1426 95.6695 66.7415 96.6912 66.9395C96.8126 66.963 96.9363 66.9966 97.0342 67.0755C97.1461 67.1656 97.2121 67.3041 97.2744 67.438C97.6186 68.1775 98.3553 69.2217 98.2529 70.1389C96.5164 69.6246 94.5374 69.863 92.878 70.6521C91.6392 71.2411 90.7001 72.5854 90.586 72.561C89.5004 72.3287 91.1334 70.4729 91.481 70.0079Z" fill="#D34E4E"/>
<path d="M83.5792 68.903C83.541 69.2623 83.7274 69.5994 83.9256 69.8898C85.2443 71.8225 88.3552 73.9291 90.5068 72.6939C90.2647 72.6436 89.6329 72.637 89.1381 72.5203C87.9633 72.2428 87.2159 71.0223 86.6035 69.9272C86.228 69.2557 86.176 67.359 85.4225 67.0849C84.7034 66.8233 83.6555 68.1866 83.5792 68.903Z" fill="#B23535"/>
<path d="M90.2318 70.1175C89.7294 68.991 89.2045 68.2652 88.512 67.4498C87.8195 66.6344 86.8668 66.0077 85.8265 65.9753C85.7029 65.9715 85.5749 65.9769 85.462 66.0322C85.333 66.0954 85.238 66.2161 85.1477 66.3329C84.649 66.9781 83.7 67.8343 83.5977 68.7514C85.4047 68.6329 87.2826 69.302 88.727 70.4377C89.8053 71.2855 90.4249 72.804 90.5415 72.8054C91.6516 72.818 90.4682 70.6475 90.2318 70.1175Z" fill="#D34E4E"/>
<path d="M101.286 73.8717L80.1914 71.5151L78.2042 89.3103L99.2991 91.6668L101.286 73.8717Z" fill="#E5BA23"/>
<path d="M102.729 74.0328L78.75 71.354L78.2482 75.8477L102.227 78.5265L102.729 74.0328Z" fill="#E5BA23"/>
<g opacity="0.1">
<path d="M80.5977 76.1084L100.795 78.364L100.616 79.9668L80.5977 76.1084Z" fill="#11233B"/>
</g>
<path d="M89.8842 90.6135L87.2734 90.3219L89.2849 72.3036C89.3054 72.121 89.4646 71.9888 89.6405 72.0085L91.614 72.2289C91.79 72.2486 91.9161 72.4126 91.8957 72.5953L89.8842 90.6135Z" fill="#D34E4E"/>
<path d="M73.5195 116.77L102.893 101.972V81.1357L73.5309 92.4256L73.5195 116.77Z" fill="#313CA3"/>
<path d="M73.5198 116.77L41.3711 102.553V81.6338L73.5312 92.4257L73.5198 116.77Z" fill="#505FBC"/>
<path d="M117.559 35.3137L115.424 34.8689C114.962 34.7723 114.665 34.3197 114.761 33.8575L114.223 27.2562C114.319 26.7942 114.772 26.4977 115.235 26.5941L119.615 28.9779C120.078 29.0742 120.375 29.527 120.278 29.9892L118.571 34.6516C118.474 35.1138 118.021 35.4103 117.559 35.3137Z" fill="#E0E0E0"/>
<path d="M132.287 38.384L134.421 38.8289C134.884 38.9254 135.337 38.6289 135.433 38.1667L138.563 32.3302C138.66 31.868 138.363 31.4154 137.9 31.3188L132.932 31.7539C132.47 31.6574 132.017 31.9538 131.92 32.416L131.624 37.3726C131.527 37.8346 131.824 38.2875 132.287 38.384Z" fill="#E0E0E0"/>
<path d="M131.633 10.2111L131.169 12.4387L129.107 12.0087L129.571 9.78112C120.866 8.43071 115.144 13.5253 113.708 20.4161C112.216 27.5769 117.323 34.6988 125.116 36.3234C132.908 37.9478 140.435 33.4598 141.927 26.2988C143.363 19.4078 140.161 12.4527 131.633 10.2111Z" fill="#EAE8E9"/>
<path d="M118.85 6.1283C118.798 6.11238 118.74 6.12622 118.703 6.16548C118.665 6.20458 114.954 10.1278 117.41 15.4416C117.43 15.4843 117.468 15.5132 117.512 15.5222C117.536 15.5272 117.561 15.5262 117.586 15.518L124.786 13.1326C124.856 13.1092 124.897 13.0369 124.881 12.9649C124.869 12.9117 123.653 7.64857 118.85 6.1283Z" fill="#EAE8E9"/>
<path d="M142.392 11.1037C142.373 11.0527 142.325 11.017 142.272 11.011C137.261 10.4853 134.044 14.8242 134.012 14.8681C133.968 14.9278 133.977 15.0107 134.032 15.06L139.679 20.1234C139.699 20.1409 139.722 20.1522 139.746 20.1572C139.79 20.1662 139.836 20.1551 139.872 20.1238C144.246 16.2339 142.411 11.1545 142.392 11.1037Z" fill="#EAE8E9"/>
<path d="M124.293 17.9119C124.399 17.4034 124.898 17.0773 125.407 17.1833C125.916 17.2894 126.243 17.7877 126.137 18.2962C126.031 18.8048 125.532 19.131 125.023 19.0248C124.514 18.9186 124.187 18.4203 124.293 17.9119Z" fill="#11233B"/>
<path d="M131.379 19.3894C131.485 18.8809 131.984 18.5548 132.493 18.6609C133.002 18.7671 133.329 19.2652 133.223 19.7738C133.117 20.2823 132.618 20.6084 132.109 20.5024C131.6 20.3962 131.273 19.8978 131.379 19.3894Z" fill="#11233B"/>
<path d="M132.973 26.2918C133.448 24.0107 131.357 21.6455 128.302 21.0089C125.248 20.3723 122.387 21.7054 121.911 23.9864C121.436 26.2675 123.527 28.6328 126.582 29.2694C129.636 29.906 132.497 28.5729 132.973 26.2918Z" fill="#C9C9C9"/>
<path d="M127.912 12.215L128.195 10.8575C121.853 10.236 116.085 13.8738 114.913 19.4967C114.387 22.0247 114.872 24.5559 116.117 26.7551C115.392 24.9174 115.176 22.9157 115.593 20.9163C116.705 15.5794 121.958 12.0308 127.912 12.215Z" fill="#F2F2F2"/>
<path d="M115.363 29.5909C117.376 32.8881 120.842 35.4326 125.115 36.3234C132.908 37.9478 140.434 33.4596 141.927 26.2988C142.243 24.7822 142.334 23.2626 142.193 21.7908C132.833 41.807 115.363 29.5909 115.363 29.5909Z" fill="#F4F4F4"/>
<path d="M133.043 25.6523C129.666 29.2542 125.269 28.0835 123.055 27.3911C123.899 28.2802 125.132 28.9738 126.584 29.2765C129.639 29.9132 132.5 28.5803 132.975 26.2993C133.02 26.0837 133.042 25.8677 133.043 25.6523Z" fill="#E2E2E2"/>
<path d="M119.076 6.88037C119.076 6.88037 117.573 7.91061 116.973 11.2018C116.973 11.2018 118.099 7.8319 120.018 7.26161L119.076 6.88037Z" fill="#F2F2F2"/>
<path d="M122.363 23.8557C122.363 23.8557 123.351 21.3794 126.428 21.3757C126.428 21.3757 124.311 21.8355 122.363 23.8557Z" fill="white"/>
<path d="M131.801 38.0908C131.92 38.2356 132.088 38.3425 132.286 38.3838L134.42 38.8287C134.883 38.9252 135.336 38.6288 135.432 38.1666L136.543 36.0952C134.56 37.6117 132.842 38.0109 131.801 38.0908Z" fill="#E2E2E2"/>
<path d="M125.882 24.5891C125.784 25.0577 125.479 25.3905 125.201 25.3326C124.923 25.2746 124.776 24.8477 124.874 24.3791C124.972 23.9106 125.276 23.5778 125.555 23.6357C125.833 23.6936 125.98 24.1205 125.882 24.5891Z" fill="white"/>
<path d="M130.112 25.4707C130.015 25.9393 129.71 26.2721 129.432 26.2142C129.153 26.1562 129.007 25.7293 129.104 25.2607C129.202 24.7921 129.507 24.4593 129.785 24.5173C130.064 24.5752 130.21 25.0021 130.112 25.4707Z" fill="white"/>
<path d="M67.852 75.4646C69.3468 75.6967 70.3704 77.0969 70.1383 78.5921C69.9062 80.0871 68.5063 81.111 67.0114 80.8788L63.0887 80.2696C61.5939 80.0375 60.5703 78.6373 60.8024 77.1421C61.0344 75.647 62.4344 74.6232 63.9293 74.8553L67.852 75.4646Z" fill="#CCD2D9"/>
<path d="M65.2653 84.8199C66.7457 83.7372 68.8233 84.06 69.9057 85.5406C70.9882 87.0213 70.6655 89.0992 69.1851 90.1819L65.3002 93.0228C63.8199 94.1055 61.7423 93.7827 60.6598 92.302C59.5774 90.8214 59.9001 88.7434 61.3805 87.6608L65.2653 84.8199Z" fill="#CCD2D9"/>
<path d="M79.8061 87.0787C78.7236 85.5981 76.646 85.2753 75.1656 86.358C73.6853 87.4406 73.3625 89.5184 74.445 90.9992L77.2854 94.8847C78.3679 96.3654 80.4454 96.6882 81.9258 95.6055C83.4062 94.5229 83.7289 92.4449 82.6465 90.9643L79.8061 87.0787Z" fill="#CCD2D9"/>
<path d="M84.3558 78.0282C85.8505 78.2603 86.8742 79.6606 86.6421 81.1558C86.41 82.6508 85.01 83.6746 83.5151 83.4425L79.5926 82.8331C78.0978 82.601 77.0742 81.2006 77.3063 79.7055C77.5383 78.2105 78.9383 77.1867 80.4333 77.4188L84.3558 78.0282Z" fill="#CCD2D9"/>
<path d="M80.1843 86.3175C79.5389 90.4743 75.6466 93.3206 71.4906 92.675C67.3346 92.0295 64.4888 88.1365 65.1343 83.9798L65.5613 81.2298C66.2067 77.0731 70.0989 74.2268 74.2549 74.8723C78.4109 75.5179 81.2567 79.4108 80.6113 83.5676L80.1843 86.3175Z" fill="#CCD2D9"/>
<path d="M82.281 74.2126C84.3192 70.1537 82.6816 65.2107 78.6234 63.1721C74.5652 61.1336 69.6232 62.7714 67.585 66.8303C65.5468 70.8893 67.1843 75.8323 71.2425 77.8708C75.3007 79.9094 80.2428 78.2715 82.281 74.2126Z" fill="#CCD2D9"/>
<path d="M74.8608 71.0021C71.9542 70.5507 69.1674 71.6814 67.375 73.7535C68.4547 76.2716 70.7673 78.1946 73.6739 78.646C76.5806 79.0975 79.3672 77.9668 81.1598 75.8947C80.0799 73.3764 77.7673 71.4536 74.8608 71.0021Z" fill="white"/>
<path d="M72.3691 66.4156C73.3425 64.5295 72.6029 62.2111 70.7171 61.2375C68.8313 60.2639 66.5134 61.0036 65.54 62.8898C64.5665 64.7759 65.3061 67.0942 67.1919 68.0679C69.0777 69.0415 71.3956 68.3018 72.3691 66.4156Z" fill="#CCD2D9"/>
<path d="M86.26 66.8204C86.3065 64.6982 84.6241 62.9402 82.5023 62.8937C80.3805 62.8472 78.6228 64.5299 78.5763 66.6521C78.5299 68.7743 80.2122 70.5323 82.334 70.5788C84.4558 70.6253 86.2136 68.9426 86.26 66.8204Z" fill="#CCD2D9"/>
<path d="M72.0313 68.796C71.9601 69.2551 71.5303 69.5692 71.0713 69.4979C70.6123 69.4267 70.2981 68.9968 70.3695 68.5377C70.4407 68.0787 70.8705 67.7644 71.3295 67.8358C71.7885 67.9071 72.1027 68.3369 72.0313 68.796Z" fill="#11233B"/>
<path d="M79.883 70.0157C79.8117 70.4747 79.382 70.789 78.923 70.7178C78.464 70.6465 78.1498 70.2167 78.221 69.7576C78.2923 69.2985 78.722 68.9842 79.181 69.0555C79.64 69.1268 79.9542 69.5566 79.883 70.0157Z" fill="#11233B"/>
<path d="M76.8658 74.1844C76.7105 73.972 76.4125 73.9258 76.2002 74.081C75.7733 74.393 75.281 74.552 74.7886 74.5683L75.0935 72.6052C76.0824 72.1108 76.1562 71.338 76.1562 71.338C76.2173 70.9445 75.9544 70.5345 75.5608 70.4734L74.3528 70.2858C73.9593 70.2247 73.5844 70.5354 73.5234 70.9291C73.523 70.9311 73.5228 70.9332 73.5225 70.9353C73.509 71.0088 73.4016 71.7284 74.1522 72.4588L73.8473 74.4221C73.3831 74.2573 72.962 73.9565 72.65 73.5296C72.4947 73.3171 72.1967 73.2708 71.9843 73.4261C71.772 73.5815 71.7256 73.8795 71.8809 74.0919C72.4494 74.8694 73.2811 75.3434 74.165 75.4807C75.0489 75.6181 75.9852 75.4188 76.7626 74.8502C76.9749 74.6951 77.0211 74.397 76.8658 74.1844Z" fill="#11233B"/>
<path d="M67.8926 63.1266C67.0348 63.8769 66.9474 65.1808 67.6978 66.0389L70.8044 63.3215C70.054 62.4634 68.7504 62.3762 67.8926 63.1266Z" fill="white"/>
<path d="M83.8884 65.6114C83.2985 64.6361 82.0297 64.3238 81.0547 64.9138L83.1909 68.4456C84.1661 67.8555 84.4783 66.5866 83.8884 65.6114Z" fill="white"/>
<path d="M73.5308 92.4257L67.7903 102.242L36.582 89.8521L41.3978 81.6338L73.5308 92.4257Z" fill="#004AAD"/>
<path d="M108.155 87.6937L80.2567 100.893L73.5312 92.4256L102.924 81.1357L108.155 87.6937Z" fill="#505FBC"/>
</svg>
